<mxfile host="app.diagrams.net" modified="2021-05-20T21:34:31.997Z" agent="5.0 (Windows NT 10.0; Win64; x64) AppleWebKit/537.36 (KHTML, like Gecko) Chrome/90.0.4430.212 Safari/537.36" etag="duT01ipCbNbTJh1VJAsQ" version="14.6.11" type="github">
  <diagram id="ViZvrklLhSphlfB9RMSQ" name="Page-1">
    <mxGraphModel dx="1422" dy="737" grid="1" gridSize="10" guides="1" tooltips="1" connect="1" arrows="1" fold="1" page="1" pageScale="1" pageWidth="850" pageHeight="1100" math="0" shadow="0">
      <root>
        <mxCell id="0" />
        <mxCell id="1" parent="0" />
        <mxCell id="SDU-umlRtd4r8Wcu-aAS-1" value="" style="strokeWidth=1;shadow=0;dashed=0;align=center;html=1;shape=mxgraph.mockup.containers.browserWindow;rSize=0;strokeColor2=#008cff;strokeColor3=#c4c4c4;mainText=,;recursiveResize=0;" parent="1" vertex="1">
          <mxGeometry x="45" y="110" width="760" height="700" as="geometry" />
        </mxCell>
        <mxCell id="SDU-umlRtd4r8Wcu-aAS-2" value="Kuroko&#39;s Basketball" style="strokeWidth=1;shadow=0;dashed=0;align=center;html=1;shape=mxgraph.mockup.containers.anchor;fontSize=17;fontColor=#666666;align=left;" parent="SDU-umlRtd4r8Wcu-aAS-1" vertex="1">
          <mxGeometry x="60" y="12" width="110" height="26" as="geometry" />
        </mxCell>
        <mxCell id="SDU-umlRtd4r8Wcu-aAS-3" value="https://www.draw.io" style="strokeWidth=1;shadow=0;dashed=0;align=center;html=1;shape=mxgraph.mockup.containers.anchor;rSize=0;fontSize=17;fontColor=#666666;align=left;" parent="SDU-umlRtd4r8Wcu-aAS-1" vertex="1">
          <mxGeometry x="130" y="60" width="250" height="26" as="geometry" />
        </mxCell>
        <mxCell id="SDU-umlRtd4r8Wcu-aAS-4" value="" style="rounded=0;whiteSpace=wrap;html=1;" parent="SDU-umlRtd4r8Wcu-aAS-1" vertex="1">
          <mxGeometry x="25" y="120" width="710" height="560" as="geometry" />
        </mxCell>
        <mxCell id="SDU-umlRtd4r8Wcu-aAS-5" value="&amp;nbsp;Kuroko&#39;s Basketball" style="rounded=0;whiteSpace=wrap;html=1;fillColor=#CC0000;" parent="SDU-umlRtd4r8Wcu-aAS-1" vertex="1">
          <mxGeometry x="40" y="130" width="680" height="70" as="geometry" />
        </mxCell>
        <mxCell id="SDU-umlRtd4r8Wcu-aAS-6" value="" style="whiteSpace=wrap;html=1;aspect=fixed;fillColor=#000000;" parent="SDU-umlRtd4r8Wcu-aAS-1" vertex="1">
          <mxGeometry x="40" y="210" width="170" height="170" as="geometry" />
        </mxCell>
        <mxCell id="SDU-umlRtd4r8Wcu-aAS-7" value="&lt;font color=&quot;#000000&quot;&gt;CC0000&lt;/font&gt;" style="whiteSpace=wrap;html=1;aspect=fixed;strokeColor=#B20000;fontColor=#ffffff;fillColor=#CC0000;" parent="SDU-umlRtd4r8Wcu-aAS-1" vertex="1">
          <mxGeometry x="40" y="390" width="170" height="170" as="geometry" />
        </mxCell>
        <mxCell id="SDU-umlRtd4r8Wcu-aAS-8" value="&lt;font color=&quot;#ffffff&quot;&gt;000000&lt;/font&gt;" style="rounded=0;whiteSpace=wrap;html=1;fillColor=#000000;" parent="SDU-umlRtd4r8Wcu-aAS-1" vertex="1">
          <mxGeometry x="40" y="570" width="680" height="60" as="geometry" />
        </mxCell>
        <mxCell id="SDU-umlRtd4r8Wcu-aAS-10" value="&lt;div class=&quot;OutlineElement Ltr SCXW93701530 BCX0&quot; style=&quot;margin: 0px ; padding: 0px ; overflow: visible ; cursor: text ; clear: both ; position: relative ; direction: ltr ; font-family: &amp;#34;segoe ui&amp;#34; , &amp;#34;segoe ui web&amp;#34; , &amp;#34;arial&amp;#34; , &amp;#34;verdana&amp;#34; , sans-serif ; font-size: 10px&quot;&gt;&lt;div class=&quot;OutlineElement Ltr SCXW93701530 BCX0&quot; style=&quot;margin: 0px ; padding: 0px ; overflow: visible ; cursor: text ; clear: both ; position: relative ; direction: ltr&quot;&gt;&lt;p class=&quot;Paragraph SCXW93701530 BCX0&quot; style=&quot;margin: 0px ; padding: 0px ; overflow-wrap: break-word ; vertical-align: baseline&quot;&gt;&lt;br&gt;&lt;/p&gt;&lt;/div&gt;&lt;/div&gt;" style="rounded=0;whiteSpace=wrap;html=1;fillColor=#000000;" parent="SDU-umlRtd4r8Wcu-aAS-1" vertex="1">
          <mxGeometry x="220" y="210" width="500" height="170" as="geometry" />
        </mxCell>
        <mxCell id="SDU-umlRtd4r8Wcu-aAS-11" value="CC0000" style="rounded=0;whiteSpace=wrap;html=1;fillColor=#CC0000;" parent="SDU-umlRtd4r8Wcu-aAS-1" vertex="1">
          <mxGeometry x="40" y="640" width="680" height="30" as="geometry" />
        </mxCell>
        <mxCell id="SDU-umlRtd4r8Wcu-aAS-12" value="CC0000" style="rounded=0;whiteSpace=wrap;html=1;fillColor=#CC0000;" parent="SDU-umlRtd4r8Wcu-aAS-1" vertex="1">
          <mxGeometry x="220" y="390" width="320" height="170" as="geometry" />
        </mxCell>
        <mxCell id="SDU-umlRtd4r8Wcu-aAS-13" value="" style="whiteSpace=wrap;html=1;aspect=fixed;fillColor=#000000;" parent="SDU-umlRtd4r8Wcu-aAS-1" vertex="1">
          <mxGeometry x="550" y="390" width="170" height="170" as="geometry" />
        </mxCell>
        <mxCell id="SDU-umlRtd4r8Wcu-aAS-15" value="" style="verticalLabelPosition=bottom;shadow=0;dashed=0;align=center;html=1;verticalAlign=top;strokeWidth=1;shape=mxgraph.mockup.containers.userMale;strokeColor=#666666;strokeColor2=#008cff;" parent="SDU-umlRtd4r8Wcu-aAS-1" vertex="1">
          <mxGeometry x="570" y="410" width="130" height="130" as="geometry" />
        </mxCell>
        <mxCell id="R2C3q_km9Dmwo1C0FH2w-1" value="" style="shape=image;verticalLabelPosition=bottom;labelBackgroundColor=#ffffff;verticalAlign=top;aspect=fixed;imageAspect=0;image=data:image/jpeg,/9j/4AAQSkZJRgABAQEAYABgAAD/2wBDAAEBAQEBAQEBAQEBAQEBAQEBAQEBAQEBAQEBAQEBAQEBAQEBAQEBAQEBAQEBAQEBAQEBAQEBAQEBAQEBAQEBAQH/2wBDAQEBAQEBAQEBAQEBAQEBAQEBAQEBAQEBAQEBAQEBAQEBAQEBAQEBAQEBAQEBAQEBAQEBAQEBAQEBAQEBAQEBAQH/wAARCAGNAPsDASIAAhEBAxEB/8QAHwAAAQUBAQEBAQEAAAAAAAAAAAECAwQFBgcICQoL/8QAtRAAAgEDAwIEAwUFBAQAAAF9AQIDAAQRBRIhMUEGE1FhByJxFDKBkaEII0KxwRVS0fAkM2JyggkKFhcYGRolJicoKSo0NTY3ODk6Q0RFRkdISUpTVFVWV1hZWmNkZWZnaGlqc3R1dnd4eXqDhIWGh4iJipKTlJWWl5iZmqKjpKWmp6ipqrKztLW2t7i5usLDxMXGx8jJytLT1NXW19jZ2uHi4+Tl5ufo6erx8vP09fb3+Pn6/8QAHwEAAwEBAQEBAQEBAQAAAAAAAAECAwQFBgcICQoL/8QAtREAAgECBAQDBAcFBAQAAQJ3AAECAxEEBSExBhJBUQdhcRMiMoEIFEKRobHBCSMzUvAVYnLRChYkNOEl8RcYGRomJygpKjU2Nzg5OkNERUZHSElKU1RVVldYWVpjZGVmZ2hpanN0dXZ3eHl6goOEhYaHiImKkpOUlZaXmJmaoqOkpaanqKmqsrO0tba3uLm6wsPExcbHyMnK0tPU1dbX2Nna4uPk5ebn6Onq8vP09fb3+Pn6/9oADAMBAAIRAxEAPwD9I5NPBDDBc+YWCsoAIwN3zDAJ9R97APqaqPpsfXCZ3Z+7g/Nw3PTOVGOmRyOa7mSyYBs43Kx6DaBkcnYcEHORgAnA6VUazBYbhlckE46ErkYDDbyOC2Mkj5c9K/0ddfqnpp639Vc/ydhhbrbWy7Jfjfz/AC7nIf2aoBwB93A43buCOMEc/eIz3BG7mmjT1GQFXnGOMN9AOe+NpBIznBxXYCxI6Z2rnb1J9ewJOMnAzxyeelBseCcgEDO4rsAC8tknoB94844OSBzWUsTbRy7d+lul7/h13Nvqi0aT+dulvR/L8Foc3Y6Dd6leWmnadZXWoajfXEdpZafYW015e311KQsVta2dqsk9zcyMSI4oI5JnOAiHmtWXwrrNrNPa3OjaxbzQSPDPbXOmahBcRTISssU8MsCyxzKw2vHJGjqwwR6flh/wWF/4KHn9hL4SS/s/fCDX5bH9sb4/eDRLreuaRey2uufszfATxbaFDqkN3avHdaF8afjbpMktn4YZJYNW8B/C64vvFSNZaz4u8MTw/A3/AATRvf8AgqH+198LfF/xc8Yf8FM/20/Afwj8G+IPDfwp+H3hf4ZfH7wdq3xY8b+LryazXV9Tg0X45/tA/B7w94d+D/wu8OSRXvjn4ga74nllbUNQ0jQfDOl69fwa62kfhfEnjjhMmz3EZPl2VLOIYWKp1cXDGxw8HiIu1aNNujXjUpUtKaqLlVSpGbj+7UJT/qDg76L+acQ8HYTivOs+jw0sfUc8Hga2W1cbXq4Kaj9WqyhDE4eVOrX9+p7Nr93R5HO1T2kIf0ijwzfdV0rUOVwMafeFcdfm/cEE9Wx65z0qYeHdSO0/2ZqH1On3XOBxk+UAOMfeyRgYxjj+M39sP/gpj+2P8Hv2iviR8L/2Xv8AgrT+2x+0F8I/AWrt4Y0n4za98SfE/hKHx9rOlA23iXWfC+i6T4u12GTwUusJc2fhXWpb5rjxJpltH4gS2trTU7OBP2n+Hfw8/bi8GfATwr8Yv22/+Czf7fHwPS7+DutfHT4meJPhn8Ufhl8Svhj8HNCMV9N4H+EOvyap+0/4b+LHjP8AaH8ZJDolkngDwB8Kdd07RvEPjHRPD19r4k07xHe6Z4MfpEyqznGPCsrUm+eTzenyx0V9Xgl899U7ef1GJ+iD9Uw+ExOI47pxWN5Xh6P+rmJlXnzcujpLMOaOjWsrK8opXvp+13h74aeO/FtzcWPhXwX4o8Q3cNq091DpOg6jeyQW29Y/Nl8q2KxK7kRRF2V7id1ht1lldYm5H+yyrmMxOHjaRHjZHSSKSNmjkjeNgrpIjqY5InCmNwUkUFStfwx6f+1T/wAFNP29/iv4C/Zw8LftQ/tafHrVPFHxKsrj4WeDPGXxl8VyG11bTby4vNB8Y+JZR4kj8NeF5vCOkW03iXXvGF5qEOieB7XTdV8QjV7Kx0yTUI/66/2V/wBtjSPjuvg74A/EP4veAP2kv2vvAXw58Ra/8ef2gv2edK1+/wD2f/FlvofiLRvDHha11T4gazpPhjTfG/xuSyvZJfiF438EeG7P4a+NLmK1udE1PV/EK65dz/Q8E+NlLirPY5TicoeW08Vengq8K7xCeJp051ZU60uWmuWtGDVF0oc0KignCqqznQ+T8UPozV/D3hlZ7h+JaGd4nCuNbMsv+pvCVaWArVKdKliKNN1a8oVKEp3xFOvUSlBznTlF0fZ1/rBrCJSocxhum0lBs442hiGBxg5GO3XpTTY2+4HMOcnDl1z8o+UdSBjoABj/AGcV+Zv7b37fM/hP9ojxt8Ovg1/wVI/aQ/Y/8CfCyLSvAtr8H/hx/wAE8L/x9p8Oq6Zptte+I/Ffir4k6t49t5/iJ4y8T65qV5eX3iTT9M0rw4mmppGi+GbD+x9Lgvb/AOSF/wCCiHxaZS6f8F8f2yymQN83/BMWNo++ApXx3INxPAyAzHhQSQDljfHJ4XFYjDR4Sx9SNCvVo89TGOlUfs5yhzVKSwNSNOcuW8qcalVQvy+0m48zMr+jKswy7AY6px/lFCeMwmGxbo08oxuKp0/b0adXlhXjiaftoR5rQq+zpqpFc3IrqK/el7S3PJeFiDnqmEyWIycgKAMcDAABA2456Xw78OfF/iq01bUfC/hDXvEdloUD3GsX+i6RealZaVCkLzuby7t4XhikEEUs62+83LQRSzCJo45GH5u6v8Pv+Cv+qfDDwv4u+EX/AAVn/ah+IHxO+IMdlqPgb4AeL/2IvDfwr+I8vha+aJ7fx/8AEG11bXPEb/CbwXf2MjXvh/8A4TPT7Xxf4miSGbSPB82l3I1aP6G+D/8AwTg/b+8ceOfg/wDHP9ub9vP4t+L/ABf8CfFej+O/h14Z0K6vvEC+EPFej3ltqcF9b/Dv4Yadp/g2PWbt4RY6ldeIrSTVb7RpbjRb26fS55LU/L5j9JTDYSMqNLhyX1lSjdVMyVWlTSkudVeTD4dRlyc1k6sXB2k4yS5Jfd5B9DDH5xOnUXGlHEYaSkoQweQY5Y2tJwbpypUp1qz9i6nLz1Z0/ZcsZx54O8o++RaauFOxCXH8K5BHJBBAx8xyylTg9QSM1INMG9f3akLuxgZC42guRxliOD057DFfY/xT+GXgTSfjE3h631HWk1nxzb2Pi7wx8BvAXh1fFPxutxr0Md9qOl6h4UXUbXQPhx4b0q+uHWPxN8RPEGjaVYWFzaWyQ30tvKp8j+IHj74Y/B/4lH4c614J+Httb+B/Bnjn4k/tE+Kta8XeIvizJ+zl4C8FeG7zXptW+I2q6NrPwv8AhhDrt3c2g0y58M6VcXa2F/qOlaZFrepaxqun6dP9hmf0gOAstoYOUMXjczxWLWDj9SyvCuvVw+Ix0abo4LE1atTD4WnjYKovb4ZVqlWgoTnWjGlCVVfNcJfQm8c+LaubThkWXcP5TlGX57nVbOuJszpZXhMVw/w7HEyzDiHAYelTxmaYvIW8LKhg85pYF5bmGNq4bLcFicRmWKw+Dq+J/wBm7F5jIIAAGwdScqfYgg8D7oJIwajGmjk+UpbP8QAzkHByCSSDjBJPGO1dLH8bvhp4l8S6t4O8V+Bbb4TTQ/s8WP7R2n+MXs9a8EXfgnR2+Fll8YNa+Hn7QPwz1jxf8RtP8HeKtC8I3b2+rar4W8Z3Fro2umwstRs5Vu547C6LRWCneCuFbepV1ZWUkMrIcOrLtKuu4MMMrFSM/X8EeIuQ8eYLG4zJJYiMstx9XLcwwuNpxo4nCYyhbmhJU6lWlODXwVaVWcJNSV04s/LvGXwE488C844dyrjfDYFU+LuFsq414XzXK8TPFZdnnDOcxlPL8ywzr0cJjMM6ns5xq4LMcFgsfQnH99h6fNFy43+ykUDYq8cktnj5gTjodpI7EbSfQ8zf2coB+QKww2AQv3QX6fxAdRwc9iAMV1otM5Gc9+BgMuQMjjHPAPvjJ9PFP2g9T1rwz4H8H6loGrarod5qH7Qv7Lnhy6vtKvLjT5p9D8SftD/DjRPEeiyT27RmbTNa0e9u9K1nT3c29/pt5PZXkclvcsjfV5jmv9n4DE42UHVWGpSqulGp7Pn5eX3VNqSje+r5XfbS6kfl+T5JLN8zwOWwqxoSxuIp4dVpwlONN1GlzyhGcXK2nu80b/JHe/2cuQSiZBOcjHBBO5sdDjkHHzY6VN/Z4zg9QC2MDtgAjgnILKCeCGOCRnn4/wDhv8QfHV/8RvAthqHjTxLeabdeOv8AgrJbXlld61qFza3tv8Kfit4bsvhtYzwTStHPbfD+xmmg8GwOrr4atpJrfSEtoHYH4g/Zp/av+KnxFj/4I4+EL/x343ufEPjH4rfFXw/+0Lc3mt6nNqfjzTfAS/8ACMeFbL4mTT3Es/iKx1/TvEelaxbx641xHqVyLa/WOSVI5R8NLxPwlN04VMvqQnVnClQh9ah+9quplMORP2F/gzOVa1pXjhZxt76lH9Jh4M5jWhWqUc2oVaeGpVa+Jn9SmvY0KdHiOaqP/aHdTqcPqgm3FKpj6PSk/aftB9hDZBTqnQYYBSfvBTjb1GSO5yT6x/2cikSDIXJwxUfKMhQACp4yeDxg/ia+FP2LvF2reMvGFxcWvxI+NPxAa68I/Hyf43WPj3VviJ4j+HnhD4k6H+1IPDfwlsPBF74001PDWganN8NYfGNlJofw21q/0y88P6VHca9aW17YQMn1H+0pe67o/wANNKtvD3iHXPCV34y+Mv7Pnwx1LxD4XvjpXinTPC3xM+N/gbwb4yPhnW0SS50DXb3wvquq6Zp+v2GzUtEe+e+0uW11CK3uofcwPGEMZkWKz1YOdOGGVX/ZvrEKjqulSpVIqNZQjFOTqRpTvD93UjVi+fkafzOZ8AVst4rwPC7x9OrUxtTDQ+tywlWgqCrV6tFyq4aU6lR+7QnXo8s7YihVoVIuEaj5fSTYIRkcqS3JIUEjqScYHGCSfbPB4hewXOD1UgkBug6sfUAA9+ACdp9fgT41J8c/APhHTvAmufGT4i6Nq3gn4G/8FEvjn4e8VeDfH2fGPiaH4D6z4V1H9lkfErxiulre+OINA8AeMbGTxv4b123ltvGWqxxxeO/7bubKSZ+G+M37VPj/AOGf7QP7VWgXHijWodGg/wCCY/g/4x/DLRbeeaDw/oPxvtrG/e61Lwjpyt9m0rxLrUvj62vNmnqLi4i8P6YSXTTYGj8TEeJWHwftHjMrxWE9lPC0qv1itCFSnUxOCq4uVOcHBuLozpww93/FlUU0qai4T+jwng9jsxjQeXZ1gMeq9HHYig8LSqVKdWhgs0wuXQq0qqm4T9vTrVMW+Ry9kqPsW5uftofpj/Z8XIUrkAnLkAgcgkYOOzAEAY+Y5wMhq6fFxkKeNoI5GeeMkdcAgHIxjBPNfl9pnxv+Nei/svfDHxovxG8U3PjBf+CS3xA+Lt5rWuX39t3OpfFzTfiZ8JfDem/EfWbfVkurTWPGmg6fquoR6dq2pxXciG4kS5WSGWeGX6K+JHhX4ifCbw/H4c8c/GX4rab8AV/au8PabrHxgg+KF/qPxl8F/sz+IfhPDZ283jv4vQWC+MPCvhu0/aontdM8R+K52m1Lwr8PtQtl1PV7XwJ58lrdPxFhUpSqwyfFzp0sJQxVWcK8JU6DxNCFegq9T2SjSou9WNXEyio03GD5ZuraGdTwkq0K1OhV4iy+nVr5hisBh6c8PVjWxTy/Eyw+LlhKXtW8RXV6E8NgoNVKzqyi50/Y81T61FgokHygE/c3KChBAz34znnDAnk/SSLR5rpyLa3ebYjySeUjPsijI3zSBVYRRRZHmSuY41BUu+MGuY8GD4geBPgh4b1L46fade+J3gf4VW2p/FyTwhZW/inVNc8VeEvDUt74tm8P6focWnWfiPXdVOnTTQQaRFZWutaxcyC0EC3KBfwW/a68U/tm/t16V8KvHvh74PfEf9nj/gnRrfxN8E+B9F8d/FjVpPhZo/xu8R+MNYjsrDxL4y1Fdb0Pz/Dl3DDJovg6Gx1YfD/wvPqS3d149m8X6qL/AE3bifxDwPDeW4TF1cNXqZjmGGo4jC5VU56NVKsk5fWKzpyhT9g+anOK5qk60PZxhG8pU+bgrwlzPjLOsfgaGMw1DJ8pxmJwuPz6m6WIw8pYeco01gqCrU6uKli7RnRl7lFUZSqzqJxVOX9B1zozW7/vbdoWkTzISyMEmgZyongJGyWFmUqJYi0bMCEYkHFcadGRllUE9RtU4OeeSpP+eg6V8S/sa+HPFGnfFT49WOg+DofhJ8AvBng74LfDjRPhLo2s+GvE3gpfjfoGj3J+IHjrwpqXhLXfF3hOx1+Tw/Z6ZpPxZ/4Qrxn4p8O+J/GOr6fqWo3tv4k0PUbGz/Qr7Bu+YxDJ56kdfbbwfX3r2OFuJZ8SZJhM3ng54CWIdSLozqRrRfspum6lKpywlKlOUZcrlCMk4yTTioyn8/xtwfDg/iTHcP0sxp5pHBrDz+tQpfV5J4ihDEKjWo89aNPEU4VKbnGFWrG0oPnU+enT6yWzVSUO5iCQT0IYZGe2SxGW5JzweorPe1UAHb1JIXG0jlWwG7jJJwQ3OeOgPfS2SncRFwTknAz1zjoQAMjGBx1zno/TtA1DWr600rSdPvtT1HUZ/s9jYWFtJd313O67kht7WBHlmlKqzkRgkIrueEJr0qmLhTi5zmoRgnKU5yUYxjHWU5SlyqKik3J6JJNtpK64qeDqVJQhThKpOcoxhCMJSnOUmoxjGKTcpSbSikm5NpJNtX8/+xbgBtwDkYOOM9cntkjOeucnAr5m/bQ/bB+HP/BPX9nu+/aJ+IGn6V4t8ea7c6n4X/Zn+D+qyeZD8Vfilp1vFLdeIfEtmjrdf8Kc+FLXdjrvxBvUKJ4i1STQ/h5p1wuo+IblrP8ARa4+FvxI8KeHPG/i2f4ca2dZ8MeCfEWteB9P8V+APib4o8H6r49t7aOPwnZeMfD/AML/AAx4q+Ius+F4tTnTUtY0bwf4d1LWddt9P/sOEWcOozaha/zefHn/AIJ7f8FDv2oPiVofxd/aD+MvwU+Lnjfwt4Y0/wAF+GJPF/8AwSf/AG0rrwvoHhbTtV1PWrTRdI8EWn7Idr4MsrNNV1jUr6byvDslxfz3jyapcXjojj8V8SfEaeBwtTJcik6mLxuHj7XM6E1Uo4ahWc4VKdGdHm5sRKMeWdROLoQqXpXrJSh/Rngv4S4bN8xo8R8XShQyrK8YnHI8VTr0MVmGIoxpVacsQp0mqeCUpxbhOEnXlTcJr2XMp/yyeCPGfg79qr9sCz+IH7d37QHiTwh4R+KfxIvPGv7RHxuPh7WvG/jP7DeXD6t4kk0Dw34c03VLmbxBrccCeGvCdpFp48PeGGu9LaaCDw7on2Ovtv8A4KM+Lv8AgkhD8L/DPgf9gn4PaNqvxY1rx7reueJfjTo3iH9qi38O+DPhHpnl2/gr4fp4Z/aF15ZvF3xT8VTSXOreP/GVh4Y0vwbo2n2VjpfhPTvt2rXtxpX65ftlftIf8FL/APgmD8BPhnqdx+1H+w7Yp458R6v4X+G/7Pfhn/gmr4P+CvxJTQvDlrE/if4kjwP8Yf2Vvh5eaV4E0rULzTNGtPFmoWjReKvE93NYaE2sS6P4gl078O/2F/8Agmx+0z/wUy8QfGz4keF71tK8GfDU2/ir4s/GDxF4I+KXxFtL/wAcePPEKLpXhLSvB/wa8F+OvH/jHxp4pvbzUtf1Kw8OeGbi18PeG7DUfEHiO50fTDYPd/ynV5ozeHpx9tiKzc6k5w95RbSur8rVm7JapLRJWP8AQihWo4ujTzjFVfqGUZco0cNh8Njan1SrUjL3Y1aP1Om52vFaTnZpx5Ix57Qf8E5PCv8AwTbuj8XfGf7fPxY0nTNX0XRtN0H4F/BfxF4a/aJuPA3jHxNql9bSa/45+JnjL9nPTJ/HGk+H/COgQ3dl4a8K+HtTsdU8SeLdRtrrWp7Lw3ossWs8l+3K/wCx/wDFP9oXw74H/wCCanwC13Rvhzonhvw/4VTUNBuPjN418Q/Hb4pXFrBdeMPGPhTwb8R9W8U+PPCfg0atNLoXw+8H3ETeKJNCsV1zxWW1nWTpulf1taZ8Dv8Agrbf/DTW/AetftefsE+A/hH4a8AL4f1S0+NH/BKPxj8J/AC+D4rCHw7Y+D9Pv/it+xJ4fs/E+rXlgY9O0fwdop13xNq0ULm30y5WKWQfLn7JHwD8Xf8ABE3xRbfts/tD/t3+FPAfw/8A2s/BfxU8Lah4L8Cfsw/Fey+I3jm68PLdXcMPw0tde+E2l/Db4WfGHwv4gutI8V/DO38Wy+HvB1x4cu73+2dE1bwNJrunQVKirUcEovnkuacY0r4hpNe/bdQvpKbXLFXbnGPMzz6ObwlWxmdzrSm6cVTwWHnjMS8uVaSX7tRhgKcfaxpxnUjDnnKc+XZ8kjrv+CfH7BPx0+Bfw8+EX7LPxI+DvxC8GfEj4g/Dfxn8Yf2gfDXh74SfGe3misfH2vGDwf4F+L/xb0LwR/wgl/qp+C7PZeL/AIMy+OhLoJ8SeHPDet2F3qmseL9C0z9Mfht+xl+0F8JfEHiy18F6LfeEvhhpHwzvPh/8Fvhzpfg/x1pnhjQrm0JPg3VfEei2GlCIX+jQwwRa94hiTWtc1W7nvtQ0pdPZ5otS/LL4FfGzwt4Qt9G8c6d/wTZ/4LVfGOx8SQWni2w17x5+1/rfiLTvEkOtxrrEWtFtJ+HGkW95DrX2k6j9rtFjiu0u/Pt8RuhP7SfAD/gpf4u8Y2nivSdb/YQ/bD/Yb+CXgPwbqPiLxr8YPHHxF8P3CSXmwWfhDwD4aTxZ4Gl8R+O/iT8QvEs1to/h7w5YaxAtnZHWvFesXFjoegXry+dU4Iy3Kljs+zHIeKYclevmFbMKfEVLJ6NGjUg3V5Kn9l1I4WMpzajjI4767DDqOFpVo4ec6c/Aw+PzLjzPss4TyLjHhytjc9nhskwuTR4PlxJjcXmmJxtP2EKGEw+aSxePxXtXGjh8A8ulhfauWIqUvrDjVp+v/s8fs/fGLwB8KvHfjb4ueN9H8B/EW/vNYi+HNz491/xD4r8P+C/FOqWEOmy+K/Cen+NNHsNZ1Dw34BtJX8R6D4afQY9HuPHradG0bWSaotewfDD4veGfB+l6zaHxa37TXjb4ceGn8TeJ/jT42+G/hXQY/BOnWskem/2/d3nww8ETeKtY1G/vZls9Ht4dH1rxPq2oM76Ppxubaee2/DLW/i/+0D+038QdI8JaTrniLXdd8VatLpPh7RdR16Sc2tvI1xeF9U1+/eKy07R9C06O41bxJrssVho+laVYalrl4lnYQSLF4Tov7Uvwss9b8bWn7NfwH/4KW/tOeEPBfiS58E65+0j+zP478N+DPhV8S/F3heyt28S6z4Q04/DvWtZh8I29/e3j+FLjxFr15q194Ym07xDdwaWNb+wQfI8NcT8XcTyw+X8H4HPP9XsioVsuhTecXxjwmIrYjG1cJTrqhRwlRzrYqrOovqMo4fCVKcOWEPZJ/wBx8ffRb8Cvo7ZFSxnj14hcPVfE/jmos9wWCwvBc8bkeBxuEjgsBSzfNMswWZQzaGEw9LCRwuCj/rBh45rm2Hxc4VMXKlmU6f6S/Fn/AIKGftzfFHxl478H/sQfsw+DPhB8CPCU2iR/FL9vX9tnwh8SfhN8Nx4n1qxjuvFHiDwp8JPH+neAvFHj6FLwz2/g7TtU8L/Ff4j+Nvs8N1d+ENIW/t4o/KdF0f42+A/A3iL/AIKCeKv+Chvxn/bN1jQfF1n8F/hJ4D1jwvdfs8fCL4GfFHXYrvUL34oeIfgT4Z8aXngvWrXTNDsY5fgbp2qeHodJXXfE+meIvF+k3GueGI9Otvzs1f8Ab3/Z98c2lg3i74I/t8eJobbN1YWviz9qz4OeJTptzcRiOXybXWPhbqFvp98IyYZ2tmEg+eKRyp2sy7/4KNXPgT4YfED4YfsieBfj18APEHxo1X4a6X4w+M/xL+I/wo+Ko+Fvhrwr4tg1u/8AGvw9+G/hz4W6LFrvxITS31LRbG71PVLUWOh6nq0OmD+2Z9MvtN/Ul4deMOLqywWD4AxmQYDGYCrhZ5nL/bMyoYmrCPs8YpKOGlywatKEo+0j7SdZVIONo/mGX4n6MPDWUYbifNOO+LvF3i7I+LMiz/BcEVOC8dwfwFnnD2Cx1P8AtThyvGtLPqlKrjsPUnioYyHLg6jwlHK55ZiaWKr1K37a+Hvi3q/hD4TaH4Y+C/h34t+ENT+J1oPEnxQ+OcPgnWPiX+29+1X49vLYTeIbT4AfCezvbjWLDwtpl/NeaTpnxk+I2r+F/hl4J05X1y+8XeH9Se+utS+S9L8K+MPEmtWmhX3gHw/rsvgjXbfx94E/Yb+G/ivTvi38N/BXjvQLhr/R/wBo3/gp1+0nbS2ngL48fFDwLeA+JfDnwb0zWbb9nb4X+IIRqHiHUi1jcWOqfD3x9/4LLftneMtXu/A3hnwv+zT478BaZoHhTws/xl+J3gD4z2d/8SbXwz4a0ixuPFnj74QH4sa34dGpS6jBfzzaRrOleMLJWV7yBtl4YV09U+Enjv48R+HPAn/BQP8Ab8+IcXgHUofBWsXf7KP7KPwPj+FnwW0BvGWrvpOj+HfiDH4RsfCeg2/iDRruNV8Y6fa/DLxx4m8Cxho9Z1bTtXt7u1tO/D+C3HuFnQwSyzE4CvyTwjzevhalWtRoRdOniYZNheR4XAwnKanWx8HmWIrTqxliKleq6bPk+I/pLcH4qpjM84j4XzbM8Bj8dT4ip+G/tq+WZHnub4aPtMsx/iTxDz1OJePXlkOXCYHheNDgTI8moU1gOHcPkWAqYvB1n+OvGt3+03418afsXfs4ePz8afG/xn1O21H/AIKH/tm6JdT658O/BvwpPiaz8UeJ/gp8KfGMkUCeM9S+IXiOwtz8QfiJaJBpfxA1Wx0nwH8PYr3wHYeLPENz+5FvpkNpBb2dpF5NpZ21vaWkTMXeO0tIY7e1idzyzRQRRoZD8zFc4zXjWj6R+yj+w/4G8G/Dvwzb6F4A8H+IobjWvDejfDHS/wDhYOo+KNPj8M6v4htPiX4j16PV4JdU0bxXpHh7VV8K+OPFHiCeXxbJp95Z+HklstNu1svfvDmreHPG3hnRfGng/WIdf8MeI7RbnTr6O3msb21nWG3mvtC8RaJehNQ8NeKdIS8tDrHh/VYo7/The2Ux8+1vLS5n/prwx4OyjgDJYZbgq3tq2LcatfFqFd0MTVh7S8aOLqwjDF1VN4mpWq87rVZ+1coU4UFCH+ZX0k/FXxE8euL6/iBxjg8RRwql9Sy+jUo4fC0sBhYwoYbC4SjluGap5Pl2FwuFwuCy3L6VKOGw9ChThCti8VXr4ivlGyIOcdcYBU478EfqCDgjBJzxXyh8Vvgx8ZPGvxSspdG13wxc/BjxD4s/ZZ8aeIIvEPifxPB4h+GmqfsyfErXPiLqcHgLwJb6HqPhnxLP8aTP4d0fUdXl8ReDpfDdxo0moazb+I4YdLjT7d+xAH/VkheBgqCDgA4GenOMZ/AcZmWyJAUIG3Z2543YznIOMdME579a+7zTBYXOKFPD4uVaNOlXhiE6E/ZzcowqUpQb5JXhUpVqlOatdxldOL1X4HkmY47IMXVxeBhh5Va2Glh39ZpOrCKdXD4iFWMVODjVo18PRqwleUVKHLUhUpylB/n54C/Zy+K/h74061rfiHUfhzJ8KfC97+1/4m+FF7pF74ml+IfiPX/2yvEvh7xVrek/EbSLvSYfDnhjSfhbNpuqaXpmreHdW1268Yx6lpl9LZ6QLO9t5PnX4Cf8E7/Hfwk+NXwr+Kepat4NuLPwfdfsM6hq2m2PiHU7kaTf/Br4KeLPBX7SN54etZ9Bt4bmXxX45sfhzqOhMjWTeKrRL7ULz+zpNLSKX9jRYoD90qwHQcjJx82Op57dMYyO1SGx2kEJuBIzyylQOAB8rcnp9CSW7H5qtwPkFeWGnKWNUsJiZYqj++g7VJew5YXlRl+7pRw1GNOKtpTTlKcvePscP4lcV4enjaVNZYqePwNPL8TH6pVSnRpvFSnNcleNq9erjcXWrTd051pxhCnT5YL5t/Z7+HHif4W/Brwn8PvFlxYXGsaDqvxMvrhdF1CfUtIji8Z/F/4heOtOFjcT21ifNOi+KNMbUI1tYlg1A3Nr5lx5JmkZ+0B8O/Fnj/4dW+l+CItCufF/hj4j/Bz4paBpXijU7rQ/D/ie8+EnxS8I/EV/COpa/ZabrU/h1PFFj4du9FtfEB0XWYNIv7q0u73TriyS4Mf0r9hOWKgtk4wO3IGMgHHJDAfXHTJQWZ27ducZxgY4BJxkE42gfKeRz0Jr6T6lhv7JWTc1X6qsHHBKaklXVONNQU+dU1H2ite7p8rlry20PjVmWOWfy4jVPD/2hLMZZnKn7JvDOvOt7ecHS9pzuhKTcXB1VLkslNO01+X3xH/Zx/aZ8X+BtFn/ALQ+H3iv4m+Jvh5+238K/HuneLviP4pi0L4deG/2yfEula54eufCXjR/Bmr6j4/0v9n3RdD07wkvhf8A4R7wf/wllgkY8K3OiWNpBanG+P37B/iP4x/GDwn4yg1fw9F4Z8OfEj9iFrq4udVu9O1rXPhH8FdC+J2gfH3RNS0qHTrqAN4kg1nwHf6P4f8Atl1b+IPsN3DJNayaepm/Vs2QyPlYKCSQDx24AAG49Dg46bhjAFRtZkMS6FjjjAJ4I4xkZHJ6AEknjkAH5fE8EZFi6VShXnj506ssLKcXiKTfPhsPLDxknLD/ABT51VqN3aqRj7LkheL+0wfiZxTgK9LFYWnlVKtRhj4QawdZR9lmGOo4+pBqOL+CjOl7LD219jUmq8q1TkqL8qv+GNfilqnwS8IfDDUtU8FaLrWn/wDBOj4ifsr6vqi6te6xpmn/ABd8V/Ef4f8AjDSZY4rLTIbzVPBAs/Ct5DqfiCzjW5tHYJb6XezPGkvq+p+DP2tNV0i98cX9h4L1TxTrHx51zxvrn7MeofGfV7v4W6l8Ddf/AGfp/gbdfBXUPifeeAJdH1LTZPE08nxp1DQbn4df8IhfX91e6OoPiFzqcv3wbT7w2kscenHToPXOOgA/E4o+wsDnaB0KgH+8fTqCMY6g8dMZrdcG5RGNo4jHq1KnSVq9NfwKdKlQnKP1e0pUoRlZSU6cnUn7SnO0eXkl4h8QTm5VMLlM74qvinzYWs/exdaVfF0oy+tqcKeIm6V5wnGvT9hB4etQbrSq+CfBL4f638Mfg78Ifhx4g11fEviT4d/DTwF4M1nxNAb02ur6v4T8OabpF1fWTajt1KSxW4s/I0qTUFS/l022tJLyOKdniT0z4jfHD9tX4iX/AIN+GVzc/s0WXwg8Ca3H4y0T46+LPhfp3xh+PVqkGm3+jxfDCz+Efj3S/wDhV+n6ibfV72wu/jdpviKy1K+8BQ/2B/witn4q1LUdXuOtSx3s2VJHHYEAjkk9ccnggfXJGaVrDaDtD8YUkggbic44zzg4z068iuvNuF8izvDZXg8ww86tLKPZxwjVVxqOnClSpSo1asUpOnVhSpe15eSXNCMoSps4Mi404n4dx+d5llOKpUK+fuvUxylQjOkq9WtUrxxNCjJunTr4epWrew5vaUoRqThOE42PCPhT8MtJ+Fvw+8PeC9K8LfDTwrc2qX+reJ7b4P8Ag6bwF4C1rxvr99JqXirxdpvhq6v9V1CyvfEd68M+ovqGqX1y8kCRQvb6dBY2Fp6CLUEDPHA7Fun+1g5+uea7RrA54XoOgHXkkfljnHfA64AqGzXOBHJxx8vTjjvz9fevdwFLD5bgsLl+Ej7PDYOjSw9GDd5KnTjGKcpcuspJOU20uebcnu7/ADWZ1cXnGY43NcdP2uMzDFVcXiJqNourWnzy5Y+8owi3y04JtQhGMU9DtpdPOX6HOWAAGBz2I5ZegBAHAzxhhXjP7SmnfEGf9lv46af8P/g38Rvi23jDQ9E8BeKH+GXxv8Lfs0eIPDPgTxFrlrB49vn+PXjrRdY8JeAtBu/Dgn0/xlNIljrl74Xm1Cx03U9PtbnU5X+odP0yzutS02DUJbq30+41Gyg1C4s4fNvIbCe8givZ7WEBvOuobV5pbeHB3yKiYbdz/HZ/wUo+H37Tv7an7QvxH1X9oP8A4KD/ALD/AMEP2P8AwX478U6H8Ivh7pv7XXhzx54J8GfDzw3rt9pOhjQP2evhFJ4v+J/iX4l3+nWMeoeMbzxR8OYPH2qeMrnVLXVLjS7aC1sbH8t8S+Jv7MyeWWfUauMlnFOtRc4zrUqVGFKVG7dSladSo5Tg40U4pxhL2vPGSoz/AH/wS4GjxBxJDNK2c4LJqHD1bC4yTxFOFetiZzdXkpUqMmkk40qilVs5wlOLo/vVz0+o0X9nL/gmN478WaB+z38N5fjf42/an8S3N9f+JH+D37fXiv4zfsw/svfC7wtp1xrPxU+MHx4+PsHwN+H2heLbX4X+Gra71658HfA6Dxjpmt31rY+Ek+I1hrHiDSfNxPiN8Gf+Cafwx/bQ+CX7LWufCz9vu90/xXYada/tBX2j/tbaxrnxF/Zw8VfEDxlLb/CzQ/FOiaf8LotEvPFug/DG48KeNf2h/hpbTya78NPEfi+98B6LreveIfAuq2GrfXn/AASEl/Y4+COk/G/VPh7f+LfhV+y54P8AA+kHxr/wUw/aE8CxaFbfGb4/n4h+ENL+H3h3R/By3Gs2vw5+CHwrkvtR+IHw/wDANxe+KbjxD8ZNO8D/ABE/aC1Wwk8K+DPBFt9ueAP2zv8AgjN+yx8WPhv4K/Zu8PXf7c3x++JHxY8KWV5rPgHw/wCMfivqNpP4p8Y2DeM/ir4r8U3+gabD4l1nR7e91jxg2heD7Xxz4i8Sa1Bu1bXNDtXu9TT+ZsZSzWE8LRo5ZXdXGKNSE6irxpKk5OKUGkpVW5Rkk0rc1oJzm+Q/tTAY/JWs1r1M8qVMJlMZ4d0Y4mhDGVcSqUJ+0qQ5n9UhCFSE403GrOnBqpivZUm5P4uH/BCD4XePJ/hjqGt/sX/tFf2vqHxH+NXhf4o6d4i/buj8VwaL8KPhl4qtPA3gj4i+C/ihc/A7T9Atf+Fl+LLL4har4e8O+JNGuV/4Q/QdN1S5fSb7X3jtvszwb/wRi/4J1fs4eOfibca/8KPjtofwW8G+GfhZ488BfFyH9qyPxvofxN1Px1rXirwh4x+GXiHwhofhPwhH4G+JPgLX/CG251O1u/F3hvxH4YnhvtNvftMdxZWW7+1L/wAFOvhXqmteLvEfxD/b7/Zu8O/Dix17XltfDHwP8Xaz8b/iVeafZaldWkGg+EvhP4X0bTE07XRHCtk7fErXfAek6fqXny67qMCpcK3lcvxe1v8AaW/Zb8DeMr9PA/7NWhfET4l+KJPAHw2/aQ+Nfw0+Evj++/Zz+CmiadpPwi8ZS3nxK8QeDYPH3/CceNPin8afij8Q/Enh2I6XbeM/Fun6Roumt4V0bwxqeo/GYvGcQVcFxHj8PwzmUaOEw3s8vhVw1WWMqYypiKGHo1FhqMHXeGgpOpiKmIfJLmjCCk+Y/pPhfw/8NqfE/hBwxxL47cJSrcT5xDFcYYjLM7pUeGsg4ZwmV43OMwo43ijMMXRyhcQYueHp5blOCy5zqUKsqk8fKlUngvrH6C+Av2i/2VvAPhLxN4K/Y/8A2ZYvF/x88N+Htd8T/DPw14u+IkNo/wAUpfCOkajrmv8AhPw98SPEHhXxda+C/iLd+FtN1O68IHUdBt9B17UbI6Ffa/okt9bXFeG/DP8AaU/bR/az+KPhj4UfFn/gnf4m+CPwm8R6yPHHxI8e/tJePvC/7R9hb2fw90PW9V0Xwd8FvAbeHvh9pXh340/ETUruHwZ4Q8Ua1rMunW8N7c6PLAV1BAfyU8SfGHw7Fca1+y9+xb4x8O/tS/tt/Hvwn4m+ENj4n+D015rnwI/ZT+HXxC0q58J/Fb4oa98U57Cx0bxt8QB4J1TXNB0vUfCsd38P/hvp+q6r4juvF2u+Lh4a8Pv/AE1eBvAXhzRvBml+FfG9zaeJ/CPw7+GmnjxR/bl9oukHxzpfw28MWKXtsb/xVqWk6Fp+oeK5NIWQXuu6vp9npP2qbVb2+i+wPIf0Lwn4Wx+O4fxvE3FlGpk+aZLKpj8qxWFoQ5qUaNGc6bxOC9nVp1sRSnFTdCEFKVKcKdaKqSkj8Y+mDxj4bcLeJuC8N/o+5nLi/gXifAZbkvFNHNszrVMLmub1MxisW8mz7EVcJiqORVqUsHShjsViHhVmNDH4rLsTLLKVCo/Av+Gov2P2aaKb41eLNDubeSa1ubHxD8CfHlnfWU9q/wBnnsrm20y61VYbq0lje3mtWlRoJomgJi8vC/nZ+1x+1BD8cNY0Pwd4Ai1bRvgj4Cmurjwrp2qRLba34x8TXlutnrXxM8W2FtJcga9qsajSPDehrLdr4Y8MpDpds7alqOsSzeQfGCDwxfeOfHPxI+MP7Sn7Fvwjl8a+LvFHjXV7PWf2qfhP4kl0258T65e67c2Nj4e+Fut/ETxZqP2N79reKOz0Ga6u/KDiLzWIrwrwj+0joes+Lo/h7/wTR8I+Lf2zv2ozJ9l0b9oPVvh/qfgT9lT9mu8kIhb4l6bYeP7WHW/Hni/wyXOo+F/FHxT0bwN4G8NalBba7p3grx9rdppunH8qz3iTxt8XKNDhTNaU8Lk0sdGdavTyqWVPG06cnGlKvhnU+sYrkT9pTwtKChGtK9RxSco/37wLwV+zv+hLjMR4zcI8Ry448TMPw3Vo5Tw9DjTLuP8ADZFmmNwsfr1PLM6yzLKGTZRNydTAYjPs3x061LLliJZfhsRia/1Wr6D458K+P/FHjaX/AIJxfATUZ9E+P3xZ8KQaj+3x8Z7VPtEX7JX7NmqrZ3d1+zrp93A+yH4u/E+0l02X4wWcFxDewQ3/AIa+CgkjjufihNYfRv7Rc1n8L/C/wm/4JgfsUeHJ7TxR4q0rR/CGp6foDfadX8M+C/EMo8zT9Q1CEI8/jz4pXF3da54u1q4Mc0WiXt3e3DW0GvWxsvR/CngbwB/wST/ZH1zVNT1gfFn9ov4q69da74w8aazJe3fiP4/ftB+IVub+5vLy81CSbXpvAvg2XULzUZpL+Vr6Wyl1DU9SI8U+NJd/6Vf8ETv2CNe8C6Lq37cH7RFvda38e/jg974h8M3GuxIdS0Pw94iLS3viiWKRc2mpeKYJja6NFGI10zwmEW0C2utCC1/qvIMryzwR4Fw31CjRfE2ZwnhMmpVYUqs1iIKlLG5riY/BVw2U+0pV8RpKljs2rYHLrrBxrPC/5c59xpn/ANKrxa4n8avFKvWxvAfDOZUsRSy2FTEYXC5/m372HDfCeT05S9rhMuVLDzpwlze2y7h3BZvm054nPJ1qOZfav7Jf/BKf9ln4B/AfwP8ADjxx8JPh18UvG2n6eL7xh4w8VeGdO1u4u/EWoqk2o2ekTX8EkttoGmSr9h0uBRD50cD6jPEl5fXIr6Rb9hL9jLjP7MXwUyoyP+KA0AAH1/49ePcnnHOcV9ZgAdP89Px7f54r8qv+Chn7QfjjUNU8KfsPfs3XP2v9oT4/xfYtf1SymkH/AAqr4WXKyL4g8S6rc22ZNLudS0yK/wDJnJS5sNCttT1CAJqFzoBufwfNXgsPTxGYY2hHG4qtWc51K9OGJx2Y4/FVG/frVYzrYjF4vET5qlWbnKUpzq1NOeR+v8G5r4oeI3FeGyLKuM87yajXVfGY/E0M6zHKeGeEOGssovEZjmVTCYLE0cDlHD3DuV0ZSpYPC06NChh6GHy7A0nUnhqMv5hf+CuH7Q/7PXiD43WnwM/Za+Gfw++Hnwy+HGrGx8cfELwB4JsobjxzrsVzB/ayxz6PBHNqnhbSmtfsNhYw3Hk6kRf6i0ktvqNj9m828ReP/hL4q1zx94v8A/F74YR+B/F3ie78XXcXxU0DS/h/8R9HufGnim/1Lx3pc/gibwlrus62vhnTLgHwzq3hOTxXN42njjkuoNI1C4udNtf7QfhF/wAE/P2VPhZ8N/CPw/n+C/w28cXXhvRrax1Hxh4x8EeHNb8SeJdTIM2paxqd/qFjd3G6+vZJ5reyEzWum2rQ6faBbe2jFd1qf7Jn7IGkadqGqar+z18B9O0vTLO61HUtQvfhz4MtrKxsbG3e5u728uZdLSKC1tbeGSaeeV1jiiieR2CoSP1Hg3xDlwZkeEwGB4QwVPEcksRmtZcQU6VDHZhiZ0qmJxtWhDhac6VWNKjhsFhYxxdWjhsFg8PHlr1niMRieDxQxvAviLm+Gw9fijxBzLLcgdTJuF8ViMjweNzSpk8J8tFV6+YcXVas62YYyeMzvEpYehVnmeb4uEqdLCUMty/Lv4q/GHxY/Z++JWpfDtPg18VdGin8E/BTwV8DvEUHx9+H/h/4SLqVp8OvA/jfR9A8Y+DbzXLPV9CurfxdrviDS7e48BXeu6VeeB7WG4Wxt9ds9Zu5dL+2PDX7O3/BULwL8PPC1l+zJ8GfCviXw349vNV+MXi7xPr2g+GodHvPFPj7TPDkNpo/gqGfU/CWqX3hjQ9G0C0mPizV9D0678XXesNJaWMek6Vp+oap9XfBD4H/AA2/4KM/trat8TfBfwo8H+AP2If2a9Yg0vRbDwz4S0rwtafG7xxp8/2y1m1pdOsLJ9Wtbi42apfW9wJI9M8MxaVpEgivNYknf+miFEjiSONFjRVVVRFCoiqAqoirgKqKAqqoCqoAUAAV3VPGbiHMIYZ5Tl2AyihhZybeMlRz+pi5xVeEHKVXLsrpU6dNYirL2bwlSpGr7OFStTq4arTn89xt4Q+HHh3icFkucUcbx/nWZZVhMwz3IOIVUyPBcLyxiw+KwmX4qPD+bVMRjs7dKnSr4j/bqGX4OhUioYfMJYyji8L/AB3j4U/8F2QMH4CfC1yehPh/wyCuQAVwPHWMDB5Oc5yDQfhZ/wAF1wB/xYL4ZvypGfD/AIYG35lJ6eO+QADycZzx0Ff2J4x6/mT/ADNLS/4i1xz/ANBGR9P+ady7yv8AZXn/AME+EfC/hA/+bN8Ld/8Akc8Y6PyvxA9unZH8dP8AwrH/AILrgH/jHv4YnnHOgeG8EF+yjx7leOSf0Padfhv/AMF0skyfs8fDInDAEeHtCyf7oO3x6V+r+mRjPX+w+im/F3jn/n/kT234dy+3RN6W8/6esf6qeD7/AObOcLrzjnHF11ts3nrtqu2v5fx2v8Ov+C6EYI/4Zz+Gkm7J+TQNHJ6d8ePQM+xIAxwcmvDvjT8TP+Csv7OWjaVrvxt+GPwc8A6b4g1J9I8OtqvhyCe81/V1i846Zo2naV4x1C+vbgI8Zmk+yJbQCSH7RcRGaIN/a94x8XeHfAXhfX/Gni7V7PQPDHhfSNQ13XtZ1CQRWWm6Vpls91eXc79SI4ozsjRXlmkKQxI8siI34F/sqeFvEf8AwU5/bA1f9t/4q6TdW/7NvwO1ebwx+zZ4F1eJ2sdc1jTrhZ4tfubOTNtctYziLxFr1w3nR3OuT6RpCGbT9Lnt4eWt4yccUp0oRlw9XqyqU26c8gwsY8jd3Ccqc4uHtFCaTT51ShXr0adaWHlRl+kcC+Dvgjn+A4i4l4n8LMoyfg3hjL6ssfmGAzniT+0Mfm+Jh7PKclyVY3NMVh6uYYjFVaFSq62HrYXDUPZrGywsMXh8QvzvsvDf/Bca8s7O8h/Zk8Bz297bQXcMkvg6O3YwTxLLExt5fHENzBI8TIfIuYY54mLJcpFKGiEr+Ev+C5CNn/hl3wG/ddnhNeOjEYHjxQD1AG7Cnue39kQUAYxn68/zpksQlhkh3SRrJG8e6F2ilQOpXdFIhDRyKDlJFIZGwykEA11f8Rd44Ufi4eb62yDDq+2qXtn9zvst9z85fCPgw5v/AI05kKhd8q/t/iZyjG6spNZhBTaWjajBPdRjsv8AP+8c/wDBQD9s/wCEfxYX4SfF+L4A+CPE2l65Bo3jSG88N6hcR+C3W9FrqUevXVn4ovbe0ubFBcNMsA1JreSIiaFpUaCv09T9uz9i9dpP7SPw2ZtqCQpNr7KXCfP5TP4fSRow24gukbNGVdkRsov7Lat/wR8/4J66/qd7rWu/ASDWdY1O5nvdS1TVfGvj6/1HULy6kea6u769ufE0lzdXNzNI8s800rySyOzMxyazP+HMn/BN7J/4x00nPP8AzNfjbjPBxnxESP8A65r6TA+NT+qYJZzw7Wr5lSwdOljqmV5lgMvwFfGe1q1KuJo4eWS1q9NThOjQjCpiKkI08NGcYQq1sRKrzcbeCf0feIMbJ8L5rxXwbltPGYivhqOF4JweYY2eGrYXL6EMLjMTjPEWpRnToV8JisbQ9lQhWhPM8Rh6+KxVDD4P2X5Bj9ur9i8kf8ZIfDYJgYBn14egBIOh554we45HXAZJ+3X+xbkD/hpP4aZHUC61sFjnJyDoucAck4GVYDnFfr6f+CMX/BN/LE/s7aYN5yR/wlvjbGeuQD4ixnPOetfEX7ff7D//AASv/Yl/Z18YfGLxB+z1ol34kaGbQvhz4an8beNY28ReNL+3m/s5HhXxCZpNK0jEms60UAQ2VoLMSLdX9osnWvGjLZzjTp8J51Wq1Z06VChRz3B1K1evVlClRoUaccic6latVnClRp0051Ks4wipSav81lH0WfC3PMyweU4HxJ44lisbWVOnKrwBkNDD0YRi6lfFYzEVOPI0cJgsHQp1cVjsZWqRw+DwlGtiq86dKnUnH588K/tgfspeOvEGjeD/AAf8efAHiLxR4jvYtL0HQtMudWe+1S/n3GG2txNpMEIlZUd9080UMaAl5FWvpIWRAA24+i/4859fevxd/wCCXP7Kw8R61qf7WXjvQLO0t5ry50/4T6ALCK2sYJov9Hu/EltZiNI/L0uILZabPtBk1QzXgYz6e2f3Ha0O48Ec9CGyPr7/AM+tfqFHNI4pzlRoToUqapUpe0xdLFueMhTj/aMKNehRo0a+EwmMdXAUMXTTp46WFq4vD3wlbDVKn85eLPh7w5wBxM+Gsh4gxfElbCU51MzxOIy+GXRw31jETnlGHeH9pUrUcdiMm+p5nmeAr2rZNiMwjkuLazPL8xo0e0lsOudwwSflBVwCeNrDgYAzuGPYjrXx54j/AOCe/wCxF4u+IGq/FHxR+yn8ENe+IOvalLret+JdT8GW1zPrGs3L+dPq2qaa0n9gahqV3Pma8vbrSZZ7yctc3jzTu8rfeUtkdpOxu+DwC3XAO7jO7A5wMA9c09bbTdOgguNQNvJeag08Ph/Sbq4a1g1PUIYyQt5dIHNpZGUrbxzPsSW6kSAzIr7q/KPFrxS4N8KuD8bxlxvNSy3Azp0cJgqWGp4zMczzOupywmXZVhq8qVOrjcQqNWd6lajQw2Go4nGYyvhsHhq9en1+HXBHFnG/EeG4b4Q+sRzLHQnKvVpYnEYXD4bA0bSxOLzCtRd4YLDxalVk41LScVCE6k6cJ+Uy/D3wzqXhd/A0ng3w9qHgeXSJPD7+Ck8L6Xc+DzoMqiKXRH8LLYPoA0ZoztfTRp4sixDCDcMrxfw9/Z8+DfwakuT8Lfg38NfhXc3qul5P4F+H3hvwbqFyjHDwXF/pGk2GpTwvuyYJLhoDn7hAGPGr743ftH/Gj9rIfst/Bb4u/BX4B654U0LS9c1LVfjFBBdp448QeIYXn0P4ffDv4fWF5Yal4h1CzsYL3UdcZLiS5tIbKee5McQtYtT6L9lv4u/tAeIvFHx4+GPxm8T+EviT4g+DXx18WfCO61TT9B/4R/w7qNl4Rs7MajrNv58tzqWmW32g3l9BdXFy1xb2/lwyRO6Kp/Ac3+kdx7w1wLl/i9xN4T8NYLw+xeEyHNKGFwviBLGcf4fh/ibE+wyTNo5TLg3DcPSjjaDpYyGXx4noTp0MRSVfEUaiqOP9DYX6MuDzDiHMuAso8SJ4vivArMljlVyStheFK2Z5Nh54nNMA8ynmrxkp4RwlQeOnlE6FSspype5HnloH9j39lp/HNz8TpP2bvgZN8RLzUpNXu/GVx8LfCE2vXWszyCaTWJrmbSHhfVprjdcTakYPt8lyTPJcPKxkrb+On7LP7P8A+05omj+Hf2hPhD4K+L2j+Hr6bVPD0HjCwmuLnw/qF1BHaXVxo2qafdafrGlteWcFvb3sNpfxWt5FbWq3UE32W3Mf1DLZaZdwrqugXLXmjXE89vG7I4mtJ7cr5trOrqrASLia1aQK09syOQTlmjFiCu0AjcSQTnG4kEgnHXpj+I+wya/o7gfjbhHxH4Uyzi3hWrh8wyDP6DxFOUsLGhWVSnVlRxWEzHCThzUMwwOKpVcNjMPWTnSxNKa5p2jUl/OXE3D3FPBnEWKyLiBZhl+e5FWeFcZ4nEqrh0ox9lPC1udSjQq0JRnSlScIypySlFPmjH56+Dv7OfwM/Z80S58O/Az4QfD74UaNqHlnUrbwP4bsdJudYMTAxHW9WWOTWdcMJw0A1jUr4Qud0KqeB1nxG+F/gj4u+BfF3wt+JHhuy8XfD/x5oV94Y8Y+FtSNymna7oeo7EurC6msZ7W8iSQpG0ctndW9zBKkckMqOu4evCxGeMBgevbqc4GCCQeTgdOp45RbNmOCC248OexB9DjnHJP+Ax9jCVGFL2MKdOFHlcPYxp040uWSs4+zSUbPqrWezVtD5uf1qriPrVTEV54rnjUWJnVqzr+0g04zdaTdRzi0nGXNeLSatZW/Nrwp/wAEof8AgnN4LuYr3RP2Ovg5JdQujRTeINO17xjtZR8rSW3ivXdZspTn5iZLZlJ+8tfZUWm/Df4MeBNTntNN8H/C74Z+DNHvvEOsw6Domj+FPCfh/R9ItJLu/wBTl0rQrKw09Tb20b4C2zXVxIY7ePzriaNH2/ip8S/hz8FPBOrfEX4q+LdJ8E+DtIXbc6tq0rh7q9ZC1vpGj6fbpLqGu63ebQljo2k2t3f3LsWEIgWSWP8AHx739qn/AILDeLH+EPwE8Cah8LP2SdL8RaTd+NfHHi0S2l/4pt9PvBdWN34y1G0ea2s7IPH/AGpo3w60B9Qv7y6gs77VLy/Fmk+mc8p5JkWCqZvjvqeTZTRqezq4qlhqUK+KrKPtHl+W4enCNbMszq04ydLB4dVJxV6+IdHDQq1YfonBfAnGninm0cvwdXG4vB4SMMTm+c5vj6sMmyHLlVpUa2Y5pmOMqSw2Bw1OdSFNTqPmrYipQwuGpV8ZiMNh6voP7DPwH8Rf8FXv2wNT/af+K2iX1l+yp8D9RXS/hx4M1WN0tNWt7edb3SdCuImJjl1jxTPHH4p+IU0eWt9Pey0ESxwtocyf2EQQQ20EVtBFFBbwRpDDBDGsUMMMShIoookCpHFEiqkcaKqIqhVAAArxn9nj4D+Af2afhF4M+DXw201LDwz4P0uK0+0GGOK91vVZFV9V8Q6s8QxPqmsXe+6uXJZYVMVnb7LS1t4k6b4q/Ff4ffBTwNr/AMSfij4q0rwb4K8N2j3Wqa1qs6xxL8rGGztYRuuL/Urx1MNjptlHNe3kxEVvC7Gv5t4l4ixXEubYvPMwUcLCUI0MFg3UUqGUZThuf6pl9OraKn7GM6lfGYlqP1zMMRjca4wWIjTh/X1Whg3SyHgXgjBYqvkGSP8As7IcLQwlT+0OIM2xroU8x4gxOCpRnVlmvEGJo4eNHCpVq+ByvDZRkrr4uWWrE1/I/wBr39p7wl+yb8EvEnxW8RLHqOrwqNG8B+Ew7C88Z+N9RikXRNCtki3T/Z/MRr/V7mJS1lpFpeXCB5xBDL85/wDBPb9l7xb8PtI8U/tK/H8y6z+1J+0TKPE3je+1JFF14H8M3zQ3mieANOgy39lfZ7ZLKXWrCB1jtHtdL8PhPI8PQSS/Gf7JfjfTP+Cqv7V/iz9p3xDDev8As8fstatZeHfgN8PdWiH2HV/GOoGe7bxx4gtUeW0udSt30qPV5rcNNGlx/wAIvZLcXFlo8z6n+/C8L3PJJzn1P8q+Np4TFYnNK2JzHD1sNDLK1fCYLBYiE6NeniabdHGYvF4eajOjiY1I1MLSo1Ywr4WMK3taVKtVlCP6xxVjcH4Z8D0vDfI8Vh8VxVxngcoz/wATs+wNWFejSyrFUcNnHDHAGU4+jKVHFZbRoVcHxFxJjMHOrg82zSvlmEoYjEYLJ4VMSpOO35V/Ml/wXO/4KJS+HFg/Yn+DN1qGreJvE5tJfjVc+Fp86vBosipd23w7sJ4Vl8i81KDZeeIiEkeOB7LSnGH1e2H7Nf8ABQj9pfVv2SP2Tvij8bPDumw6p4m0Oxs9J8NRXOw2lnrniG7j0qy1a7ikBW6h0czvqX2M/LeS20dtKVhlkZf5mf8AgmJ+zJrXjrU9U/bk+N11N4n8afEDUtX1T4evq0rX1wn2q+uo9Y8cXLzlma8mvhd2ukMwDm5S91PAkhs5ZP0HhbIKed4mtXxtD6zluCq0cO8G6lWlDMsxxVKrVw+FxFTDzhXo5ZhMPRrZhm1aFSjOtTp4PKKFSNfN418N8Nw9meV+HuRYjxQzqtGFbLa2Ip8M0IxwtXEvMsB9TlVxmEoY6jicJXzeVbHYPLuHaVfC4ujg8VXzPi7GUK2A4MxOAzLkvgT/AMFl/wBqH9m74WeFPg58Lf2MfB2k+EvCFibWyFzoPjd9V1a8mYTajruvXketwDUda1W7eS6vrsQRA5SGCKK2hggi9iX/AIOCv25VyJP2RPBnQ7HGhePgrMAC2B/wkO4kZwDgBm496/VXx7418E/DDwvqXjj4jeLdB8EeENHTfqHiLxPqMGm6bCyr8tvFJMxlvNQmGfsumafDd6nduAlnZTOwWvyS8Rft2ftC/tZeMZfgx/wTj+EniHWbu5ke0vvjd4q0BS9paNJ5Eur+GvDepg6P4c05CfMh8T+O5vMjwHGhaZP5clfor4A4ewmBqY3FYPIMtyvB8lOvmOOzLjXDYSlLltToe1lxnKeIxdVpxo4TDRxGOxNRqNHD1ZySPDyDx2xHidxDio5R4MZrn+b4+ricyzLGyzjw+dKlzz9tjczzLHVfB2lh8Hg6EpurjMbi6tHB4SnJ1cRWpUoucYdY/wCDjv8Aa08MyQQeJ/2Z/hjoNzdqslpbarD4zsrmeNuFlitpfEgneFzxHN5flysCsbM3FfoB+xp/wUb/AOCmv7bF5FP4B/Zb+D3hDwOtwsWofE7xwPHWneEtPTcgk8p49fN5rF0isWGm6NFeagSV8+C0t2N0mh+yH/wQs8D+F/EEPxq/bW8Y6h+0R8ZtUmi1jVNH1LVdR1Pw3bamyrJnXdcvXXVvFE1szNCLK3/szQ4FjFoq6rYBM/v7omhaL4c0nT9C8PaTpug6JpVtHZ6Xo2jWNtpelabaRf6q1sNPsooLS0t4xwkUESIv8IFfmXE9XhLE0KWB4XyjE4ScX/tfEVXMuIaVTF2mnbKsjzDOMwWX0HC0frOb1sVi60JVP+EzLq3JOn+j4ni3hvh+riZSyHhTifMqtL2dDJ/7HyLFcOZFVdKFOq8dxHlmQ8O4zizG0azrSpU8lwWR5HRqww9WOccTYOVWlUqeF7fxLaaFpcHjHU9H1jxMtqv9saj4f0i60HRbi9Zi0n9maTfatrl5Z2cYKxQrdate3EioJJJQ7mNeL+MPxu+FPwC8E6l8Qvi/450HwH4U02NzJqWt3awvdzKu5bLSrCPfqGr6jKDmKw0y2urtlzJ5QjR3XI/aQ8f698KvgH8Y/iX4XhsbjxH4D+G3jDxXocOpwS3WnPqmiaLdX1kL63huLWSe1E8KNNElzA0iBl81QSa/zp/jH+2F48/ag+J9349/at8b+OviJBDqTfYfB2jXdjpWg2mmx3TSy6ZpcLOun6LZsm+OC20/Rmg8xvtd1FcMrxyVw1wnnPFMszjlGGxWIpZJhcHisxeEws8zzBwxtTE0MJQy/LadbDzx2MxE8JiGvrGLy/AUI0pVMZmWGUqUany3CnDeSZxWweacV8QZZw/lWaZ1jcrwsK2JoZLh8TjMFh8FmGY/Ws1q4PE5fw7lOEw2Y4NSxdHL85zB1cTRw+VcNZnGniZYT+g349ft9at/wVZ+Ien/ALKfwNF78Jv2XLDVn8VfGj40eLLy30cav4H8IF9Q1W91RpJodP0vQrGGIXtto39o3UmpauumLeXUcipBafvx4F+In7OP7Pfw98F/C/wPM2i+CvCPh7TdO8N2VrYMjPpgtluo9SmS7Nhd3d1rDTvqV5qJtM6je3ct0Sxm5/jbs/8AgrF8KvBPwB8U/s+fBP8AZf0n4QaF4z0WHQPFPjLTtck1z4h6zpjPH/atnca9dx2SR2mrWST6bPZ21tbwJZ3U6LG/nTmTDvf+Csej3cjTr8L9YhZpC7tHrsJkPO5QXkgYYjVRGpCqxCpubHXzs04C8VKWJlPIvC3iirGTdJSzFe2qQpwhRXtKtSnTwcatXEyjzVFhsPgcNQVOnQhRqypTxmJ/YM5ocF8Q5dlvC1Pj7gjhngvIJTxeCyzLuKOHoYjOs4xc60cRnOZe1zvNnRrUMO6eFwkMdmGdYmNKtialPHYXD4qGU5f/AHIaJ+0D8PdV8I3nj29u73QPBtjfeIbW98S6tbodF0u28OXlxaXWqeINS02bULPwvYzx2/2+3PiSbS5l0+5srm5jgF5AreT+Bv8AgoJ+xr8TPFWieB/h98fPB/jDxf4j1G30rRPDugQa/qGqX9/ch2ihS3h0YmJRHFLNPcXBhtrW3hnubqaG3hllT+G/4i/tifGf9qKwb4S/BnRvFHhfRvFJit/Hdrpmr3q23iKC2uI59OttebT5YLK8ttPkjWS2S8t5Jrfb5kJwI5bX+nD/AIJTfsReBf2LfhT4O+Md3baX47+I/wAYfD1heap4qso0ll8KadqUTXsvhLQvPgNw2r3FpbtNeXlrMi61fabd+ELeEzDR7nWODMMBmORYDDU+J62DyHivFYqEI8IzjHHZhhcugovE5lnM6OPpLI44jSlk2DrU8Xjcw55YydHD4Ki6tX47MOAuCeH8kx2dY/Ms54hwOIw2Khw7nGQ43A5blOYZxKLhgcsy+eMyfNVxTSwE1UxfFecZXisvyXJoU8Pk2Fx+ZZ/mH1LAfvMDn9P1rkfHfj7wb8MPCHiDx98QPEWmeE/BvhXT5NU8Q+ItYn+zabpVjE6Rma4lwzEvNLFBBDEkk9xcSxW9vFJNIiN0NnfWeo2VnqOnXUN7Y6jbQXtjeW0iz215aXUKz21zbzR5SWGaF0lhkQlHjZWBIK5/kQ/4K8ftpeLv20fjx4c/4J//ALMN5LrPhXSfFcVn471nR7nNh4u8X2szxXSy3cWYW8KeDFW6AuXc2lxex3+su8tnbaTdJvlmW183x1LA4apCipxqV8VjK0J1MPl2X4ZRnjcyxUaXvzoYWnJKFKm1VxmLq4TLsM3jMbhoT/O+EOGZcRY2rPEurRybLY062aYmlUw9CpUdVzWEyzB4jGNYSjmGaVKdSnRr4rmwmV4KjmPEGaKnkeSZricP/QMf+CoX/BP4jI/aq+FmMfxX+peuMhTpgJYHjGM9q/lw/ae+Lfi3/gsN+3bbeCvDF1qVh+zP8Hrq6hsblNy2tt4U0+/jXV/EdzBnyG8ReMryO3S1jcs8Zl0fS3d00syv9A6b/wAEU/2Z49O01Nb8S/EC71eLT7NNXvNPvNMgsLnUUt4xfz2FvPYTXENnJdLI9rHPI832fyxJhtwH3L+zR+yP8LP2U/C2ueGPhnBqUv8AwkOrDVta17XZba41q98mNYrDT5Li2t4ETTtPD3EttAqEtcXc8shJWER/qWQcH4bLMwpY+NbOsRiY05RwdfHZXk+U0csdZJVswpLAcW8RYuvmsMN7XC5W/YYWlluKxn9s+2eNyvA05+XnfjB4VcH5FxBW4DxlLOOJcThJZdhKdfG5/nlOtzzS9n7TN/C7gLLsNkrqqlj85vXzPFcQYDAR4UeCo5JxFn2Jp+m6B4S0XwnoWi+FvDWmW+jeH/DumWOjaNpltGqQ2OmWUPk20KYX52ChpJ5XCtc3DzTy5llZjbezIcgE4HA4PYfQfyrtGsW2tgkkKp6biO+RxgZzjA+6SQR2rNazZWI+c8nn5hnPJ7e9fp8K0KFOnSoqNKlShCnTpwjywhTpxjGEIJWShCKUVFaKKSXY/gbFPFZjjMVj8xr4jG43HYitjMZjcTVnWxOLxeJrOvisVia1WTqVsRiK06latVm3OpVlKcnKTbPS5tP3IRtwfm+jZPBAGVGDjp2yfvV418RNPvb7xLMglsfJ06zsNOtI5dW0y1kSOK1juJW8ie7ilieee4kkJaNGPDD5dpP0jJbOI1ZgFKqBk4Gc9z2Oc9QevXPfwb4k+EtQn8Q2mpadb+amsxRQ3Ez4EFnfWVuIrie8kwqW9r9jjW5NzJtj8uKfPzoFb/N79oLhs4r8N+G+aUJVFkOW53nuGzWSjKph6OZZjgcveTVcQozhGm3h8DnVCjWnpGWIlRi1LERUv76+g3jcpy3jbirDYrEYTB5pjuHqLy2riqafPQwmKdTMaNGTq0HCTpyoVaiU/ep0neLjGXL8Y+N/CWi2H/BQz/gnF40TRdAt/FPjD4ua8PEWvWMOkvretPo/wpuLa3TVdRsWkv721tdrS2DXcktrG0sotWGZMr+z/aXLfFb/AIKMz2xtfNuP24fifpBllvrG0kWC4vIr66jH2q5iytx9jtYiflEkYmRdxSVF5jRdX1b4jf8ABT34JaMNc+FfhL4Yfshv4b+KGreJvHPjSDwfrPiDR/HXg3VfCs8GjQaw407Wr621W1gvYdNtWsJ4NPvHub24cmOF6nw8m8R+Cv23/wBrX4KX+p/C7xR4V+N3iXx/+1b4H8WeBfGdt4xlSPXPH66D4Z8Na1e6bIui6Nql3pcWoSX2jzLJeWN1d6VJ9sks72JzzcQcKcT1foFZLlmPqU8RmOW8DcN8Y14YjG+3lhuEn4l5jxNl9OE6lf3qmC4XzXKakMqp1fbYag6eFhRi6Lpx/TsszzK8P9JrEYqjKNDDVs7eRy5MtqUo/wBp0eHcpwOOjWwtOcZqMMfgMaq+KnLkrzpVKs5S9q5P9Bfhvb3sSeJdOne3e1uLK01FUh1GwvAt9ZXCoJDBaXVw8ZkgnMTTFFQiNI2YbgK9CFng4IJGehDKeQMkHAwQeByeOARiuU+Ffh67s9P1PWL23ntZtS2afZwXEflzG1tZWku5Hjcb4w91tgUEBv8AR5GA9fQtYv8ASfD2jap4h8R6tpegeH9FsJtT1zXdcvrTS9H0bTrRC9xqGp6nfyQWNjaQoAZJrmaKMEqqMzsqt979A/B5xgPCLN6+PVX6hm/HOaYzIFKMlGthKWVZHlmMxGGi5VL0ama4HGYf937k8Thq7jzOScvwb6ZGJyzM/GCosvlhsTisDkGV4DNa2Fjywlj4TxNaNKS9pUTrUsLWoRqe83ZxVlyytkfYVXLEFS24DrgAbRgH5Wy3BHvxzk18Bftf/t9/CX9leR/BNhbH4r/Hq9ijGi/CDwxeA3GlT3Sg2d98RNZt0uF8IaaxZZU0sQ3HijVIiPsul2ltJ/acXwl+2N/wVT1nxPcr8Lv2S9as/BXhTXba9W//AGn/ABDNb6edZ0+0vZNK1a2+D2m3xF1YSWV5HJbXvifVLRfE1sDb3Ol6LoNveadrt77H/wAE+fEn/BID9ko2vxL+KX7RGlfGX9obUJRrOo+Ldf8ABnjjVdE8M63dkTXVxov9r6DNca3r63Tu8/i7Vlad7nE+l2uny77u7/s3iDiHDcKU4RxeDxOaZ3Wpe0w2R0Y14YfCLmcFiOIcwowmsFCM4y/4R8K5ZziGuSusoozWOh814V/R3zrjDLY8YZ/g83w/CNPESo4bC5NhJY7iLiLFUOR1sFleFSnTwGGUpwp4vPc1VPLsIvb/AFKjneY4SeTVuu/Zo/4JZftJft5+ONF/aX/4KLeJNW8OeBo/9P8AAPwR06GXRGttFuXWaCx0bw5K0sfgfQruPY11q+pre+M9fVVnndvNtdZj/p/+Hfw18B/CTwfo/gL4a+E9F8FeDtAthbaV4f0G0W0srdAF3yyY3S3d5cMokvNQvJbi+vZt093czTO8h/Ogf8FpP+Cb6sw/4aFs9w6g+EvGRPt/zAec9sdePavF/wBoD/gvF+xT8Ovhlr/iL4Q+MW+MfxCSL7J4a8G2ujeINFs5tSuEkWC91rUNU06xKaTZyBXurfTzPqN2dltCLSOWXUbT8QzPMOI+KszpYjMKeYZnmE2sJl2CweX4hUMHSq1I8mXZLldCnOGEoTqckfZUIzr4mpFV8biMXinUxM/6ExPCfF8svw3DuVcG1uC+DMDVWIpZfUi8ryehOjSlCee8U59mTwtLH5hToSrVMTnOb4iFDA0qtfD5Vh8pyt0cto/or+1h+198E/2OfhnffEn4x+JodNiEVwnhzwvaSwSeKPGOpRR7hp2g6c8qO6ozRm+1O4MWm6bFIr3U4llt4J/4lf22/wBrP9qj/gozo3xJ+OOvWt/4L/Zf+DMcMmh+G7ae4tPDMF/r+r2Og+HtKilnEKeJPGGu3WoW32m5kikvp7SK6khtrHR4FtrP6O+DH7M37S3/AAVN+LE37Tf7XXiHX9K+FEmoGTSrF1ksG1nTbad3g8L+BdIkH2PT9FtQWgnv1t206xLTu66nq8tzBN7l/wAFhz4J+EX7Ov7OX7MfgDTdE8E+FvHPxYTV59Gs5I7HTrTwt8NdLSSS/wBTnlO65e68Q+J9Iur7U795bm8vLDfPK5jjCfovAvDeHy/OcBmGLVDMMbltd5njcRTjRzDLMpo5VTlmOMwuTxSrYXPc9p4bC1oV875cRk2T1/3HD0c1zSms8y/nzXOeH+CsXhPD3IH/AGtx7xdUpcPYnE1amIyqpgKWeKOClWzOrJ4XMOGcnnTr/wCy8NSngOKuIKEvrnHdThrh2rV4C4i/Yv8A4IafBz/hU3/BP74dahdWog1f4o6z4i+IN9I0ZS4mtbi7TQNI87PzFGstDF3ACANl6WXKsCf2Dr8Zfgt/wVh/4JpfCn4S/DP4Z6f+0LpENt4D8CeFvCirF4R8aJG8+i6PZ2F1Ov8AxISCbq7hmuXZWKu8zOGKkMfUF/4LQf8ABOBydv7ROmYGM58J+NBjPbJ0Ec8HtX5LOeOxtWtjsZRrvGY+vXx+Nk6NW0sbjq08Xi3eUU25YmtUlr3PR4v4J4zzTifO8Xl/B3Ev9l/X6uFyaDyjHN0sjwHLgMkofwdsPlWGweHTdtKa22PK/wDgvZqLWH/BO7xtGpA/tHx34IsGycbl36pekDPU/wChA4HpngAkfiB8Jf8AgpD4V+EX7L37PHwB/Z88Bav8fP2hofhzouj3+iWdlqlv4G8GeJtVur68/s3W7y1hTWPFOt2z3uZ/DvhlEgEo+z3PiO1mD24+tP8Agsj/AMFG/wBkL9pT9ky1+HnwZ+KNn8Qtct/iV4d8Raz4ds7XXPD1zLomnaZr1o8sd9q2lQI2L3UbWN4rRZ7kRvJJsjSNpV/L79lP9qf9rn9lDSLe6+AH7D3hOC91e3jvbX4han8MPEXivxbfaZqFuststh4pnmAi0m6tplcLpEdqt8jCW9nvGKyD9E4OzDH5Pw9mOIw2QUMbisRxHioYLEZ7xHw5wzkV6OS5A6kqtPN87ynNM6qYWdZN4PLXhMP+9ksRm1GVsPU96t4QYDi7hfhnIuM8XmuXSyiFXP8AE8JZbw5xrjuIsbPE5xxHl+DWMx2ScIcS5Zw1leMo4etNY7HUMfmVaeForCZFiMLKtjKX6i/A3/gj7+05+2P4t0j43f8ABSb4la5pmkQSLfeHvgxo8ltY3ek2UrK/9m2Ph+2WTw38PrN42eKdntNS8UXKhl1eBLoi7H9I3wa+Bfwm/Z78G2fgD4OeBdB8CeGLJYd1no1qEutSnjTaL7WdTm83Uda1AhiGvdSubmYKfKjZIlWNf5Rx/wAFlP8AgrSg+f8AZk01fmcAt8JvFK5CkcnF6QcLnOMZPZRzXMeMv+Cq3/BYT4o6Bc/D/Qfglf8AgLWPFT2+k2nijwn8Nde07X7B7qQx4sdQvGv/ALBLOCkZvLOKK+g3B7S5gcbz4eb4XiziHF08ZneZcP4mpSTp4b2vHXh5Ry3K8PNrnhgMuwPE0qOBwyjZVY4DCVMViOWM6317E2lU1xHh5n/9nU+HcojheFeE6dajUeQ5BwD4v0MNiZ0X+7xmZ4vG+H8MTn+Y0+apLD4vPs0nRwcq1SjgamU5fL2VL+kr9sj/AIKN/szfsVaFdy/EzxhBq3jr7K02lfC7wxPbX/jDUJHhZ7c38Su0Hh2xlbZm81Zop3jfzNPstQZTEfVv2OfjrrP7TP7Ofw4+O2taFp/hif4kW+u61Z6DpstzcQabo9v4n1nS9Ft5bq7xNd3x0zT7aTULry7eG4vJLiS3tbW3McKfxl/GP/gln8cfDX7NPxN/aH+L2u+JPiD8fJ5fCl5pngPRJJfFGqWCa94s0iy8Saz4n1AzTm6udP0m7upZdO0t7+6jncT3d3G0U9ofZ/gX/wAFXP8Agon+zx8I/AfwV8Dfsq2U3hP4daHHoOhza54D8ZXurXFss895LPf3dtqFlBNPLcXc8m+K0gUIVjKFgZHrHcG+xwGV4zL84wuPxtavmtDMsJjc04d4XwtKjSpZRUy7GZdhOJszyrOsdha9StmdCGYYrD5fKs8JNvJ8JB0q2I4MHwnw5xFkee5PwhRWZZhlGecOxnxdQwPGPFarTjguJlxHkM8VwLkXEXB2BqYWVXhXHSwWV4/iSMVi70eMMy5K+CwP9aP7aKM/7I/7SqL1PwR+JXp28KamT1IHQde3X2P+f7+xz8FvDnxguviOuu+BdN8byeHja3sOn3Wvt4Y1A28tysEq6NqUmmanYNdbpA6WWqnT7Kd8tJqNsVRq/Vf4i/8ABYv/AIKQ/E7wB4z+G/iT9lbSY9B8eeGNa8Ja3Lpvw+8a2uox6Vr+n3Gmag+nTz6rdQ296ttcuba5mtriOGUCUwvtAr8l/gf48+OX7MZ8bSQ/BvX/ALX40hW1Nx4ksbvSvsMKuZv9Fju/s6XNyJRuEkhktyqMkluykstQyviPBcE+IGGyvNclyvPM2lwLDKo4bxD4QwGKxNPLc7zHE5tGljsBxVR+rwpYPF0/aRq4zDPERq+zpKs+aK/R/D3hLGcP4vhnA5ngM4xkqGI8ScY8XQ8NvEXMsHlmIzfhPh7L8jq4jD5n4fzc61fH5fiadGeHy7GrCyp+2xDw8ZU6j+kPFXwJ/Z0tPD2reItK8H2+mLaxXogsPEl3Ba3trqWmSqL3SL63uQi/2tGsU6JbRSTJKZba4tHubaSKeXO1v4D/AAUeDSb7wx8ItXudKm1vSYb3XNfaPw1oZ0zVLwWET21zqtsdU2XV3PaKdVi0W5tLWMu8j5aN68JsP2hfHNnf6vq9x8H4fEWqamsdtqGo63rFhqV7bPJp4sZoYWSWNNKivbVY/MtbSK3t2jjhSNBAioensf2rviha6HF4Zk+DlprOl2mnJ4fmi1LVI72W6tIbOO3FrqZjuEDu9m8SzRsiM6yxy7VMiOfgllXiXSjFQ4jxNVxnq6njHwxFeznCF0muOk5um17k6ko8zleS6n16yXjavKcqmIhhlVpOMI0PCDxAm1Wp1ZyhPll4TunSVSFS9anTpzlTVLljK1r/AHF4A+HOu/D3Tf7H8JeFvhn4WtJ5JUdfP8R65fbQ+8pc30NroazxITuxFEkeQCyM4DN/Sx+xJ4q07/hjbwyfib4i0Lw7pPhSx8Z2OveKnvv7M0Hw/BoHjPWrjTdfi1HXZQLP+yZBYXtlNdTER3sEMcZfCRn+NXQ/2u/jJpdhDpUXwmfUYbPMdrcajqhuruG2IKwWslz9oilujbxMIYri6867eKKP7VPcTAsfefhton7cf/BRWTRPgXo11qPw3+BPhvWrjUtdjmvprLwXpeqa3eG/1G/1m+skZ9Y1EyTvJpumP/aWqQq4TTbeKGSRx8vU4PzfBYiWacS51wjkOVYfFLMM0zzGcX8OZvWnBSl7VrL8jzzOs/zbH411FTo4alhq1XFV5L6xicPT9pjKfl8R8B5lxHCGIzzHcS4qdKFN4iVbhXjbLfq+GoUPZ06FLM+L+FuGOE8lwWFhFU418dm2BweBwcPZ5fgswxaweT4v7t/ah/4LD+Ppbfxp+yf+xGp8aSeKPEGq6TZfEfR9M1CS60yy8QqbbWvDnw4sPLW5stGvNZn1O+8P6jcwJq+m6ZqUemaXY6U1pZ3EftP/AATY/YVvv2a/CmqfEj4p2Eb/AB28fxzDUVnZLm48G+H53819I84FxFrOrPh9YCPvs7RIdMby5ZNRgH1T4N/4Ju/CP9gTw18CfGHwq0+98Z+JL/x9pXgn4s/EnV5obe5XTviHp954Zs9TsdHLyR6dpUPii70Cxt4oZ7zVYppbd7m9uY57jyfsRbEcfw/L90A8kjBBBBx09c+vYV+/8GPJp5e3lFOvHBRr4dVsTjpUZ5rnNTCKFfBYvH/V51cHgcBRdSOIy/IsDOrTw+JjSx+ZZnnWYYfCV8H/ABr43+JFDLsun4e8E4SngsqxmHqvMc4wzxUI4ijiJPDY/B4CWLw+EzXHVsxhh/q+b8S53RwWJzDLKtfJMi4X4H4fzDPMmzvlWsfmAzjOMHbnkZHbGMAgjByM4HHFRNYj5iw6gbt3TgjgE885xgnngbcnFdibE4xxkYDtt59Aoz34AI4wD3PNRyWDElQhYLj05GW5yQB/gOgHFferFa79tL+nn5Pbvr2P4/lg3vb7++nqvPf8zi3ssgjHGFGCdoxjIYggAAc9sEg9OpoPY5Y/IT05PfAA9+PTk8YrvZLFtvKdAOBzweMrjgj1XOepxyKzmtArEMi7gefljP4ZKZ4Hr06Vaxd7LV2ts15ev9d9iPqb6LstH6L+tz0ZrQMiBlHKKQTjGMZ5ycA8nvnr3zWPqGkW2oW11Y3cKS2V3E0U8Ev3LiJjkq4XYSN2GQhgyuoaNlYE16JJYho4vlBJUZxgZwTwCOhwSSeccE4xznSWmD3yT/dG0cjBBXPH8zg+4+R4gyjI+Ksnx/D/ABFlmEzjJczofV8dl2Ope1w+Ip80Zx5o/FCpSqQhWw9enKFfDV6dOvh6lKtTp1I/ZZTi8xyPMMJm2UY3EZdmWBrRxGExuFqOlXoVofDKE4u+11KLvGcXKE4yjKSfwh44/YN/Z1+I/jBfGnjn4X+D/Gmpulnb30ni3QodZu7uwsI2gtLI6j9ptJ/JtoiEgEkTyLH+7Mshyat/CX9h74A/B7WZvEfg/wCHPhPw9rVxZSadPN4b0VdDiu7Ca4t7ueyvEiuZ5rq3knsrWV4vMjV2hh37lQqfuL7ExTkYBG04xycEjAyehHA5xjnjpn6nPp2jafd6trN/ZaTpenxeZfalqNzBp9jaQlsB7i5uXjgh8x8JFvbdMzLHCjyOiV+F0/o5cHU6f9m4njPxbxvCCo0MHHgHGeJOez4NWXYeXNQyx5fTdHGyy6klCEcLUzKpB04QhNyhBRP2Kp48ce1nPExw/ClDPatnPinD8J5NT4ldd+05sWszVGThjqjrVPaYynSjXqOScpvlijH+y428KNo2qBjCqi7QFXHCgfKAoUKAOcACvE/j5+zX8Kv2mPBtv8P/AIwaTq2t+ErTV7XXBp+ma5d6M01/aJItqbl7ZZY7qGIyF0juIZDFMiSwNEwkD5Xj/wDaU8I+DDm61HTPDFhKQ1pqPi2z1OXxBrUcibkk8L/DbS2t/EstowZJE1rxleeDLORG32lhqkLLKfn2+/bi0rSXuNQh1jxFrOmW0bXD/wBpfBt7XShboWDs1/oviSx1G3RRtZZHa+kXALQT7tp/orJshq4LK8FgOHsjr4DJsuwlHCZdSyul/ZeDweEw0I0qFHAOlPCKjSpUoqnB4W0YraSldn4+s3xWDzeOc1M3hDOo4p41YnEVVi8W8Y5c3t60akMSvbOb574mF1PllZSUWvjP4kf8E9/2W/Bfw210QeENa/4Rb4d/EG9m+N2hxa1N4i1XR/Btzqd9oWg/GL4e2d2sf2TXPDNvHpkvjXQzMtl4s0Bdc0bUDbR/2Fq1v7F4T/4JO/sE6xLp+l6v8PdTt9f1HRE8TaJdeH/iRqGoeFPiF4Vb7O6+Ovh1qs1kJdV0BlurNtX0i7C+JPBlxe2th4ht5LS70nXda871/wDbG+HepfG6/wDFugxpZ6J8TfBlvpnirT/EZuLPwa/i/TNPi8K+I/DutXs1jaX8ng/4s/DtNH0zUrq40q31Twr4h8Fad4n0tNU1LS7Gw1rqP2OPirolrcj9m3xnrWtaP4Es/F9xrHwD8d3Vzpdz4r+FGtveavb+GtS0PWI573RtSs1WLW9Ju7OK5vvDPjPwxc3fhm8hvPD/AIjhhhzo5Xn1NV6tLEZ7GdCFfEywsc0zelDGxhVbxVpwxcbZnTTjWTqObxlOTTelL2X3tDxK4og6ns+I5YeeZYnDzr4z2OAqOlinhaOHouvTnhZRlgZqjGi50oRnh3HncqjhUjW9VP8AwRp/YOwSPhx4ryRklfHV6CpHTaPsJJxwNgGRyVxnNbvh3/gkD+wn4e1vSdetPhjrt5daLfWmowWWq+Mb680y6ltnEkcGpWa28D3NpMflniW4i82ItGXCnn6juv2iYbp18KeD7Twl4i+IWnf2tb+IzqPiCfwx4K0q48Na3deGNb11bn7Fq2q/8ItPq9heHTb2YwQ3SrJZ6RqHiCWwvriL6J8H23iq60i2vfFd/wCC7++vY0uoH8DQas3h0WsgPlvaanrOoXd1rEbqVAv0tdNgm5eO1VW45Y46OK9phqmOzirCdJxr0cRmubzpSp1YLmpVqNfGSpVIVKbkqlKdOdOcJShUTi2ip+I/ibg3TrribF4aopN0MRhqWW0cTTqUpJRrYbE4XDRr4evSmlOhiaNSlVpTjCtQqQlGnUTLTSLPT7S00+wsrWwsNPtorLT9OsbeG0sbGzto1htbKxs7eOO3tbO3iRY4IIIkiiQbURRxX59/t6fAP9jTx5pPgP4jftb6N4mubTw7qsfw38G3/hNtfn1OXUvG88mq22hyadoFhqU9xHd3OhT3EVxJFBb20iSrPODNAo/TQWJBUEtuzkEKCAAegGeM9B34wOlfB3/BQT4JfE/43/C3wP4J+GHh59emt/iJN4s8Q7Dpiy6dZ+FfAfjTUNBurWbUPEPh949U1PxQ2l+GtKWzF5IdR8QW11eTaRp9ldXj+xlUsLVxuDw1fFVMtwkqkadXEYXFTy+WHoRhJy9nXoSjOiuWPJFR0mmqLjJTafw2W5nm+UZlDOsuxlWlmtOdapHGSjTxFaVXFRnTrzqfWadeNWdaNep7SdSE5OU3UvzWkflj4I/ZR/4I5fEqx8V3/gnw/wDGbXIvBvg3/hPtYtLDSPidcarP4VHia08HHUND0W18H3Gs+IZY/EV7FYSabo1ld6jGkdzem1+w280y2PCX7I//AAR38a+NNT+H+kaN8YtP8Y6J4K8R/EPWNE8V6H8V/Bt1pfgzwhpl1rOveINSXxR4F0v7FZWthaXEloZ1jk1O5QWWmpdXrrbt6t+yN+wX8dvg/wCK/Eem+Kofir4S8Kav8M/FulyeNvhj4r8PeCPiX/a3hnxL4N8deEPDGieJLPxbrUmk2HjmfUdd0mWNbCWyuNS8Oa1Za1LpOn3Nh4gv/WfgZ+w/8QLn4XftO+M/El3+0f8ADr4ofFzXvj3/AMI18PviH8XfDupzeM/D3inwFc+HPh7P8cP+EbbWtJ8V6/NqOp3sl7eXXin7JbXVtZaikdpHCHn+oxuE4cw9THxocT8QVqMPYRy6tDinGz55YiShF1qft1UnCl7OtVrckIcsXRU5Uo1Yzl9hHxR8RJcvNxFXbe/Nl2UuKtFNtXwEk9fhd+j+Xj2jf8E+f+CSPiTXvh/4V0fUJLnxF8UvDEnizwVof/CyZrbVNS0X7Jot4kN9Z3WmxzeHdevbXxLo76d4W8QppnibVjdPFp2lXclleJB+iFx+09+y58D9G0b4aw/FvQZYvAHgLQYtK0Pw3rNv4y1OLwromp6b8PNNsVm0S4mtL7X4NQNjbXXh+K4XxAlotzrUulR6Tb3N3F8WfCH9j/8Aajs/2lfgn8SfGvwQ/Zz0Xwt8LPD2k6NrN3eaV4E83UNMm8P/AA10qDxRpmu+EF1Xx14u+PnhC58Oa1q1v4o8b2Fl4e0XULRbDwbqsmna897FDefsCfHaf4gTfEFPAPwKPimTRtU8YxaYmh+AG+GUWuH9qjTvGNh8FiJfCK6m9jd/AO3utHuviLL4ZbVYNQvrjTzqe5hbNzvLuH4Yqk8RxDicXT+pwnzV87qZh7KvXxGJ5sPCriZ4mGHhChh8LLFTjBS9pUg37SPs6cPCz7ivijifDUMLnuY1sfh8LXeIpUJ4TCUIRrOkouq1hcPh/aVFCdWFN1ObkjKpycvPNv8ARjx9+058C/hb4w8H+AviX8WPDvgDxP458K3/AI18O2PjTVP+Ebt5fDemy2sEl1quo6tJaadol1c3Nz9m0vTdWuLXUdXubTUoNPtZ3069EPJeO/22P2U/hrqk+h+O/wBoLwToerQaXousT6dLea1qRXRvE+nWuseHNV87R9J1K0k0/X9JvrK/0q4S4eG9tbu3eEyeaoryP4xfsq+Lfi142+Lvw+8MfB3wh8Pvh98ade0i9+Nv7UHjjxpa/Ef4peMfCEWmaemoeA/gl4NvLTUtV+HEElj9v8JWd3qmreH9C8KJea9rWgaFdXWoWs1d5+1B8CfH2reIP2ffFHw1+Fnhf4vfD74Nt4rh134Baj4wsPh22r3d94TsPC/w48baD4i1WyudC1LXvhPaW+oJ4c0vxEYlsLjUo9a0a6t9XsYJrfjoQyGUsuhWxGI58Rh8RUxMY5hltCMKkcNHEYZOvOliMLhJYmt7TBRw+KrKrTcIYvFzwaq/Vafy7wjTklTjaLSX7pttuydo2jJqMfeU0uXXlSlZs3bn9sv9lPS/DukeK9R+OfgnQ9N1/SdY1/w7Hrs+qeHdc17SvD+o3+k6reaH4d1rTdO8RXyxarp1/ptsYNNzqF1D5VgLkSwtJ6z8JfjV8L/jv4bbxf8ACD4haP480K3ks7fULnQ7+Z5tF1C+0+31W30bX7GZYrvRtbSwuree60m/hgvbUt5dxFHKjKvxV+07+zf8S/HP7Kvwl8CfC34ReJD4wOuT6t4o+GHiT4kaV4ktLa78QeFvFlvqdv8AF74n3Xjvwdq+v6dpfirXo/F66p4N1nVLOTxzZafdXfg/WtFlurVfvf4E/DG9+GHwa+FPw91mXSrnXvBPw18C+E/EGoaLax2un6nrnhzw1pmj6hfW2Le1kuYJbmzl+z3VzDHNPEFkZId/lLz43+x6WXwxGFr4iWNqY/EUPq1TF4Ot7LC0JtRrVI4fDrnlVg6cYVIVY0Jv36Eqy9pTov6tOUvhTXKnzckurVlduW2umjv2OxEdyqgmafJ4b9/IOCecYYdCSA2cbeOK/P7/AIKN/sv+If2lv2f9R03wRA198RvBlyPEXhnTh5Ut14ksFieDxD4VsTcfuzq2oadJLd6DDJJFHe6taJpbSxHVBNF+k62PdgQMj5RwevI7jIPI54OegpG05W3ZyByScZxjktjIGeOmNzYxzkivjs3w2EznL8XlmNh7TDYyk6VSK5VKLbjKFWEmmlUo1FCrTlytKcE7Ox9Bwzm+acJ57lXEeS1Vh8zynFU8XhpSjeE3H3atCtGMoylh8VRlUw2JpqUXVw9arT5o891/m16H4U1rRINavdX0G80XxDr2v63q+t6HrOntpur6RIt8NIsNE1SzvooJ9P1DR9H0rTbW8sbxYr6y1OO7tr2BJFl28c/2rwx4+m1CZVOi/EaOw069IKR22neNtJga20G8uJflSD/hKdKin8Nl2dhJq2h6CkrPJeRV/dx8dv8Agnx+xz+1j8bJtb+NB1DwFq3hrS7S48Taz4C16HwhrXxS1K70PVdfltvGdwthqEUOleB/COjWes3/AIpgttK168fX9L0y88UR2trb6bqL9N/4Iif8E1/Anhe/tvE/w2v/AIrNrTy6jpt98WPGXifxdqNrp1xLHd2iaXaR33h3w/4dis8Qi01O20OPWw0SS3Wq3t3uNfy3xTlVXhuvmNfEyWMwFNSU69GVClFU/cdGlOWNxGHjCrT5KSpU6cqvPVjCEXNycT/QHhfxjyfOcjyOMMpzTB5uvq9b2b9hXpRxCcqeNqwnhr161LGU6mIUpzw1KUaWInPkoyipn8RkEjzyRRxQFgZQr+XunxP0ZXAfciszr84UBiCcMFCD9eP+CW/7SPi34EfETxZ4T16C1ufgD4wn8HXXj3Wzf6baah8HPiZrl/pvgj4e+MLmxup7a+1Pwv4+M9h4P8VQafa3V3oyaPo3jGYJouma7OP0a+JH/BFn9mO28W2njjwv8X/iZ8M/hdZajDe+JvBTv4e1qyvrG2ZpDpGgePfFVte+KtChu5PJt1M8Xi3WDC8tpof2a8ls5Lf9GfBP7I/wh/4VJr3wmsPhrovw4+DvjPw9qOkv4D03RFtNa1Z9WtWgt/iN8RNUvPP8S6v440yR7XXfCena3qd1qHhXUrHT9Y1O4k8S29jZ+GfjuHcsXiLWrZTl2Fq4vA1MPUWZYyq6mDw+WXv7CcsTKjWjVx1OtCNbDYXCe1jWlS/f1qWH55w+h8UfFnI+G8gw6jSq/wBqTxuFrYSnXjBVp+xlGWIjSwsMSqkqU6cquExFfFqhTowxE3Sjiqyp039dXU9/8Z/gp49+GmnS2sXjaXRP7R8GteTpHbSeKPD9za+IPDMkl2wmW2gbXdL0xmvoldrWF5bmIb40DcRol7b+I9JsNftLS6sotVtBeHTbxDHe6VdM7Q6ho+oQ8+RqWh6jFeaPqcOB5WoWNzCNwQGvlv8AYj+JGvWXhWy8DeMZXg+KfwO1Ob4YfEGG6nMl3fal4Sv7nw6fEkRdIpJdK15tPXULKZl2va3MK72DRlvrX4lSR/Df4qaDrEqeX8MP2g76K103UxgWPgr45/YjIdF1F1VEsdG+L+lWDHSLl2MEPxM0G70+aU6h8Q9PWv0/wP4qxmCWZ8GZ3KSzHJcR9VjUmrTq0qU5UqUnzNt2adJt3ShPDK7am3/LPjhwnhcbHLOK8jjzYDMsLHGwp0/fhGOIp0qtaEXa69nJxqqElzRjKs2vcV3fY/UHI5LD2x685GOSeV7D7ppGsuVwOPuqMA5bGV4wPXr2IXIOBnrfsRJwwJzjK4IxjjHvgDJzjJOOcZppsFAAwcjAOM5B6jnB49duR83JBFf0msXtaX9fd/Xc/meWCa6K193bpby+777HHy2ewEY/iJxwcYH3T2JI5IHA6E5xWY9mCxO3v3Ppx35/Ou+exGQSp5YcjnGRg/MBwpPJLHdk46YrOaxYsSGQA9iuT78g4PPP8+auOK7v77+XXX8iHhJLZL8PL0/L13uejT2uI14ydp429QHPHoSTj5uOhH1zJLVeT15JIcAADKgAMAc4JIJXkAg8ivQJtOwikAMSqgBQARjPBwT93pjGRjPIINeN/Ffx1D8ONEtpLLT7fxB4z8T302g/D7whNd/YF8Q+IVs5b6ebU71VY6R4P8L6bDc+JfHniRo2j0HwzZXMkKz6veaNp2oeOsZFRum5XdklZtu9lFLdtvRJf8F/RrAuTUVGz7Xskla8m9opK7belrspeJvE9loV1FpFpEureJbqwOpQ6KLtbKCz0hJntm8QeI9Vkjnh8O+HEu0a1jv5oLm+1e8jl03w7pmsalFPbQ/D/wATfEd34guPtUniy4vL+wvJ4I9X0+0W10/Q7rcsMlj8PNHuJryHRbuIFre68aaoNX8c3OdsGp6FYSNpcXk/iz412+q3+v8AgTwf4rh8Rahb6laal8aPipaJ9jk8UeJriye3Gm6ESZrfRrW0sbd7Dw5pQmez8AeBrSJrSOaV7jVtY8cl8T3uvahZeGNAK24vEj2z2hKJoPhS3Dy3d9ao+511DW0YR2Mlw32yKK6gv7pjqUkz1+kcN8LVWqeYZlFe0sqtLCztKlhoRtJVK8WrVK6Xv8klaC2iqnI38lnOd0oN4LLur5KuKTaqVpS5VyYZ2vToX911Ie9Vu25qn7p0up6FoFpa3kujQy2OpzmSO41exXTtS8T3d/LIyB31vxDBqAe984yPPLNIYo/mlx8nlN4Nafs2a/8AE/XrlNa8X+IfDWiPcTyWkVz4p8Q+LvFupR288EL3USQatoHhfSNOLyKsAj0zU+W3TWSb9p9jg1XTdRv3eylhh07TtSTQNDeSTbZy3UcTDxBrXJ86a20y2EmmRM4QSSeesb+bds0fsHwDnl8T/FO70yW4lL3Gsa14bsYWbKWWl23xS1LQIbe2yFAit7LTLYB1BVkYjcxLk/W4+s8LRnKTqKVPD1a85OTbjGlGEuVxd9f3lnJxcoNOCaV0fPYKMq1akouHv1qNONo3vKclFNO2idrqLklK6k4qV2eg/Dr/AIJLfs/w+FdD8SeOPDniDxne67rGm21pF4r8YeKLiY2l+s6C+uLLRdV0LRoIp5PL+y2p024ZYpS7zksgr0vwb/wTP/ZGkuvEOh/8KK8NaZe3fh221HTZ9G1XxfpUt9/ZWpz2GsaZcS2XiG3+17ZmaCNZmYwbkZSisWr9PNV8XaXoOueG9JvltrXT7y+n8P2nnyRxxLfRz2sOjCIPhWmMtqURFAaPKuh+XFdMNDsZru21CzkRJIb7UbhwGwGt9XgWDVbMMhyBJcJFeKVKhLqME9a/nfEcV5tJ1MTXdShLFueIwdakrexVOtL2UITglNNSp+yqvntOnOo2rzP3/D8LZYpUqNCft/qns6GLo1pv98504KrVlCT5WrVfa0uWP7urCmoNcqPxY8U/8E9E+E2vw+Pf2ede8X+AZtPQ6q9n4L1XVv7UsNNjjRF8QeF9JutTNp4jttECRWnifwLfmDVLi0X/AIlGs2sjxSH0f4O/EDxrZeIJfBHjLQtF0H4m3UA8Q2mk6M1vpPw2/aD8NTsgm8dfDO5ljtNI8M+PZnZX1CGK30jStX1Bm0Px7pHh7xE8ev2f6uC0tiJrKeYQalpc41Ozus/OI3JVb5fl4iuv3trqka5jdjISieYhr5z8RfDrQviPreq+A/iBosGj6r4b12Dx58P9d8LyCzvtLtLy4MNh4y8JPK93NY3NvO83hD4maAwuNI1DzLHVJ7YaR4ntLa00lxSseqdLNKfPOmrYfHUacYYqjHSSnRaUY1W1JSq0W1SxlPnp1IRrrCYmnlPhR4eM5YCacKjUq2Dr1JVMPOWsJQqaupScZRlCFdc1bCz9nVhOpS+uYerY0DUtL8Q6XFq2kSyTWk0lzbstxa3Flf2F/aTNb6hpOrabdxw3ul6xpV1G9pqelX0MF5Y3MZjmQfI7632TGMLg5YlguOCFA44ye+OeepxwMnxF4YvvAXiXT/FjAyW+rXmjeFfiHfxGOGy16xuUXSPB3xEvLTf5dv4h8O6odL8K+Ib5N0l14X1WGTUZbi38OaK9r6D9hweQQyk5JU53ZwcgEYOcccY9+RTw+ZqrB3nGUoNRcqbfJUi17tSKaUlGcbPlklKLfLJKSsvDxuUTwlbk5JqMkpQjNfvIdJU5tPlcqc04OUG4StGUW4tN8gLZWZ06MjhWXByuVDAk/dJZMHqQATuIbIqUWkZHC/MSAcrgLyeORznK8Yz+lda1l0Yrk9MEdewwccYznd75ycVJ9iH9w5AyBs6nsST8pGB3xnBwTiuj69HTW+219dv1t+HQ41gm/spba29NL3fkvwXU5EWa9CAp7DaMHqQM4znjoMd8daPspyBtAJ6nb8u0AhsccDAyTyevausNgST97vnIOMj2wDgk8HnHpwKcLMA8g8Y+YjI6fiQcHuQCegA4MfXU95PW36ef3fL50sFL+V7dV008tP8Ag+RyItAAoI4yRkgnHBwQMY4HGSORzgZyHLZnqRwR1I2lQvQZx74ycAZ6dq6trHAXJ3Ena2FAHzZ9MD5ucY/PilNjlckdAcgrnaOMAA+nPQ9QpHah4yPd/f8A1fp69x/Upfy6fd27rXz/AOHOS+xKxztGc8YBGfTggEN3OF5HTjNL9kU4Gw853beB05OMdTgHqevqcV1H2FQc46D72MYHr6kZ5x6jgkEGntZZHQkYKnIbnaQeduMj0/2s7hjFL62u7/Hy/vef9aAsHLT3dNL+7007Wt/V9mcsLVDtVj8oBORlgVbPIHYAZHQ/XihrMblCBiW2qNv3mYkALg9Sc4HqfQZrqfsRCgY2549+MnJzgZIAJ9PQYry/4zeJIfAnw38Ua9LcjT5msm0qxvBzJZ3mr/6Gt/CP4pdJs5LzXFUAnbpb9RxXPicwhRo1a9STjTpU51JO+0YR55Pr0Wmr/Gz6KOW1K9SFGELSrThCPZynKEI/K8l+PXQ6v4SeDPB2rDxz46vNE02+uPHepafbPPeRRXov/DPgdLbSPDs8scqvFHBqF3pUuvQxJhbi2fSZ7hWeKEr8qfFXWfit8Tfj9oPhX4d6vZeH/CGnaRrHiL4oeJtS0Oz1+3sdBluV8OeCdE8P29zPb7vGutapp3inVNM3+doul6bo95qviO11K3k03R9X+j/Cutt4Y+DuiSXMMlheXXh/T7gacWKTaV9ss45LLR2TJ2DR7RrLSDEp2g2Jzk5ZuC+CNlPfH4k67Myul746i8P6ftRcDT/CPhfQbWUyOoBkL+ItS8SykOSYwwi6qRX824TNMB4k8Y5blONpRr5Tg6WYZ/mOFlO9HEtOODy+hVitZRp/WJVmk1zNxs1ZH9B1qON4I4PxuZZfUdDH1q2ByLLcVye/RVnisdiKOulRxoQjFtNRcnpJSLXh74TeD/D13a6t9hute8R2iEReK/Ft6/iHxEkhAzNZXV2q6fobu43eV4Y03Q7OPhYbaJCEruWtUwCU65PHXB9DwdxPLZ5I6deOwaywDlR6DcDjseM4HIGMjPO0HGKhaywxyMnkEDOAMdMcjn1A5I65Jz/ROCp4HLsPDC4DC4fBYanaMMPhKNPD0YJJJctKlGEVppe13om3Y/BMZ9ezCvLFY/FYjGYio/fr4mtVxFWV+86k5SaTbtd21fy+KfF3giz8M/GpPFul6ZEt74+8P3V4zRQxxy6vrHhq20zT/FmivL+6DajeeGovC/izR/Pl/fzeFPFiY/0uWaL66t/DWhfFz4UeJPhj4qgN1petaa9qww32i2dXjubLUrBwySQapo+qW9rrWk3ETRTW2oWtvLE8bx5XH8deCpvFOjRxabLDZeIdF1C08R+E9RuUD2+n+I9MS4W2F4MNIdJ1iyutQ8Pa4Iz5j6HrWotFi4WDHTfCDVLfWLaz1i3tZ9PMk13pesaLdDbe6Fr1ncTW2o6ReDaq/adP1C2ubWSRQIrlIhc25e2mjdv524wyPFZH4j4TPsDzQy/iWLoYucG4ujjGoLELR6OU408dTaSbqe3qWapTP3nhXPqeb8CyyHHtVMZkE1PCKerngnd0Y6/FFc08LbW0fZQduekjxX4dapq1zaSeGPGJkXxj4de+029u5sf8VFFot2um3WqxSKiRy30LS6fNq6RjLQavoWvAGz8RWwi9INmpDYHoS23cOB6e2MEY98+nE/HbxH4Ftb7x5cad4ttvCnir4dHwl4n1jX73T9Qk0bwVr+rxalaeGb3xNPb2syf8If4t0rStW8NeM3QGGDw1LPeXclnc2uk31v2/g3xDpfjnwxo3irSNn2XV7XfLbJPDeNp99DJJa6lpT3duxguX03UYLi0+2QkwX8UMd9alrS6hZ/1/g7i15zRxWBxcr5llNVYbEyjf2WKp2vRxlCVuWUa0E/aQUpOjUi4zS05vyjivhVZXiKOLwtO2X5jD21CLTUsPVSg62Emm9PZylek3ZVKTUloiFrTAwO+QflxnI6LkckA/N2xj61nPZAuePzUZ6dTyvXr0Fdy9pkfdUtzjkkDAwd3TuemMHnrxVCSwQucxknjJ49B9f89OK+4ji0uvbXTuuj1/rufIfUpfy9uif8ve69Lfk2dtrt5peg6RqGt61ewaZo+j2F3qmp39xvSCw02wie5uryQKC5SGCN3aJEeaQqsMSSzMiN/Op+2J+0r40+IHjDXPDfgB9R0HUNck1HwN4q8bpEs1n8OPB+m3Wl3kHwO8IXAla21n4n63qd1pPif42XujC40/w/4putA8C6pfyR/Diz8z9wf2kfhP8Rvjb/wiHwo8O67qHgT4a6hqcfiT4t+PdHubePxZd6ToV3bS+H/h54FVjIbDXfEWsY1bVfFt1ay2nhXT9Dtp7K3vdY1Czitv5gv20vif4X1H4peJPBnwjgtPDXw+8I6gfgN8HtN0Eu+m+H/Dmg3OrWXizxZZNue5uNSnkb4j/EO58QXlxcanrOsanpF/qV7fX0v2iT1eBMLHNM8o8ylUhg6dTF1eipqHs4UlT74qvXqRo4e+tK9StTUqqpuG/E0/qGU1toVsVOlhqUtLy57zqNrf2NGnF1a7UXz+5Rk405TU5v8AhLNL8J+C9P8ADPhaQDTLO3uVhkvp4ZTrerapfrY2l7fSoCbuXxNqirfSTzkS3nh/TraeVYluXR/T9Fu9TtdDs7aw1Bj4s+J2rw6NZahJJHDdm2uZpVl1RoowpitDMLm4iijEcQSxFtBjCV8F6PDeeJPGHgzw/ZI6wXF7cXkVuHkMNnBZW9h4Y8M2O35Q1vYxa+pT7rZ01CD8r49I8Z/E9pPjm2l+Gmnfw98Lvht4n8V3msJk2+nbo2+GPw6srYRsu2/v7zU/Fnj6aIq6LHodjMFSS4tnr+hcXiaOAoRi+RynVwuFhCyjTqYipKnyRt/K6ldTqK8rUMLUm7rmPxqlg6uKrS1lJKjiMVOb1nGjTi+Z+Tap8lJLR1a8Uldo+k4/iL4W023+IBtbxGtfCPhPVtF8DWDMzz6zqlnbWcmt65ddVMVloupJPNNy0WpeMtPMm64vrIV9Cf8ABP3xpBq3xf0DTpbhb29a9XV2JLxEpr+rab4jz5MkUUsWNU1TU1iDJGT5bfuUwyj8vPC3h/UbP9nrxp+0nrML/ZvE2r/Ef4U/DfTXVvsp8F/DPxN8PtQ+KHiiM+dKs0/i/wCKcF74Nku/K3SeF/gp4PSHZbvOJfoT9h3Ttf8AgF+1P4O+FHizU77UNW0Xwf4V0y51K9DpLf3F94a0vxZpl1H5paUw3P8Ab8UUIUsnl28YO2RWB/OqXGGV8RzzLL8JWhOVdcU0cHb3nVp8OPDZRj5cybcuTMcS4zaaTqXSukj7OfDWMyRYTGVoTtQlw/iMSuW3JLNY1sxwy+HlV8FRU0nzWTav7p/Q9+3R4403wt8OLLxXYao0+o+EPHmv+Ip9PsppIbibR/CmqaPZ+J7hW+WFn8NXmrafeNFNl5rhYoLVhLKJVx/hP+2T4d8VyeHzpd3HqGneI7q90Q/a2ktbmDxrpwafUfDurwSEJpn/AAlGjxy6l4cuhtjvtUsnms2ntL61J/HL/gqJ8c/FnhL9oX4I+HlMX/CH6r8Wv2rfBFoJkmNjLrvjTwh4S+LHhVNeKl47i0u/Ffwx0nRbODZBJjUtRsFaU3sbw/lP4W+KvxB+FXjK68Y+Cv7U8WeANXkv7rxt4W0aS7vdc0CH4cy3NjqfiPQbQKdReT4XLol/oHjuwtbS61TSfCOjeA/iRFZ3nh7w34mg1D4jKKeTyyJ0M7ahQweNq0Z4mXu/VKONjQlSr1VFKSoQxFTDxryk0qar0HKcIVGfZ5tLNFncsRlUn7bFYOliIYeN3HE1cG6sKlCDk3FVpUqNedKPLeSpVYqEmo3/ALOvEX7U3hyx8Z2Gh3Yie5tLi+fTtRjYxpf6Zo6aHD8QfCesQyFnOvabYeI9C8X2CpDHaan4bGqajZv9s8O3cE+b8RfHWqWT6xa6Lf2zfET4MvpPxc+EFu1wkOofFH4R6lpOoXHjf4eslxLLJqWrNpXhrxdaS2dqFZbrSfBervAGsbiavwm8X/G6z+K3hLSvit4LvotX8SSwaLc6hawMlq2r+NPDdjc2vhfXIhbyXXkxfFDwFdeI/hPrCxzyQ2njKbwD5rT2ci3V79XeF/jcvizwF8Jfih4du49V1f4d6jYeJtBuhPK41Xwvd6vpd5rPhy9VHNy6WvizT/D1rHa7t8Ph3xxqFiU4mifLM+ElhcJVlhoqVfLpQrTpOKnRrYdrno1oSbk5UaklW9rFP4cRUm2oqnGJlvFc62LpLFyapYyLoc/MqdajVvCFaM43SVaEfq7oysnJ4anD3pOrKX7pax4t8FeL/hG/jmSVdX+GfiXwTNrmqX9lFcXdwvgvVtFa7vdRs4dPiuryaWy0+Q3EtvZwTXoMDG2ikuoo4zxHwh8VW3jfwPpepRazYeI5rERaZeeIdLnjutM8SJHZWl7o/izTLqFnjm07xn4Zv9E8X2EkZZPs+uJEPnidF+Wv2IfivovhDSfiz8A7/WluNO+E/wAW5LD4XarJPHOdS+D/AMWblPFnwsvohI8clxZ6Tp/iLTNIv7mON0tJZ4UnVEDOvNfA6wn/AGd/2jfEngHRJJ2/Z9+K2vXOm+FNMbzZovhL8SNWl8S+KtE8NRSzAva+BfFGr6Z8V/CPhqOSQQ6H4m8PaN4VgEdhrfhS0i+CxGGqZXiq0VTqfVnKEqNZprnw+IpQxeG9p2qqhVTnFJOMuaE0mo3+zrVYZvhMPUU6csVCLVSjFJ8tahU+q4r2Tun7B1qb5deVxjCpBtSm1+i5tkydgOML/CMfeKgHjtjPPrn1FPNrjHJwD8wPfqDxt7Dtkgn9d77KvXGMDuT0/wA8nPfIyKU2owAB+vTvxyB15PXJ9us/WntzNrz/AOGZ5iwM2rqH4emvw7amGbcFRhcZ6Y9MAEgbc9/TjIBJ5NJ9mUZBBHON2Qc8fnuzxzzyDz26A244+XPHqe3A5OP0/Gmi1HPygE8AZOR2z069eOnapWJ7N+qb9e3z/pB9RqL7D+63Zr7NvPe63t2582yjnDchcnrkc4Aw35Yznr1OAfZ0G4AHIPPI6/TOeRjjGc85rf8Asq/h9fw54GfpwMdOQKcLYA5AXdxg9+p9j6+5/On9Zfd6abvy8vJD+pVf5X96OcNrjII4zgAAbgORgjjJznAJOBnPHFH2Rc9PXaO/uQeg4B/iHpkYyejNqGwcD5Tx971zg9eDj6e3SgWw/wACQRjn6A/n1689af1rb3nppu/Ly+ey30KWCn1i/K6327Pp521/DnPs5A2nccYYE8HDcAdM4OASMA5xg85Hxr+1Xt1648AfDl/ObT9e8T6adbeEM8UdlML28v8A+0QquLWD/hF9F8RWCyTMkckniK3ji3SlMfdv2YKMBcdiecgHqRnHX6/rX8/f7ffxJ+Iel/tJeLNI03WrnRY/Al54L1XwcLG81O2iuV8QfC/Tr+W/1y0t549I1W2tNX0TXrGKx1m0v0ZryGO2ihiuNQmHwfiTnVbAcI5k8M2q+LUMDTq3ajReLfI6tTlSlyKN17t25SjdON7fd+HXD0c14pwNOurUcLzYypTtFzqqgoyUKSn7jmm1P95KMbQlaTnyqX6S/EfWjNp9nYQufLPkyyBBuEi7WdF2jCmNYo1fqeXGcYAb0n4CaI2m+AZ3fdK2reO/iNrbl2JIbUPG2sIsagjAjihtoYoguAIUXC7t2fhj4VfEzQPjV4Yt9H1O6vdNu4tVt9K1CXTLqXT9V0zVtNeOS3fSrqORpIYnZYLzTmuTdWmo6W6W97Dcj7dZj9DfgDeXWpfDm2s9YWGPxD4b8S+MvDviKCBQIotRsvFGq3lpNGFwPs2p6BqOi63ZMFUvY6pbO0aMSifhngFVvxLn2JqVFGrHKKeGdGT/AHkHDF4aU3Fa80VaN5rRqpCScoz0/X/GvL3gOHMhyqFJvlzOvjViYpuniYVaLipRdrJ8ztyu8oclpcslynoT24yflYY9Qck7ee2cA+4A475qCSBVx1G7APBwRu5UdTz789O4wesezJySFbjn73p6D9fXv2qubUgcoudpyTzg59+c/wBeBjPP9WfW1/TifzR9Tn/L+Hpfp/WhzJt1PQY4OD8oBYZ64HHPQEYxwcZFfEP7VfxF+IX7Ln9j/tDeAba11rwVJ4i0Tw78bvAuoW7tpt5ba1JaaB4W8fWuq2qvqHhu/sdRXS/DGqanbQ3tlKdR0O71XT7i2tr+4Xj/APgoH/wU2/Z7/YF8F3mo+NPEnh7VfiNHd2cGifDfUbjxHpy65LLGbyTSrrxFoPhzxO/h67v7CKVLDUI9D8Sppl29tc6/pNpoYvtW0/8AlN+M3/B0H468f6l8TfClh8BNK8RfA/4h6bdeGD4L8ZX9jpOv2PhDVrGe11W2bVNAXXbeHxRafapZtK8RWd3cWkt1Hp0txpif2Rb3V95uaYenmeDnh525k/a4eq0n7HE01+6qxVRNXjzNS5lyyhKUHeMmezk1LFYHG08RTjeFuTEUU3H2+Gm4+0pScbW5klKF3zRqRpzSTUZH9IXwo/an8OeK/wBrT4lat4ss7vR/CPxe8D+EPCsWnPJaX0NnHbXds+ieJL+FLfF5G134lvIp/Jkmj0uyuX+0h4o7pq+sfhb4L1b9nb4ieIfB6mGb4E/Ei8stX8GSxvDDp/ww+IExtdMPhuBXlVV8D/EK2Fj/AMI7LboYvD/iyxXw/e+XDr+jyt/Nv8BvitpPxn8Nfs+fGnwxHcnQPHfh230PW4ZZ9t1Yym5ufC3iezmmWS1s4NV0a71Oa1u9iFpJNPF3bLbxRxgf0U/sn/EHTvjl8IZ/hB8ZLSDU9bsdO1fwZ4gi1AmKPxHpMV3qXh+DWv3f2a5thqb6feW1wbc291pep28klrPFcW9rcp/M2QcR47IeIsNCdaNPFxrSwNWFepy/WpPETpV8uxjcnFTlWo+3wWLk4fVcXUaq+0oYqqo/0LxJwrhs14bxVXD0Z1MOlSxS9lT51QpQo05YfMcPJpy9yNRYfF0k5KvQs4clSipT+4Wt1UNhTkMTtyQxIwrZ3Y5HA/h6FcZIrNe1j3H7nbqjE9PXPPt7Vw3wv1fXdI1LUfgv8QdRutW8c+DdMXVfD/ifUGVrr4mfDU3g0zSvF08oWNLnxZ4duja+F/iVFAMjXjpPioxWuneOdJgT1xrJ9x2qNvbcoB59Q3zfn2r+p8PmNLEUaVeF+SrThOKkuSceZJuM4P3oTjrGcJe9CScZJNWP5lr5bVw9WdGaTlTlytpNxla1mn2e61ej66t8d+098QJPhF+zt8aviXZuYtR8G/DPxdq+jMH2Muvpo11BoG2TaTGf7an08eZglPvYyK/hOXUrHUPE9/O97czWuhW9z4esZ5EmYT6vql1b+FROz7X3S3I0DXJprkld8eorLM6xTA1/Y7/wVr8T/wDCGf8ABOv9qLxQJDEdI8F6Lcb84AH/AAnHhZCreqyhzEyHIcPsIKsRX8MVn4sbwl4I8W6jdTwO/hvxB4c8M2Uewxarqd/4B8J/Z/Fl3ZPcyK/2Sy8Yf275l4Y5Alze6csrJPcwxv8Aqnhbi6GEw2Y4mtKMXLF0vaOTS93CUJVaMLydmp18R8K95zjTXZS+X8Q8HVqYnA0aUW4xw8nBRv708XXhRq2ts406C1ukqcpu6sz7Q8D6m+lfEO7vUZftPh74aXGqQTOq7or68vNRsrNHYYiXF7qugMj/ADfND0R0JG38YvCGofDP4QaNdxxW2n/E346aPpPiXS4rmYRzQ2Xia91jSvhfp9+ZXithaN4U8PfD3UpIbqaKGK48R30slyY3lkHlvgSC78TePviFZ6O4jufE2ieHNG0q1nRWvIrrxV8TNW+wnMfmQO9tfaPpts6FGWJovsSjbC4k/Unw5+x98G7j9rfW/CWrix1X4Wfs92Pw21h4PiZ4hHiy58c+N9U8NaLFYw6hP4ikuor9NHHguGa40+OK00zSre9Gm2tjawiOB/B8Z/FTAcHV8nliKuI58Ng+J+IqOFw1BVJ4mrSw1HhzLISqyqw5XTxfEGIrwpRp1VVqYdSUqUaEpnR4bcA47iRY2NClSdPEYrIMkq161R040KVSpVzvGyUeWScZUMnhTqT56fs4VnG05VYW3/2sfhn8Kfh9+yl+zX8BPh/418K+KtO+G9nonwqvZfC3irQNc1jVftEfgCy8R67JbaTeXrLceL/EtprGuX1/cx+TLql/KrGZrggUP+Cg/g2b4Jftj/Ar416Xb+RpviDT7bwfLIW8uG31z4eSNZ2sMjbDvnufC7aImFcSOIJSU2IjN7N+2N+zz8AW+AHjHxr8M/h38LPD3jDwg+ma5rHiPwPo2gaLrreFnvbfSvGlkbrw+tvdIi6Dqs2sxSBPMtr7SrG+jYFMvH+3J8KfFvxu/Zb+KXwstJb3UPix+z/pOi/HD4C+Or5Jr3UvGfg3wpEthfpq97tK3vjfw7bWX9n+OpZI1fxFb2nhrxRFZxS+IbmC1/kvw58TMuyfNPCvGwxuOdLCZxxxk2eYfM6VKhVrUeJMVk2YzxdSpTrTpzhDMMdhatW9pexo1Kr92E5R/eeNuBMyxeC4/oV8PhGquXcKY7A4rL5zrUqcspo5hgaVKMKkFUpupg8Hi11vVlBKV6kGfP3/AAUn8NQ/FX4dfFzxj4Tht9S8YfDjS9A/aM8DQglbmTU/Acnwf+K12iS7lxFrXhDQ/FmmTMGZTDLcrIWGdvwje2Xw+0T4T+Bvjh8NvjL4c8H/ABl0Dxtc/wBs+DbW4vbrxfpureE7y11X4Q/tFaPp2lWmoSp5fhC70/wX8W9M1Y6fY+PPAWm6FrdrLdav4Rv7LxF9YfstfEqy+Ptj8FdN1h44IfiP4X8UfAzxNpl0S93b3Hij4ZfFX4fjSbgMW3X+l3/iDStOMFwSsb6FEqozmE17x/wTlsvBf7MXgr9qrwL8b9f8E+C7H4R/GXwtbWfifxzf6TpEkuieJvhfoXinw1NFfarEl1Na/wDCH3XhhEhiVkgmW6Ty0KEn9h8VOK6vAuaZzTwmHrZvTcOGOJcBlVGpGnHOcozLA4rhjOcuxClhsZKeBxqlhp1oU6PtozjSxVGVOtRp1I/nPBGSQ4pwmW/WMVSyupGedZNi8wq0/aPL8bhcVRzjL8VStWw6hiMNOjUdKTrcslOpCcatGc6cvzk+KXxJ+Avh7RbL9oL4FpqegaZ4zhk0n9rb9kTQfDuu2tv8K/Glklv/AMJd4z+BWupYDwpBZWN1FF4r0TwZa6h9kvNDutGuvCk8ITQNP8M++fskfGPwxrtl4n8I2+v6Xeabqes3OoaHLp+yO01m48RaPbaode8PojeY3h7xx4d1vw58UdERIoLezuNK13Tj5T6K6J7Dp/7X37DfwB/aVvPiJ8Fvj74Mk+EHxckg0f8AaA+HVs0qeHPCviTTxIPCvxc+H86QPZT/ANmT3EuleI/D1tGssfhy7n/s1p7HSdG0/R+T/aD/AGf/AISjxJD+3F+w/wCKvBnivwDod+zfHLwZ4Bv0vdC8Pau+rapfaZ4w8LWOmwta6Rp+q6l4i8aaD4u8LmCK30m98daprWjx2dpqF9b6fPh94vTy/MMj4Wz7JeIsJkGbUY4TJM5zurVr1sHDMKsKU+HMylWyzBzpPA1uShl9etWxbr0VRn7aX1yMUuLfD5YrA5nnmW5jleJzfL60quZ5fl1JUadaeFhKdLN8I1jsWq9PFRUpYunSp0Z0pvkcI+wk3X8O/E2/8PftAeA/EGp6nq2m2/ifwJoOh6pNoscTXOiaTDp8vgt20WGT/RJdU8IW/iXw/d2IupXe5/sezW7e52b4/wBpP2Mvj/Y/GD4jeG7rVTY3eq+Pfh/qA8UWUcbmwtfiZ4Iu9EvvErWdpPGqRx3t7pkHxG0HKeZaWfjiKaCUSJur+Zfxj41vW+IXw21Lw3YW19JryfFux8CaVBqIjn8TRXlv4o+IXgOx066vAFs9S1NtG0TTHlkt3t7WWQGSJIYFUfff/BK7xl4+139pf4W+LbHTtSi+Hl38T/id8L9Za+jeC58P+OPD+nfG3Tbbw94gt2jaay1iTwN4dtNIvI3dIG1r4dPYiKA20fm/tmd0MDPLcXgcRWorMsJlderCPMuZ0qOLWLwskrtydd18NhIVE5Plgqb1kz8/yStilmOBxNCnU+p18woUKlr2/fUXhK/NZWjyLD1sS4Oy53Obu1G/9a/kDPT+XHue344Hf3p/k8Dt9e2O/T2/wqzRX4/zye7/AOBt/l/Wlv15YSiul/w7f5EAi4424/P+nt2pDD9OvTn/AOt/WrFFLnl/X9f1cp4ak7XS0t07W/yf366or+T7D8z+f+fypfKzg8fh9Men/wCqp6KOaXf+v6/qwLDUltHtvrt/T+fpYg8nndwTz7+/TH5D/wDXSmLJ7H3I9uvr7df/AK01FHNLuP6vT7Lo9vT+l8u2tfyfXB/Ovwv/AOCoXw9n0740fDr4iJCp0nxr4EXwrf52yxnX/AvihruDfbEoTLqPhzxzewmfdsMOixwNhihb92K+Bf8Agox8Pj4x+A+neILeKV7v4cfEPwj4okNvGZbhtE1W7fwX4gRYwCZILey8TrrE0ZBXdpEcjgJGxHyfHODeZcKZ1hkrzjg5Yum7aqeClDFe7Zr3pRpSS/xPofV8C4mGU8WZJi01GLxtPC1HL4fZ4xfVXz3+yva8zXbbZH4vfDnxXe+B/Hfh2O0vrhF1/wATaPp+o2KKtxb3wvYtNFldhUkA0+70W+EayIg3/Yp7tZAZT5Z/d34eeI7TRvHfhrUY8x6H8aNLi0O4lj2tZ23xE8I6Pc6voMkhMoWGfxT4Htdc0lpQp82XwBpFrnzriIN/OdLp86fYNcjlFle/2np89rbWcZ8xtVhW9uLS4t2uZYbN449RsrMzSCPbNIH8+R5bVWf9s/gZq0Xxe+FNvpekailjqV3FpHinwLqr+XINA8XaPdWniXwjcucTgxadrUUelavEu/7Tpc2q6c58q6lB/mfw8zanw/xlllSpJxw+ZqrlmLqSurTqKKw7m+ZptVHGV3eVqXlBP9+8TsqlnvCmIxEU3WyfEwxtKL95vC4hJYm10pWjOlFOL6124pN3f6WGAALwMnoTk8568AdsdfTIr55/ar+NOn/s4/s8/Fn45alPpNvY/DPwdqnie5l1u6e10xVsFUgTSx3VlK8r7tlpbRXVvNe3jW9nFKssyNXs3gHxbaePPB+g+K7W3ez/ALWsyb3TZsm40bWbKebTte0K7yiZvdC1u01DR735Av2uxl25ADH8Tf8Ag4w0z4mXn/BMj4w3PgnWptH8LaXqPg7UfiSljDAl9qHhSPxPp0EunNezJJcW9le6hcafaPbaY1hc6i9x/Z9xfT2t2+jap/YEJuVSEJNqMpxTd3/Muvnqlp57I/lKWHpqPPGMXZcy93fa3W1ur8r7XZ/nc/tJfGn49ft5/Hr4k/FrV9P1nxP4iutL8Z+NrnT7RLq5j8LfDjwVY3XifWoLFrie6u5tP8M6OJNQ1IPe6hcRyPKA7xvbrX6RfAz/AIN9v2tfit4d0rxRqtzp+jWerX+iJZ26RzyznSfEHg3QvGPhvxesTS28Or+D7+71DWvBXiR9Jvo/EnhTxBodrcf2ZqOna99q0T9kP2U9G/Zg/wCCbPhL4FfD7xr4H8F/Gf8AaF8Sab42v7RvFnjjSPhbLcaf+0Hb+DjqPhrT4PEfhjxHbeIE1DTfB3hjw6ZNat/Cnh9tVs9asNJvtVh1DVLiv3TP7WU3iz4T6B4K+CXgaD4JfH7V/H/hH4IaZ4P+KOm6L4x8P/D77doMGuvJ4O8R/D3V9Y+DHxA8Z6b8PrS8134b/D/XfiV4R07WJ9OWTxS1lptsdM1f86zDiriLNsSsNw9h8LgsN+/lTxWOXta2MwmHrSozxGEwUWsQ6aUaPK40pyj7blnF2XP9jh8pyvA4d1cxqV60+WkpU8KlTp0MRWpwqQo1sRUg6ftHeonGTgn7O8JSjJxj/Pv+y3+wB+1L+wR4X8TfDP4321pqHwl8S+KpfEvwz8R2erQ3MXhTxPq8Fxp+qeGdUmi8qMXHiWHTrW80+9sY0tNQ1vRBcxRWT+L4tKs/0n+FXxRv/Buq+HvHIaS3uVu9PTUntyywSaR4svdKsdXklVZJEWLT/FdtqWrSi4P2jYmqNFIDeOG4/wCJP7E/7b/if/hdPjj49Tad4C1B/GegaJ8ENW1rxt8PfiPd+K9JsLiXUNV+KH7SHxn1iTSL3wP4a0+MaO2jeB/g34e8P6h9us9X0DwV8OoLZNNv7vxHwJrCXk/xD0+Sxuo20qbV59X0i7N3Y3WgyNe3+pGyeO8jS4jGm6zDrcpge1iiktJIlZUeeXy/xXxBybHYfGfX8wxOEljsX7PFYqGCVOjVpKUqVNV8TRpV68MNiK7cU3TquMqlKc7xm3f9s8Ns6oYzDSy2nQq+wwrdDDSxClVozU1OUcPGcqVKpXw8GppwnBS9nWUZRlRWn9HlxqLfHHwn4e1TwpqNnonxk+HOpf8ACT/DHXr6TdZNrkdk8Gp+C/E09usktx4M+Iugy3XhjxKqR3BOm3tt4i06EeJfDmg3Fp7t4C+JXhTx74T0jxTHe2vhqe/W8ttW8MeJb2z07xB4W8RaNqF3onibwtrVpcSxPHqfhvxDp2p6HevGptp7iwe4s5JrSWCZ/wAg/wBmn4yXFrdW2k6pLNBqOiw2tnqN1ITGNT062uXtrfVrUQrHCl5obx28V1F87kJ50ZeKeUxfpRqXwf8A2dPiReP428aeBtC1LxRr0dtPrOoNLewte3VtbQ2C3TJa3UMBM8NpFIZUjUz7vOkLySO7fe+F3iFPGYHE5Ln+IjHMMr5HSxMpqP1rCSahGbnN8s5RvBqV+aanZpThNy+C8TfD+GWY/D5pk1CdXK80vOnTSlL6tXXLKph7xTa9nJyi4vpyScnzpRrf8FCvhdZ/GX9jf46/DzVG26Hq3he01TxGC0arJ4c8I69pHjHXbd/MZN6XWl6Bc2zRxt5sgl2RhmO0/wAUXwV0W18f/sHf8FMNejgtJPFXhy3+E4ivdQuYNPu0W5u/F37RHj210EyQSzane/aPEegJe6WDaiS20HTZZLoCxjik/vQ+Pvhm98a/Ar40+DtODNqPiv4T/EXw5p4SVYH+3634Q1jTbPZOwZYXFzcxFZWVljbDspAIr+Nn9mD4E6t8PfhZ+058OfHnhy6li1jx54J8R+J/Dryx282taF4i/Ze8P3OpW+6Xz4mktYr59NtZWi2DUzZRSmZXQD9W42zzE5NwTi6+HqTpfVeI+GMxquErc1DAZxgsTKMldXhOtRoJ3aWlrrr+WZPktHNeKcLCrCM/rOTZzgacZLmtWxGCr0oTgnGXvRp1auyv1W3NH8+/gj8ZtWsPjL4etvB8vhoeL9Yj+G6+Ar/xWLjUPDVp441b9q/xN8NvCeoeJ7O3ki/tLRvCPiLW/D+v32mNLbx60LZdKuri2gu5JE/aL/go/wDsc2Pwp8UfsgeCLvxf8QvEOu/FnVvirrvxT+KXjHxr4kv/ABF8RPEmh2vw00SzPiUwapaaHph0/S/EviDWNA8GeFdD0TwX4cY20Wl6Ox0e2uYfxL/YU/ZT1Hxj+0lp/gjXNTvL25+H1tq+n+PtOTyVt7/4b+N/ihdeE/E+t6YZ/MjN94L+KGj2finRWina4itFuvLuLO9ewvIv7GfjF8NfGP7V3wT0T4R/HT4XeEPirNoE+j6z4V+Kngz4pa98JviRoHirStKk0y3+IGi3DfD/AMWWfh7xTf2V1fxazZW11q3hjWrLVNU0PVdGu9Eu5tPb1s38W/D2jx1k1bPHga+KwWAwUaixOG9tUxOCrV8RjPYUJzp1VT9nWxdPEOjOVKOImoRjJulKVLycv4A4nfB+af2esThsPjMbXdCvGq6cKOKoUqOG9pKHtIObccPOi6tOM50oyknZTUZ/z33/AOzJrOt+O/hH8Ofh5/wuj4b6r8WfiRH8Ote0PTfiZf67rV74Dg8TWWg6740uNH1bVPEXg680nUvA99rPiH7Dq/h27+z2emJ5o8nzGr9//wBi/wAS+L/G3wn8N6j48i0q98V+FfEXxT+DfibWdIsr228N+M9W+CHxI8WfCW/8V6Xpup3Oo3FtpnjeHwlH4gm0+XUdTisbzVL/AEddS1CCyjuZOG/ZK/4Jh6x8HviTpnxX8WXt14q8ZaOmtw+GPHXxI+IR8deJfhvBq2kaho4vvhx4J8PfCz4YfDaz8afYb5rQ+PfF+neMtRsLFry20jTra11G/trr9GPDXwo8K/CLwh4U+HngrT30/QPB1mLDSYppnvLuZLma4v8AVNS1O/mzPqWs67q15fa3rmp3BNxqWsX97fzYluWA/LfpFZjwvxXl+T5nwzk31GOCxWHnDMFl9PK51v46ruVKCjzyrWw3sbe1fJhozdSHuxX1PhNRzzhlZhgM5zD679eoYijXw7xFTFUqalGi6CpyqP8A5dT9rKb5Ur16iUW7s/Bj9o79ltP2Qfiz4V+Pfw/spF+CniH4i+BvEviK2tWjD/DL4peEfGOjatomqLZ2tuso8N/ErwvpCeFL8wxskHjLRl+2t53jm3EfzF+2v8HNI8bfFe5/ax+J9tb+IPB+tftx/ET9njUdOkhlvPCngHw38HPCOgeBfg/NqGmLEujyeLfid4a0jxf4qj8Z65plz4inl1/wf4U0TxAmmHwxpg/qH8UeGdE8V6DrfhnxLpNprPh7XrG+0fXNHuow9rqOmalbtb3kDjqhZHMkM0ZE1tdCO5gZLiGN1+aNO/ZdtrH4S+K/htOvhfxZbePdB0Twp8QYPG/hvS/GXhT4naX4GtI/DXgfxB4/8Ea/G2h6n4vTwNpXhbRPEes2L6XrGo3HhrRphrTJomji08HgnxqwuW4/hXM+L8vr5rmXCeExGTUsdCDrV8Rk+Kx2GzHCwq0p682Aq0sVh/a0lVq+yxGGlDDz9jVjLTN+AnjKOeYLKcZTy7B5+4YyVKUvZ0aGZU8PLDVHCV0nHE0fZTUZypwc41uapFzTX81Hx+03QfGkelfDjSLfw9Hrnj/xHc/DXwLo3wl03UvEurar4X8ZW6eH/DVhF4Sa90tvEXxDE1+0n9g2WoadA9jYX9zPqOlaRbXGr2/7ofH39l3wH8PPj9+zB4R+GiaZofxJ/aG8KfE74T/tB6Z4X0uw0LSPjR8J9C/Z78aDWfH/AMTfDNlu0m+1v4f/ABbt/hhq/gXxnqUd34p0/WfFeo+EtP1i/wBJ1zU7NND4K/8ABO/R/gR48PxF+Emn/Az4S+M3tL3TrXx34c+Dt94w+IPh/T9Stxaahp/gzXPir8RfHtn4Ls760LQXtr4e0y0s7qGSS3uraS3kkik/Rv4XfA7wr4R8R3fxJ1K71fx18W9e0mw0LWfif41uodQ8VXmkafK9zDpOnRWdtp+h+FdAE000n9h+FtI0jTpJppZpop7iWWeX9i4w8auHPEarRwuS4PEzjh8DUp04YrDyiqdWo41IYitUxNPDSVSnWhR+rwoQqctVRkpRu0viuGPD7HcIYWtHHYilXqYnERnUqQnR5Y04LkdKkqFWvG04ufPJuN4tq2iP4ptG0oatrv7LGn2F5/ZviXwF8W7nTLtryD57zU7PxDffDe4sbC1YsJLrTZNcOvG3tbefbothdSQww2hup4f35/4Jw/C0X/xB/wCCjeh6JBHa3Hw2/wCClPiDx/4X8l1tbSG7k+KHjP4ia1p0McFuscK6p4T8fa5o9xs3M6a3iblXMvzF8F/2VbAft0eMtJ0zU3134Q6t8Qte13TtVvvIsb3w/p/ifxlbeLdL03SNVimtln1jVL3wr4f0uC+0+yvLmSz8YxrdPBcXTlf00/4JSwWGs3H/AAUR+KWl75NH+J//AAUi+P174cvVwbLVfDPg3w38NvAen6zpcgAWfTdYv/D2sana3CZiuEuvPiZlkDHpnxjHi3ijN8bg5L6lhchy7LHOkv3UsTWnlWIrRUktakK2X1XOEneMZxk/dqK95dw1LJMDgaOJU3VlmONxiVRe86SWPoUZSv8AzUsUpRls+jutP1oooortPZCj3xzXOeKfF/hbwRod/wCJfGHiPRPC/h/S7S9vtR1nXtTs9K02zs9N0+71a/uJ7u9lihSOz0uwvtQuDuzHZ2dzcMBFBIy8DefHz4QWF7HY3fjzQoWk8Ial47e6e7RLG38K6Xo2keIp9VubtgscMUnh/W7HWrVTmS403z7mNSsDik2lu92kvV7feF+nZNvySV2/RJNt7JJt6HsNFfNfgD9qf4YfEPxBdeHtHl1e0m03StCvNZvtZsk0+x0rWfFd1KnhnwTM7zNLceOL7TLa61rVPDthFdTeGLa1urLxBLYarZX9hae/6Lrmj+I9Nt9Y0DVNP1nSrtrhbXUtLu4L6wujaXU1lcG2u7Z5ILhIrqCaBpIXdPMjZQxxQmpK8WpJOUW4tNc0ZOMldXV4yi4tbppp7DlGUJcs4yhJxhNRmnGXJUhGpTmk7NxqU5wqQkvdlCcZRbjJN6tFFFMQVznjDwxpvjXwp4k8Iawm/S/E2ianoV8NoZlttTs5rSSWMMQBNCJfOhbKlJUR1ZWUEdHR14NRUgqkJU5JSjNOMoyV04vSSa6pq6a6jjKUZKUW4yi1KMk2nGSd001qmnqn0Z/KX408KXHgybVvCGqFrPW/BfiPTtC1y1Zo5Q95p17rOi3lwrRhfNN5JayXsLyBIBbOGlMa+Uq/Tn7H3xjtPDnjyX4bXc0Vg0t3e6j4SP2h2XVLeeW61LWtFhVwqJf6HJK2q2kMe6O80m7nWyLjQr8r6F/wUo+Fq+DfiVY/EqzAi0j4st4f0+bc0UNvb+NfC1tqMGoRox2H7Xrvh+TRb+zhCSPcS6F4iuWJ/e1+aWnx6nZa3DqenXEkGpeH9Q0S80i/Xyzd2Go6eouxf28Unls7pJdR3BjmKx3iCW0+eKUqf4z4ryNZFnWY5dKc6ccPiPrGX1W3zRhJ062FqRlL47RqexqKLbkpVoR5ZXa/rvhnNJcR8P4bEctOr9ewbwuYUYR5lKradLEUpRafs+WcFiI2UVCSpVWuRpVP6J/DHxf8P/CX4y674R8ca3pXhr4ffGyzi+Jvw28S63f2Wj6BY/EO3m0vwx8VPhxcajqF5Fa2ep6vqc/hf4geGoJWibXNS8YeLbK3H2qwtYbvr/22fhfpXx5/ZA/aI+Ft/FDfaf45+EHi+ziZEtrvbKmky6npmqWCzBraW8sLyzttT0qTzI/9OtrWSK5tnCXEf5z6zqnw9/aj+BGleHviXoGkeKPBd7rcHgP4w+Gb1ZI4I9E8baXH4G+Imnafdo4vNLutOXxJoPxA8K69aTQXel614R8J6/a3ME9ikifmb+xj+3d4g/4Js/G34zfsP/tafF/Uvih8AfAniix8EfD3xl4ssXmvtHhl0fUQrtr0lwraRZeMPD+g3HiLUPDesLc6BN41vNXtvD2r+HFvDb6r/QnBHGuE4ly/AUKlT2edUqUcPjaLTV8TSjFQrQulGaxNNKtzQcoxlKFNXc1b+f8APeBcdlbzyvC7wmXKGOpe4uWpldSrGhiKimpJxrYHE18NSnSdNudKrOs5RVB+0/Sn9nz4J+GPjt4E+C37Qc/w98CaZ43sfEWhePbzxRqnjX4iavap8X/hfpD/AAck+Jc/wo1fQ459H+Iltong6y0SSDTfijY6VqWn6fpranqGv2tnaSP9Dw+G9Kt/FHxJ+HfijwA3izwz4s1jwX44uPEvibRtJ1/TfHfiy30R11fxl4h+1RGxtNX0u/0nS/D+maLp1hb6X4d0/SNEbStPs7bUDJJ89/su/EfSPBSaj4B0bWbbxL8HPiP4m1Xx7+zT8ZdIuLq/+HvxX0XxJFc61q3hbSfEDg2+m+P9Di0281XVPAN28OtWog8TG3sRZaHM4+lvH3xC+I2hw+G7f4bfC6X4ma34gv8AUrW6nvvE+keEvCPgmxsdNlvE1jxVqd+8mo3EWp3pttI0rTvD+majqVzcTXF1M1paWUryfk/GefZ/WzSOQ108orYeM4UPeWBpRw3uPmo1ZzpU1SnSw3sotSabjKEUpJQX0nDWR5dDBf2skszo1nGM0586+sSVoKqnFrnjOopt1dLS5pTs7lnUvBXgbTdIvZtP8JaFb3djp1ydPuzYQXd1pskUAZH025vxcTaa6BV2tYtAVHTjiv5uNQ/aJsbL/gpX+0n+zn4zktrC58S+F/hx4r+Ft7q+yGz1lLrwb4dtPGvh+AmBv7Qnhu5pr13JeZ7TWPEV1JJtg31/RP4r8S+ItO+Gc+qePNO8PeFPED2cw1+20XxJLrPhvTAjukt1beItX0vQJf7P8nZctJf2Fn9ldjayTXCx/a5f4Vv2+fiprfxB/bl8IfHXwb4jW78F2Hxj8K6P8JPiN4TdZxfeDvC97Z/A7xvLBJCsH9racfiRpNq8M8s0lpqFndXkFuXsj8/yHCWWYniTPs7weLlVr04ZBiKMsxc5V44fGyxeFq4F06j5oVpzqUIxlTU+aphnXlFSSV/1WlWo5HwvSzHCxo4ess6o4rDYNU6UJYnD4LCVJZnTmpNOjTWEqVZqrytfWaNCm7QlNr+l7TVNteLHoV5LY3AsptT027mSD7Rb6ho0ulXsnmPDN5bJb/bpLe4sJBMtxbGWwvfmuWQ/S/g79rO0Tw1pMd/qes6PewwPBdaZH4f1rVoLOeCeaKSK11C3s547mzLIXs28wyJatDFOscySRr8HfBzxbJ4q0fSLbxNNb6R4q0+8vtH1WOymd9Je8fwzf6e0+nzrKEi03X4I/D+vaJcNJKmoW95JCkj39hfJbacHiDUdH8/TCk4FlfajAmy0GwxLf3PksvmTLJh4ij/Oofn5snJPyn1KdKtXoVXWjWozUVWoV+Tnhz1IySqqnVjVpyUKMotRSb96MuWWv3axWGxeHw2IjDD18LiI+1nhq2FeJjRr8tGUJOnenOjWXtcRBxc3yw5ISXNG8f609Qs01CxvbCR5Io720ubR5YSFljS5heBpImZWVZEVyyFlYBgMgjivzF/aN/ZosPCeoan8WtD/ALM0vSbvVrLRvFEl4EOnWmjyeEvhDoXgrxd4gaSLZY6d4V8cfCjRNL8VXKI1hb/Dzxt4v1e+RE0+TH6i1j+IdA0XxXoOt+F/EmmWmteHvEmkaloGvaPqEIuLDVtF1izn07VdMvYG+Wa0v7C5uLS5ibiSGV0bIOK/unO8qw2eZTj8pxi/2fHYeVCbSTlTbcZU6sU9HOjVjCtBPRypxvpc/hjBYuvgMZhsdhpcmIwlaFejJrRTpu6Uu8ZK8ZrrGTXU/lV+FXgrwH4B/aX8L3SaG/gD4k658Kfif4E8Y+Ctctr3TdbXxJp3i3wP8S9OtLe2mgXTL99H0fRdd07U7/Rbu6t7k+FIfEcZmsfFdnfXP7ufCK+LaLb3NvIquhKgbtwwSGQY6jajoo7dCODkfyef8FXf20v2pv2BPib8Fv2Z/H3wp07xv4L/AGe/jD8P/jh8NP2mp9d1W68b/E/9njSbrX/CFl4E1TRZ9PFla+MofB/ijU/hL8Q/GcOrXkviV7PSb290uC+1681GT+mL9nD4g+GfGPhPQPE3hHV4NZ8HeNPDug+MPB2tQSK0OqeH9e0631TSr2LBJDXen3dtMYyS0UnmwsBJERX8W8dcK5/wjn2R5jmfO6eMjiMHhcZDE+3i/qOInKhUhUjy1KUK2GrUZ0KNVKtSVOpTblyNr+h8kz7LeKeC80wGCoqli8rxtHH4jDKmqfNHG0qVLFNQcpqXssTSmqs4WjU5o1uWLqRT+6YPF8yxLDt+dl2tKzZC5Xb8qkE5/lySOlc9qN/LO7SP8zAl2YtncQMAnknpwdowDkhaxIn34LHGCTgHoxHqOCeo54IOTgHnz34tX3jXTvAWuX/w60s614vsX0q/0/Rkkghl1W1sda0+81nSraa6ZLdLrVNDt9RsLQyuqm6uIcvH99TMOJs5zTD0qGOx1SpTpqCpRlLkpwtyx55pJptN806kk5JXvdI+Ko5XhqNbmo0YwlN+93vdO3M37unS6inbZs9V+0RTqm3kruEh4O4jkbQckDB45+nLVDBNsMkR4XL4LEcDP3DkA4G4kHrjPBxmuM8M6zqWqvfTX2gahoscM80Nt9seA/bYQw8m9hWN2kt1nRstbXKw3UJjKyx52lupJG85G35O5weT93aTxkc8Y4C5GcCvm3iJ1lGtfW3LK8OVyVktU11O6rgvq9SeHna6UXdSjUUZO0tJRlKLacktHonbozSVw0gYHIB+XPc56kAnIGDx1wCeork/2gPiufg18Avit8TIQ8ureHPBWpf8IrZROkUup+NtaWLw34A0O3klzHHda/431jw/otvJINiT3sbvlARXQBgiqCxyM89cnpzg/MRkn0zn61/Pj/wXj/4KVz/sn2n7L3wX+Gen+FfHXxc1z4weAvjz4r8FeJri8fw5Z/Dz4V+Io7/wJbeObPSLuw1P+zfGnxVg0bU9Pt4tQspp9P8Ah5rt9mS0tyJf0bw6+uYjO6eX4Om69fEw54wvywi6MHUc6k7PlpqEZxcntzJb2Z8zn7p0MC69SSjThNRu7K/M4pJX3crN/Jt7a+lftUWfxA/Zb+H2leFvh546ufG37dfxs8CS+EvgF4D0LSdFg0L4KXF/oXgv4N67+0FrUmnxp4n8V/8ACOX0nhjwZ8KtT8WahHbv4+8TNc6Zo8rN4ivNG/dz9mn9n/wd+zF8G/A/wc8DxbdH8IeGPCmiT3bB/P1nU/Dfg7w34QutfvWkeSSXUdcTw5DqeozyO0txfXNxPKzySu7fj7/wRO+CPxV+K/gLx1/wUc/bJZPGX7Qv7XOvaPrvgh9Y0m3sLbwB8B/h/fzj4RaJ4S8PAyQ+EdFnufP8V6Ro9u0kixzab4hvby/1/VdS1S6/fuv6r4fyOjw7k+Cyqm1Ur0acamPxCjGDxGPqRTrzcYRhFKm7UYaN8sFKU6km6kvgMTja2aYvEZhW91VptYekua1HDLSmk5SlL30uda+7FxjvFhXy/wDtQftU/Dr9lz4f+IfHHjm5vo49J0a/1CzjtNI1bUoL++tYg0ehpeaZY3trba/dJILnS9H1GWyuNbjhmh0wzzqyp9M3Unk280vzjyopZCY4ZbiTEcbN+7t4Faa4cYysEKtLK2I0UswFf57P/Ba39szXfF37Xur/AAU1fxr4t8TWvgu406C20a/s/AHhN9G8Y3CRXMljc6L8No2EdzoenXllBdaZ8S9b8Z+M9EmlgstabwtrEh8H6d15hiKuHw1SdGm6tXl9yCV0m9OepeVNKnDedpqVtk9n6/D+W0M0zTDYfF4mGEwftIzxVWc3GcqUWm6OHSpV3LEVv4dK9KUIyfNUcY6vu/jn+3z47+MXw28I/DHxX42uYPCvh9da0SfTtH8nXbrxbZ3uqxalLqeqvfKEQ6/p2iaR4bQIplsdC/tTT0lA8Razu4q3/a51XxRDfQ3Opz6lZS6N4c8LadceI9WigTSdF8MaZYabo2jaVcx+dq9notjY6ZBp1z9i+1ap4jsrW305nubYtcQ/krZXryXJiui1zciVo40854Va7lyNrRIyu5t3MjsXHmGQOJWKwsi9tDqFxZtp0LtG6SNcXMqwBDL5bTeW9vbIJUgcxmOXekk6vcSbF2yrhE/GsfQzCvKSr5vmNSo2paYqdCKUIqS5IUJUm53hFRneMnNOWs+eR/aXD+M4UwFGMMHwXw5hKMH7KTq5dh8wxUatafsKnt8RjqeKi1UqYnEN04Rk/ZzjRi40qlJVf3F8CftLHUdY0ePxJrOs3l7p3gy38MeHfDuljTNE8M3N/c3160uq6zoV94t0nV9SuLo6trd94j1OTULnVvEcs1tpmpm30k3NhD+6P7LH7cenx6Omq6n4Z+Oni/V5vEOlfD2z8NaZofgzTfDz6vexBNFsvDvhfS9QfxDe21vp9jMvhTw14TsPEFh4e8LwXfiPxHdyX2oaprNv/Fh4Z+KWqaA2LbVZlso7GTzDc3FpZ2sFmu64gvxvtLcR3No80NzulaBMD+z755lkAl/Qj9lL9r7RIfGnhHw1NrkPgvxNoviGCGD4seGvBdx4u+MVm3idbWyHg/SvFOn6xoOpaZ4J8U6wkU91f6ZY32u6Te6TNb/25p9hDJFF38I5jmmV5jSweNxCq5VVjySnUpyrYilK1sPH2knCWGw0G4whRpx9hS9pOSp+0rTqR+T8YeHOEeJMhxOdcP4KWF4pw1Z4lUKNalgcDiqClKtmlb2EPbU8xx2Ip+1xFXE4mX9o140KHtMfDCYOnhq3+gTG5dEcoyFlVijfeQkAlGxxuUnBxkZB5p9ef/CufUbj4c+C5NWlv7jUj4c0wXtxqkGt2+o3FwlukclxexeJJJtdS5uGUzS/2pPcXTM5drm5Vlnk9Ar9hjLmV7rvfuvTone2/wAz+Pteu/UKKKaWCgkkcAnqB0Ge/Tjkk8AcnilOdrWf3avotvmB89/tSfA+z/aB+DfiLwE6wJrkM2n+KPBV9PtVNP8AGnhq5XUdCkeVlcQ2mouk+g6s4VmOi6xqUYB34r+ZLZc6Vc6vb6ml1ZXVv4l0PR9R069D6beWl5aNZ2etwXXyZsbmyu7a/tLwvhUltJYt+VxX6gftZ/8ABwH/AME3/wBkLxtJ8OfGfj3x58RPGNpJJFqWlfB3wFd+KrPTjHJ5ReTxHrN/4X8L6hFI2TbzaFrOrR3AVjbvJtYj8J/j7/wUb/Y4/bF+M1x43/ZE1/xxDf65d6J428ZeGPiB4NvvAr2fiyyK6brttYxyzXGm6taeLNFs7e/1ySw1C/XTNRTVdYaSC/v7C5i/JPFDhKecYDD5tRpqOJwP7qrJqPv4WtNTjNq/N+4rJS0XMqdWpK9400/1jwp4t/sbMa+W1eerhMW5V6UYKTVLF0aUozd0mnGeHc1UTtHmpwu1d3+yPh98YI/hZP4vinWyvNB8ReHPE01zYXEk0djceK/D8nijVdKmlmaOfyItS0rS7nQbiX7NLLdfZtFmUNDCHP4Af8FTvifHqHxI+Pvj2y+zzXSS/s7ePLu1kVZ31W7TxF44iu9LkdysqvJpH9tQwuDKNljOJotziRf1p8WX9r4n+GnijVNAd7XyYbYRWr2pu7i3e2uzI9kbu4aJ7W+Se9utOuZ2lSK4jZGkSSykiaT8Cv28YYpPiF8YtGltzCNU139nbwwtxMJGkMHiDwv+0bq1tbi3DyRo7SyQ+czskiNHuEQlLV+aeGWCjTz6lilKdOtTxWFw1Wk9nCli8BFXguqjWUE02/Zr5H75xJiKVTJeLcH7GniMNiOB+IMVTqpNShV+r1sZF05L3lBSy+Puycb3tKCqRTqfv1/wbs/tTfBn4v8A7Pnjf/gnX8fb6z1HS9f+LPie7+Dd3fajdaFqb391oOjfEDw3ovhrXLGa11DRPGcWk6bqHjXwFrmkajp2u2HiHwd4q/s+Vbu10x5/s7TP22P2htB8X/FH9j3wB8Mrn4+/tbeGPiJ47+GPwc162S3svDniDQ/CPje/8KXXxT+OwtY7ay8E6Z4H0RLPX/Euu28dt4c8batLa6Lo1poeq6hNpdv/ACT/APBL79iL45/FbTv+F6ad4+8UfBDSfCHir4QeLPB3xA0+R2gvm8O+LDZX+reHRaq+fE/w4s/FEGo3EF3La+T4Q8Xw2tylrpniVdXtP9CP/gmv+zx8M/hL4H8efEO31TVviH+0V8VPFNxqX7Q/xo8Zwacvjjxt4lDtqdnbKunWNjp+heEUTU5NW07w5odtFpEWsalrF5JJf38k12f37ifhjJuJpYSePwzrRweKdRVYOnGUpaOdCFanUdX2FapBQrUnFRkoVHFKpyVD+VcmzPHcKyrWxVGU8RQpyllThiW25xTpSxcalGnQp8kJqcJUa0606dSFNcinPl/Hf4tf8E9/2kfHWtTQ/ty/tba38YNORIpdR+HHwztL/wAL+AY0u/IDaLG96tnZpZQzucTp4SuJyhK2+oWu8Sj8kf8AgsL8I/Bfwt8Pfsian8N7PQ/A3w6t/HPxp+CV1p3hyCAWXgq98M+NbHXtIR7IPcRpqNpea1pviKR9Sl/tXUbuK0v7xbmK6M039RP/AAVG+Pvhj9lD4W/Ff47+LZbEWHhXR7I6Np91JtfxF4nv4UHh/wANwIqG4uJNR1G2Tz4rY+eumQalNG0TxCRf5DfEXjDxj+1N/wAEsP2s/G3xVEOpfGX9nv8Abz8NfHnxLe2qrJbap4X+K/hDTI9W1SwijuLiCx0q9g8B+FdJ06x+0XUGl6XcW9msxWRbodM8qyvLcuWGy7B0MNKooYipGjTipcq5Yzqty+KVNTc2lzWfI5QUZ3PqMkzvP88zSji80xrlleH9tltDCwpUcJgY18xpypUcLDDYOnRpU3WqVIRlVqRVSpRVWMK0pRsv0L07Tm1bUbPxZoh1RI7qw0vxLexzQbnuL1r/AEvWGura3It7Se0sL7WU22EFq/8AaTec1rHHqDsmpeh2PiptVtY768s/F1zeStMl3c6HrTwaRc3NvNJbXFxp8eoaja3wtp5YXlQ3kC3D7y8zSuxlfxr9nbxTbeJPhH4BvYtZSBrGw8RaB4hupJWdrNvDOt6No1lbTzwXMUtxBNpfhXSjCbhWgNuTvnaNRIPXLyHXEu7n7N4i0CwgknluIbK708yXNtHcubhYZpPt8XmOglwX8tCwwxUE1/NFagqmJq0q3s1Kk5U6bruqpezpVXRfvU4Sc+ZxUlJq3Ioq+kT9frUauT1cThITq89HEzpVvZKko1JQk1Cso1pLlUoxk9NXzX1td/2q0UmTnGOMHnPQ8YGPfnn29xS1/XN/66H8nH5t/wDBS7/gnj4C/wCCgnwZ/wCEO1uOx03x54dsfFFr4K8Uy20bXFrb+LdGl0zVNJmumIlt7L+0ofD3iu1ki3SQeIPCWjOB5El4k38jf/BHz/go/F+yf42X/gn3+1xqU3gPSdH1xLT4E/EDxXcraab4E1HXZkub74M+OdQn2waX4bk8U3GqweA/E0jJp+i6jPeeGdbay0y60i8sP9Aiv86n/g6k/ZO0T4I/tdfCb4yeFdP+xeGP2iPh34tudXQJDHbJ8QPB3jjUNU8RxwxqFjWO60r4h6Pcxq0bHbDcptZY1x87xJwxlfGeT4jIc2jNwqL2+CxFKyr4HFUVL2eIoSf2/wB5OMoy5ozpudOUXCpM9HJs5x3DuZ08zy+pGLlGdDF0Jq9HGUKqhGVGvHrGXJGCejg3Gcfegj+5vQtZj1G2TeWjuYwVlif5ZFYAcMrDO8DgDJDfKy/KRXJeLvjJ8N/AmtQeHfFniN9H1m80+HUbWzbQfE17HPZzXNxbRyLqOm6JfaUJGntZ0Nob4XsYVZJbdIpYpH/h9/4I4f8ABeG++A1x4W/Zh/bT8R6hq3wgt3ttB+G3x51W5vtW1r4WaeNkWm+GPiPKxur/AFz4b2PyW+l+IlNzr3gK0K22oR6n4Rhhfw9/c7ofie08XaFo+ueDvE+n32k61Y22r6Rrmh39pq+geIdJv4VnsdU0rUrCeaz1CwvYWSa0vrKe4t7iJw8TyqUI/j7iHhXOOD8fLLc5w9SvTfN9Qx9D3MPmNLTklTnOM1TxFOPK8RhZv2lOTV+aEqc6n61hcZgc6pLF5bVjSi3F4jD1nzTwM2+aUZ+zjNzotx/dVoQd4tc0YSUox4e5/aH+DFjbG8u/iBpVvCoYGR7HW3k4BDAW0Wly3TkbWUKsLSE5CAnBr1zSdVs9Z06z1bTrj7Xp2qWltqFhcmKeEz2V3BHdW1x5N1FDcwCWGSN1iuIYZ492yWKOQMi40Nt4sNxuuvEdwqjH7q1ZxuXqRvbyhkADHD4zgjivlz9pL9sXwx8E/FPhb4EfD3w9c/Hz9sT4oW8j/Cr9mfwlq9vaeIb6yBUXXxI+LfiIwXll8Gfgn4dWVdQ8U/EbxVCpntQbDwjpPiPX72zsH87L8vxebV4YbAYHFzxDlJSU5UpR5Ix9+U+WFKNCFJc06tatUVOMNXyJXc4+phsvh7WvjMPUhKMf4SqN810+WLqU6bqTk2uWFOMrSTb3Z2f7VP7VPw9/ZQ+GknjzxpHdeIPEOuXsvh74W/C/Qp4F8YfFnx08KvY+FvDscx2WOnwGSK98Y+L79Y9A8C+HBc67rt1EiWlre/xi/wDBOj9lz4s/8Fp/+ChXxO+OP7Suv2Mnhqy8ewfEL42DTE1IWEvgjwa0OgeCfg18PpCkculaFqNnrsHhjSDeSw3Fn4X8Ka/rd5HP4gmSKb+irxV8GJvFej/Br4g/ETxxbfHD9ob48+OdTm8d/EuPS59F+Hfgv4efBbxlqF23wa/Z+8NTS3E/gP4KP420rSL61lu2uPGvxcvLaLxh8TtWudTn0zT/AA/3v/BuV+zSPgx+whp3xT1KxltPEf7Q+vX3jQi4MbTL4U0XV9c0jwvF8saPHFIJNS1BE4SSK9hlG9BEw/pDwnyXDZFUz6Lj7TNsMsBQq4y/u8mLjXqqlhlypxo82GnzuaVarOFOpUp04qFKn+c8UVp42nlVSVlhcSsXUjhtuRYedGN6ln71SXtKbk7ckFzU1zNSk/330vTNP0XTdP0bSLG00zSdJsrXTNL02wt4rSx07TrCBLWxsbK1gVIba0s7WKK3t4IUSKKGNI41VVAF6kJA68c4o3L6j86/YOeyS/Prom/nrf8AHqfOHMeNrLVNS8IeJtP0WfU7bVr3Q9UtdOm0XUrXRdXW8nspo7caZrV7Y6la6NfSSskdtq82n3q6ZK63wtbhoFib/Ik/4KE6Lc/Az/goR+0r4a1K4sdRvPhx8VfE2jzzaFZajpXh9Nf0y0t57iw0O11a+1fxBqWiWmt3E9jYeIPEuq33izxnaq3jjxNez+KPEV9Kv+wESB1IGOef8+v8q/z2v+C+P/BLDxVfftRfHL40fCq58Ptdx/CTxJ+1B8StD1/UorHxJ4+s9Y+KOmeErm48HQW0D2l34r/tS/8AFE+n+HL+8t5bjwT4Y8OaRoz3mtoLW6ieIwtKjXeNqQp0JxpwdSTsoyq1YUad5JO3NUqwp3tb94uZqKubYaWJhi8LVwik69Kp7WmopN81Ne15uVtJ8ig59dI3SbVn/Pzovxy0uLRdL1gSrvsIm86ZWBa7h07SJbzV72S5dcR3NxdxxwPDOofzZrMgiMM4r3n7S8ka3r2nhfUr3QNCvbOyS/Nncfvbq50uO9mnM9uT5JSK11YaPA0sLagl1BdNlciuW/Z3/Zmvfij4i+G0XiO6j074Y+K9S+Itp4iu57y20bdZ+EobJtVhGraxf6ZpEc+q6lf+GPDtt5uo2M8moXFvbmaIz27V+6nwb8Nfso+GNL8NeBfi38KfiH4V0XxB+014O+KXxH+IOg+A7n4qfD6D4e6N8ZtT+Lfijw+Lj4UHxxqeiwx+D/AH7PXwU0qzhh1qKHQtH8f+IL3WIYfEF5by/G5usry2VScsJWx84v8AhYVr2lOlCrJSko/FUqJRqJ06anN+0ScU5Rt+iYHi3P66p08JiqOH5leo60PaU6k5UqCUEpPljT0pe9LkjFwXvctP3vxP1rQ/2mIvFHxf8I674WvtD1T4X+DfGHjTxjotzcFzpXhWyj8RrrMlnCrsdTvtNsdBu7oW0L7JZPCmuA+UYw43fir8Lfjt+x98RdL8JeKNYhkubTWPEnh9de1XT78aVZ3vhDx5c6Vcx60SzPqWl3Xh/U/CXjJ/ss8zy+GPH2lQLKNRVlX+oj9o/TvAWmfDbxd+2d8NdEtvH2sfH/4beMPhdoFvrPw+8aLpeqaLrfxh/bG1n4kfETV/DV7pWkeJNX8PaF8O/jvpf9lWVtDpv/CW67H4V0myvLLS9Ta/trPwo/YJk/aB+B37KvxN+KF/YeJ/CXiT4t/syWms+GfEHhvQtd8a6t4v+Kvxx+FPgeez+IXxPtL/AFiTVb24+A3guTxR4r8GeH4NF8IeBNP1/wAFeEYrDUfFEXijxRd8vD+cRzidCrTyrD0cvVeGCxkcQuWtLGw5KdSFKFRc7jhcRKpGcdXJyq88o+xnI87PKub4Pnnic1xk8XGLr4WpSnJQVOu3VjOThJRTr06cJraEYqnKCbqU+X+vP9j3UL++/Zu+E8WteE9c8BeItH8KWPh/xR4H17XtW8VTeEvE2hhtP1vQ9H8Va7f6rqnifwbbXsLyeAfEd1qd+db8ET+H9SjuWjuEVPafFXxA8DeBo4pfGXjDwz4WSeKeeH+39c03SWmt7TyzeXMMd7cQyS29kksct7cRq0NlA3n3UkMIaQM0jR7b4f8AgXTdC0O31HVrPwV4StdI0ezeeKfVtStPDejpZ6daPc3DwRT6jcw2cELXE8kMctzJ50rRBmYf51n7V3xs/bz/AOCi/wAffiHdfDHVW8EaX4FGqeHfiB4y0gppKXWu2MU3iDVvAnhi7+1anrkHhDwHpNqNGlh8P6nBpmr6vp2o65r9xdahr+nW0X20qtGjCdWrVp4fDwd5VKs+SEU7KKu9N2oxSb6LZM+GSq1JRhGM6tWd3aKbcpK3M2kru97+7F+iWq/0cdN1zR9YkvotJ1Sx1N9Nlt4L/wCwXMV2tnPd2VtqVtBO8DOkc82nXlnfpCzCQ2d5aXO3ybqB5P56f+Dkz9tbx7+y3+xn4X+GPwp1DVdE8cftQ+N7j4fax4j0aO6OoaD8JdD05dT+JAsbmyIurG/8VC+0DwRFcQmOd9N8Qa0LKWG8WCeH8p/+DdH4p/tQ/s9/tqfEj9iX9obxF4qn07xl4O8S+K9G8NeI/Ger+JPDtv4o8MXSnUNe8ISXk1/p73t5bWFxaX72C2H9qQSmTULt7zR7Oyn+2/8AgrN8Wf2ev2t/27v2Nv2ItPvk1vxJpvxNE3xD8UahDfXvgHRjD4W1rxR4f8DxRaFqWk6/q114n1WPSYPEOsaTqFtY6MJNCt459QvJri1tYxGMo4SlLG86rYejhqmMjUi4KMoU6Mqylfm5WrRbve1k5NRim43Rw9bEzdCMHGaqU6dTe0OepTp6tK653VhGCaTlOcIK8pK/84Hi/wD4Ki+L4fiHoniL9ob/AIJ8/AvxJ4fbwT4P8ReEdEi8AXen+JvFGt+BNSg8P2/iPxh4shvNS1RtNnt57/RNX8MWNxo+haYNI8N6ZZWFvNp/mJ8U/Hz4x/BH4X/FL4a/tNfsoabc6J4f1z4s33iLxb8JfE1vNb6r8PPtXgyw0PxD8P7y2ntIba+8Jata6h4qu/CHiKa3jutUtraS41C187S4573+0K5/4JuS/ET4RzWHxE+Hfw61r4r2FvdeDNO0KXxDb6rBZeCL668KWd7czeM9LtvBtlrfiDW7Tw/rupW+s3Gj+B/M0/xvf6jrmjw+MtHu4de/nV/4LB/8EvfjV8Jvg94G+NPibwJong5/Enj/AFL4eWml6D448PeNZ9Y1XQvD2tax4Xk8Tz+HPC3h/Q/DWreNdBm8aN4R05Nd8Vy3WpaBBouq6rpOo6zpenS/IZbxZl3EcauG9jQ9nCpUw2LlHEUqtCcGoxqS5FK9fD8kot4iMXBKMpxnKmrx+xy/IMfluYU1TlWjia+ErTwMYxlGpVr/AFf2mGopuDaxNedNUsPh03VniKlKioe0mor9EPhX4j0yTVJ/D9pNa3/h3xfBp+oJEYGumn1qC20fW9RmjhlgSKxZ9PmvdFkQwOb280hZLd0+yv5v4Cft5+NlvfiJ40urNY4ReftQfBbTLS2LmSe2sfCvw08ZapaabHLtgNzJHB4+0yS4mcNme6j88RySmST9Yf2XfiAsv7Pfw1+KNwtnJf2fwz0jUdWtVfUNEng123sNX8M3o8Wy3cU63s2ma7Bturdfsd3Hf3FyLhYntp40/nw/aJ8Yp4q1T4e+JLOa4FlrHjvV/jIZ5jvNv4Z8TeKrb4cfC6/lKlXZrvwN8FdH11WRAwi19ZoyIrpXf4ngzJXh+Kq7hGTjhqkadWd1aeIw1SpWU2tE3OGBhFTSUeZqzafI/wB2lmdJ+HXEONxdaNKpisNh8nwFNuEZqhmUlhcxpK7l/urzXBznTb5lCo9G4ymv3y/4TX4/fAzwJ/wTl+Ffw3+I2lfCb4I+OfD3xD1PxZLqWgWsmi+NPiTBq2o2t/4E8SXLWN3cSxeMPA1tBo2j6HYvbpq2vXGkC4uLOJYNR077S/4Jvf8ABwb4R+F11fL+2t8PNf8Ahl4Y1PTZvDmq/FDwNp2peK/Deo6v4R1O8tLDxLrPh03F1r2nfZUj1/TPEFxp8l4Yb59OtU0dP9HL/Cn/AAUy+A/xFb9nf9g74w/Duy8UeI/DWs/Cef4fa/oHhqzl1Sxs/EviHxZYeMvAHiaW1j3m0ltvGOj6tp8l7ATqEUEVpDYec8TWlx8DeGvE+reEfgd+3Z+zF8R/jbqd+vhbT/G2raT8EfEVktv/AGB8RdD+K+havdeIfCl1daSG03WfFOkXOsyeIDFqGl6leltZ0u4tdSuJZdPT9djiqqjGlL3qUsJh6tuWc+aMaVLm+Bx9lJufMpvnWsIR5pylE/KcXw/lmL+tVv8Al4s9zXAScZwwjo1Hm+LdKceaOJqY2H1aVKFSkoU+WjSlUqOiqUax+pX/AAW9/wCCg8P/AAUa+I+hfs0/sweFdR8Q/Bzwb4e8S/GO+8b6zoup+FvF/ibxT4A+GfiLxrca/wCH9P1/Rhq2jeCPCXhfT7qOO+8mwn8RaxqhjMjW8diE8l/Y+8E+PvHOof8ABQT4b+LtBaP4e/tLfsb/AA7+Pfhi68P6ZcHwvp9j4t8NSeP/AIVeVe6TBBodlfTWa6xp9lpkr219l7jSbaCY6JqEkPzz+1ZpXi7wX+0J8HvHX7P2k6Ivi7wj+w5+z74l0fVvBc0WoQePdE+JPhXT/DHj+x8SaDbX15otvrniC5+KWseC/Gmga6nmT65olhrMOn6EdZWzH9jnhz4AWn7Pv/BL79ln4NT+ZqGp+GP2ftNsfEmoXelWWnarfXI+HN5qU+m6n9iNypXw82v3uh2nm3N6ILOF1R5HnkZzDUlimo1qklNN05cmsIxcW6rhGbnLlnCEacZuz9nGpG6lao+LNMXS4fwtL6phaVWhWoRlg1ief60q1JRnDEYitho4ejKrh6sqGLVB1a0VXr4epJxw6eFf8YH7H/7WVx8KPDrNrMdpq/w6/wCJBc+K7m4nv/7D+HHj7QNDj8EeNvB/xM1XSdP1+/8Ah5b+JdS0mDx/4L8VeJtFk+H/AIq0/wAQtp154g0HW9AiuJv1Csvj78KPFFpb+INL0XXtasNVhS6ttU0a++HvijSrtGUKWsNf0z4oSWWpWsbq0MU0LAosfkSpHNFJGv8AND+338LPiJ+xv+3j8X9D8Ma34h8Cavo3jS91LwzrvhbUbnQ5r3w7rEgurdLeewnUTaZKWmS60y9eWErKYdQtX8zbXjEvxy8TarI2o6t4J+BWs6ld4mvtW1P4B/CubUdQuSAJLq+ntPC1rBPdzMN09wsCPPIWmmLzPJI3xWO4Bni6scwwlbDpYiMeZVI1bwu1J0eSlOnGU6U04VK7q3nNNSpRd5H6jX8QOBsRzYbiXJ8+p5lhqrUsXlGKwlGnmcLJU8wqVMwwmPUPrdB0q9HC0MBTjSo1I1JZji1OEY/7TNFIckcHHvj/ABpa/S6jst7Lr+h/M4H36V/MN/wck/BnRPjL4b/ZO0fVdL06/nj1H46WlrPfQl2sUvNO+GFxPdW8glgeF400/EUkUyzC6e3CfIZWX+nV24wCOePpk9evT19q/hd/4KNf8FgtU/aX+Klv4e8H/Cnwha/DD4LePPiPpfgjX9V1/WbvxB8QdEu2h8K3mra3apZQaVotjrkmgxa5pmnWsWpyxWFxaW15dyyLdpJ5+KWLdDETwCUsTCm/YpyUFKo3FKPNK0dVfVtR0s3Zm+G+r/WaKxTlGg5r2jjFzko/zKKabs7PR36o/lq8a/sKfFvQPE93pOgaros9td+IF0XQk1ye9tRJPcSIttJdX32VreztYmnhtby/vysOmCWC91IQWcn21/1F/Zb8Y/8ABez/AIJWzzeGPA37N/xi8X/Ca31Fjqnwn13wXefHT4KS3D3apPd+CLz4caxquqeCZ9SYGSS+8G67otlfrIby+0zUpmEpo+IPjxpviO7uHk+F/hXTLC4QpeWOka7q1uk8oWSKC6WW50+7SO8sI55obScwSyJG6wNI9pHDZw/0Pfsnf8FKNFk+HPw2074tfDvxVbtaeD9M0vUPGnhrxHoXim9uLbTraOx0nXNY8ITW3hfWje3WhpaX2txeHbjxBc/bRdSWGmXLTxWsfyXEmE8Qc4ypxyjgHDcaYbD0pVM6yydH63iqNFRgqOKw6wmJqTlOMo1ozVGjXr+9SlRiuWqfRZTX4LwWKms74rr8O1KsqcMrxkYuFCtV5r1MNiPa0IckeWVKcak6kaTcZRqK84J/Fj/8FO/+C+X7YV1o3wc+B37Etl+x5feKpG0rXPjl4n8DePba28KWcvmJfa/H4v8Ai9ajQvCUFhAHeFdO8KeK/Ft7OsUHhlJNUmtgv7p/scfsffDb/gl3+zJ8cPjprXiHXfjl+0v4v8Oy+K/jT+0T8Q2vdV+I3xs+JF2yaZ4C8EWl1q95qmsaX4Pn8Y6hpWkeF/Cr6pd3V5e3ttqWu3l/qjwmz898d/t5fs8/B7UtEtNJbUfjbrGp6PZeIorX4Z6n4dvdF0nSdT8waLc+JvF+r6ta6XpN3qqRTzWnh+0g1jxVb2kLXeo6DYwPaSXn5lftyf8ABZn4jeJNf+Fvw58LfBDwf4b8M/Djxv4S+NOr6ZrfjnWfF1l8Qtb0O3ub74faP4hj0vw94MmstF8KeIBb+LJtPtLm4/tjWtJ8Oym6t7azmS4+F4S4a48zrJ6efx4HXCXBsI1XhnShUwz4gzRKpHBUamIzCq8wxNChiaNWcb044GlLDTlUdSpGmoevxNjeCcqzl5HguJJ8RZ+lSqYmrU5Kv9m4J+xlVdKnhuehTqypVqcpc1V1ZKpSjCnF8zf9M/w3+Bcem+Ffhbfa5dnUde8BfBbXfDs87KWt5vFesRTXfirxCJGYknUtdk1CeON1k2rP5isHihVPW/2LfDtn4R/ZA/Zf8O2NjHp0GmfAL4SxtZRLtSC5m8DaJc3oCh5Mbrya4kb52yzMc1/EX4y/4Lmf8FGPFdtd6bo3xS8G/DDSJ7RbK30/4cfC3wla3NhbBjvFrr3i6LxprgnbJWS5+3KzKS8SxSEuP1J/4Imftj/tUfF/wP8AGn9n7UviXrfjHWbKP4V6P8H/ABP4ptNN1x/gZ4M/szxVpXxG8UsgsbV7/wAPeEPDuieFR4J0bX7i8sr/AOImq+H9B2DRdS1uSy/UeGskr5Pl0oYqvTnj8X9TxGPqJ3h7ehg8PhZR53ZuFJwqTg2tVKUrpzvL47NMZDGYqDoU5xoUvb0sNB25uStiJVY+6nbnneCktGmkto3X7c/tq/8ABQr4c/sl+B/HusWmj3fxG8UfD+xsZ/Fltpt1bWPg34eXetLE+gWfxF8WXDi3sfEOtW839o+Hvhv4fh1v4keJrFEvLTw5ZaDcP4itv45tB/4OF/2rfhR8Vvif4r1jxxN8QtF1TxKmp654F8T61dXen/D0atcvaad4N+HVjp2m6npkVzaxw22kzWM+hax/bnjEa1ceHobbw4+kyT+1f8HBP7TWlfDTVNE/ZW+GNlcab8K/2cPDafF3xLM97Jqup/EP4x+PpfD6aX4r8bapM0134h8UNqfjSPxFfaxrj3N9qHinT9avr2Ux34hT+LDSfiReaFq2t+MLy5sdS8RWWsy6p4Z091MttH4r1a1YjxPqVmzk3EHhHSLSCPTJJRsFy+m2dsRGty7+llWMhmeIqYmhLnwFBrD0lo1iaziqlStJrVU4wqU40qbsnzurLVQb+hzzKIZBw9lWHq0b55xBRjnFarK/NgMpdaVDL8LQjJOn7bGVKNfEYrEO1WlSjTw0eRSrp/3H+If+Dkv4w/B/wBNq2uadpfjb9ojxtrTzeG/gsmjXeu+GfC1vrYgtfC/w+8S6zp194fOu/EjTDcWt74tl+GVjp3h7RdX1WDwJPa61rWi6lrF54XJ/wUG/ag+NWoal8df2vtW8O6t8G9I8Ew/BX9oL4vfD3wD4f0b4Vfs83Xx68V+Gb74Q+FtLitln8UfGHwz4M8f6JYD4hXsms+I9X1jQ9U+IHinwXpNj4Q8J+F/GPxM/lp/Zx0XVr34gX2p+INX1PVPFvh7wtY37tdSRztpN/wCMdds4LuK1bzEK6xF4R1bxDLfakjxSWviPWpL6B7e706C4P+hH+0l+xz4F/Z5/4I0aV+zNdaXY+Jrue8+F3jX4v3TJIJPGHxI8TeJNAbxlfiTToEuUGnS3Nv4c8K+QkS6Ro2g6Ba26QWdhFCnBxBj8C1icvxajTwlaWEwlTl5frVTE42UFQjh3JONNYdSpV3UlCX72ME0lzXWByR4HJctzlyrYnM8xnmFTL4xbhgcNgsrnSpYnFYtRUatfEV67rYehQjUhReH9rWqSm1Gkuf8A2EP2Kf2dfCHwx1zTZPDNrcTav4k+KGvWsFtqC3T6T4K+NvjXw78RvC/ivwF450uO2bWdJSfwX4fvfhn8UPB19Fa3FpoCvaXC6rp93FbfWmlf8Ewfgt49/aCuf2h/GeqWmv8AxF/4RjTPDx8SyaHovhDxLNHpEa2th4qbWPCcmk2Vv8QhpcUGlaj4z0Hw3ot/eWdtaXaxWuuQRa0v81mvfB39sD/ghM3wn/aw8I/EnXf2qP2abvRNL+FHxq+CHiQa5o1t8GfC3ivVR4o0Xw94auJdd8SaXoGnxeKtS1K38OeL9M0jR9JsvHUzab4i8OSaf4vt2X+m39ij9ub9nX9uD4ZwePfgD47t9eFlHbw+K/BWsCHSviL8O76ZeNK8ceFZLme6sCrsY9P16zkv/DOuxr5mi6xeKJFj/nrGY3OcnxNfOsDm2K4k4VzKvWhicRhatTD0o4qM506uDxSrU69TL6vvp066jTdelUjy1pcyT/RMPhcDjMNRy6vgo5Fn+Do0ZU8PVSlKvh5claniaTpyo08XBtKU6UpSUKiUnDmhc+lfFHh3QvCHiLwzp2qXtjr/AIT8Sa1L4JuDq0EN/wDaNX12zZ/DJD3cc0l4bi90m50K4Z22Xaa4s10jiB5o9zxX4n+Hng69+E/hLV/C+p6j4c8PeI7/AOK97pnhDw0+oWvgzSfAFk8eheIr7StGihOn6PY+JNVfXIJIIJWm/wCEX16S3tbtrC4jj8E8VfF7TpvEtvrmp+BNa0v4W/Bu58Z+L/iN8YviFNqvgzwt4J0XwZ4R8UvrXijQfDV7pgvvGVzFCtxp2ialLNY6fb2OpX3iOyS9hg06e6/g6/4KCf8ABTv4i/FP9r74i/tJ6Lr2p+G5/h98TPAuh/s5+H4Ly5eHwj8NfhXfrq2h3c1hM62v/CTeIL/UvE3iDxjFLBGv9tajr3h26E2nW8UMn0HhZliq568VHDxwmDoYTE1VRp1vrCpyxNVKjTi1OU1Upxqc0vbTjWlT9jdKMlKXhcdYnFvLantZVsZUlisuw069SkqS5p0ZTg5ScVFPE/U6soRpRUealWvrFo/1MoZrLVbCKeGS21HTNStFmhlieO5sr6xvYA8csciFori1ureRXR1LRzQyAglWyfxo1f4D/B39kjxbq934q8H6HbaR4t+I/wAR5/hrrMVpp9r4e1jw58UkvPFfinwvq0V48FtJ458Nada+KtNis57mGPxD4Mt7TUrQXF/Hrs+m/wA4fwq/4OoPjL+zp4U+H/gb4o/s/eBvib4Oh0w2fhrxP4e1XWPCur2OgadII7PwxdWslzrFrct4S0eXSdNstQW0lm1WwfT57qU3jXclff2r/tPRf8F3dG/ZmuT4OtY/2LrL4jeLZviv+zxqOh3B8e+J/wBob4XeHNV1j4c3viD4rwz3Nno37PGr6fd+Kh4kurXw94f1rTrrwhqeg6neayPHfg3b+v8AFWT0sdkmOp4vEYnD4ejTlX9rg3L237uNvZypuVGMoVk/ZTjUqUaa5lUnWoqPPH86yLG1KGZYWph6FOtVlJqEMVC1JaPnlz6rmpJSklByqSa5YQnNqB9vfs76Z8NvHf7T+reIPg/8N00PwLJ8GtB0fRfjLrstvceN9T8PfEnx9Pf/ABNm8OXqXc2peFvDNz4P+Hlp4O8J3MMVn9ut/F3h3xTpl9eLfT3D/wAFH7QPx/8Aip4X/bt8e/Gbw94tvPCvi/wx8eNM1bQNeWSKA+GJj481LXdDvoYo9tpHpOm3iQ2J01ybCfSvL0+YyQqtf6P8Go+BvgJ4E1GXUvFFjbWOjQP4j+IPxB1a2ttCstRvI55JBOtjbL9k8OeD9GluxofgLwRpitb6LphsdLtIr/Vry8vNQ/hI/wCC2f7BniX4E/tA6/8AG7S/BmvaF8A/2jbvXtS0iOSK0GoaFq1xdQ61rWgNp2kXd9HpOpaJrDPr3hnStQuUvrzQDp9vNbWs41lLH4bg3jPLcyzt8OLlq4GlgZYTC4uu1OOY5heE8wtUqpRm5xmoQjyrnpQjP2cIVHFffZtwjmGX8O18zqxqU8biMXhcdPCwjyzoYLD08Qo/u4u/PTjVWKnFtxpqnV55P2XMf1FfsP8A/BXf4GftEfDi7+KPiW58MfDj4gWR0zRf2h/But+OtO0/U/BnjbwvapoJ1D4U+C/7KvfFHxP8C+LX3Xnh4+H73Udb06/kk8M6lptvqFs1xqDvjZrnhL/gpd4I+IHw+8exeJ/Bfw08X6rb/B79mqV74adqvhD4naXpmvfEnXv2ivFenLcXWjXtz4RbwloTTaNeLqlppHgyxvfDkm688WeIHr+fb9kP/gnf+1H+zZ8C9D/bB+Juo+Ck+BXxQXQbzxHd+H7++8Va94N8PeILBbDSPjD480OysNll4K0Xxpo+l/8ACTLpuqXHiPw+uuahqviDQ3sIfsafrb8QNc8ffGizi+G//BMi10r4zeHvhR8HvHfhvVfiNp08n/CndB1v4neCNTt/F+tXvxV1qTTNL1P4weJ/Dt3f+GfC2j+DbPxhqGiz6/Lqt3Do8aW9hXjY7hmplHEDwnDkMfCpmKnUo14uvLDYTA0fZ4hU6tVQnFe2rwoYfknP3sL7SnVXxOr7uEc8XllPHZniKEaeDnSo1qrlCjPD5qpOhifa1IzvTqYFOWKXIlVlVeGnh4VatanGP8jGq/tVLpPhDxb8KPiF4m+Jw0+TU7y08X/DPwAdGtfB3jjWYj/ZlzrHhz4oalq3/CReCPCnjDT08vVIB4K8TeKoNIvbqy0HxVaW95FFpvlfw8sfGn7UfjDxhapp+n/2x4ku/h5pOn6LoVm9j4e8I+FPC/l6Nouh6DZE3VzDpPhfwzb6X4Z8PWitc6lqOoy6ZZLJqGt6whuvmzxZovjGW88Rah4i0rUtN1TSL+Wa9ttSs7rSbmaxu7i6vtXeztL6OK4kGh6tPdXrR28TwWun3l3bs/8AoCI37h/8G8V34Bv/ANtXTPh74w063n1nxnpl9H4A1KSaM3dj44Hh/wAR6J4XdLeSPyZLVNd1vSHLCWO4tdSn0/VY0Z9HVl/asPleGyyjUxmEjGOJryoUpVG1UpYf6xXw9GrOlFOPP7J2lepOpWqeyp06lZqC5fExfFmZ8VVqOTZzPmyvLlmOcVsJQorBY3O8VlWAx2ZYf69VVOuqeLxqjPDuVKnDDUJY7EYnD4X6zUm6394/gb4P6b8LP2Zv2VDoHnXUfgD4b+BdH1ad5lmlOtWtvaXnicTmOSeNLi28X/2gwt4Jmt7KeFobcqltEtfO37bP/BGf9jj9rvSfiP4psPAVj8KfjP8AF7w5dRT/ABO8Gxy2lvqOtajfW2rXOseKfCkFxa6TrOoarcRtHqV9avpl7dyai2q3b32o28Uh+wf2bi+r+EviL8DNZAWVft3jvwbFKzMYku7mO38YaVFGQqx/2Z4pe110xAkj/hMXUBUtyF+oPCFrd33w30y2nYjUvD8jafOW+aUPp8n2V2beTligt5s/7IYYziu6pSpqnCi4xthqqhTi7+7Sk4youP8AKoShG0laSaTVnofAUMzxqxWIzCnia0MXi5VKuKqwk061SpJvERrRfNGtCs5ydSlWVSnUvJTjKN7/AM337Kf/AATX/Y5/4JRPoPxg/aC/aR0Tx18X9Z8C+OPAnw6+HmqeG5ZzrMvijxA9zo+sr4SWLxJ4p8SanZ6xBH4Yj8V6vo+meE9FaeF7u9t9Q060nf8AcX9rLSL3Rvgj4X8PAB77QPhzrVtMJCnFxpHg6C0kf90xQs1xasCY9ynJKZGDX+fN/wAFi/2j9d1r/gqr8Xr6w8Za6fCvgj4z6RcNpY1a4TTdP1PwR4gOmRy28bHP2fQtN023u9HspWmsNImuru/0y3sr3Ub55v77PFnjuP48fsw/DD4l6beJq6+Of2dx4la6SdIBcazrHgu4OqRPL92J01m3uradw+6CaN2/gxWODcliISnGEI1Pa4imvelKdP36bnOUkvefNCdkm4Rqxj7So/ePX4hoRqYTDYtYrEYzFUVSwOZSqQoUqGFr1sLh8bh8JhMPRi3CjS58bh3Oc/31bCVpLD4fllGX4If8F5/+CW8P7TPwJb9rH4T2MNh8WPgV4Pm1L4kWqxnyvGPgOz0+0J1qOzjk23Wv+H0gsNOv9pjur7QLfTtQP22TwutjqX8FPmxRAJLL9lkVV327RfNExUMVYFiQ3OSpJKk7STjNf7Ffxi8L6bc/s1/GXRdVKQWXivwL4h8GXkqlV2W3iLSpdCuHjYhk3w/b/Mi3fKzRpkhCRX+Xv8QP2W4/DPjzxvot94Q1K4vLTxf4le4MlrNvt5b3Wr2/bTyseEj/ALM+0/2cIR/qRaiIklCT6WBrYeliK0K9WnQw9RSqUpVpRhTVeNSm8RFN2XNVdaFTkvrKNaavKc2cEsNmWaZXTrYHBYvM8fltfD4OtSwOHr4rFzwGLoVpYGcqdGFSTw+Bnl9fDe25P3UMRg8NKSpU8LCP+u/TWYLyxwPUkAfzz+lfC/7T/wDwUl/Yz/ZCivrP4x/Grw7B4wtIpGT4Z+D2k8c/Eu5mjCkWz+EvDYvbzRmk3DZd+JpdC0wcmS/jGCf5f/2zf+Dhr4//ABcXV/B37KugL+zx4DuYprL/AITrV5NN8QfGrV7abzIvPsJ1a88JfD3zoSGQaVF4o122c+ba+I9MuYwF5nTqVP7sL7zVrv8AureS67Jfr4fMr2Tu+y/Xot+p/Tn+3B/wUH/Zu/Yn8B69ffFL4g6YnxEvfD+pyeBvhL4fmi1z4meLNWksJxpK2fhqzka40bR5bwxG58U+Jn0bwxZRBzcaqJvKhl/zYvMmdE+0GFrs20Judh/dC6Mam7ZWCYMfnmQxEgBhgZO1WFzxF4j1rxVrus+JPEusav4k8R6/cyX+v+I/EGp6hrviLXdRkdnlv9Z1vVri81TVLppCwM99d3M+SAGCICuMX3fMrKPkIOMk4fA4IxuVyGyrHOfTlS4QjBWjd3abk93ZWWi0SWu29wSd+Z2vsrdF/n9xdUnokipko397jg4BywOzdnLdcHANfoH8LvEM2m+DPB2oxSJObPwvpt7sKiGGH7FZRmRnHmyMNptpS2ZkTYkrPIp4X8843y7/ACjB2ucYUHHJCr15PGODyeei19vfDHxD4XHgDwtp02qQx6oPD+t2Etu8U8DO/wBr1yy8q3mkhS3urhVzHts3uJBIhjZC42n9k8Ha0aeZ51B1FTnLK1VptyUb1KGKo8qjdq8v3jfKtXy6XtY/OfEmnz5flsuSU+XHuEkk2uSrQqfFpteHfS1z3nwhC9jp9jfW9pFZwa/APERsNluCt9qF7qtleXZW3t7VPKvH0m3u7eIxbovMkgW8uYEi8n4e/aEunuPit4nds7o4fD8DIRnaYvDukxIFwWD5GJUYHbiXaowhFe1/DjxNpPgzwLon2zxFr/ivUDDbRXsgk13xfdW16t3qN21nbXkMOotJp1vY3ukOsNlI9rp1/d3GlL9nuobqytvnf4069BrXxH8U6ufPggU6Wsn2lDZtELfQNJDedFOVnt/I/wBVJHKqypKrpsxtA7+K8ZGv4X8PUqtVvGrH4aVWlU92sqfss2hTcoOzSUeXV6uDjJu1jzeGcJ7DjnOJ06aWH+pVVTnFpx5nUyxyS5W9ebmvtaXMnqrLzBZdhdnkWMLC8ru7bEUqPnkcliQqp8rHO0N/Dya/ST/glp+37on7DXxT+JniLx34f8V634C+MvhHQvBWsyeGbm3fVPB9v4e159Y0vxKvh25FufEAuWu9St9U0q1v9P1e102+j+xLqF1btp8v5ZXV88sqSTxSABy9hpqgJNJnbm8u0bASQA7o1lISyUgvuvXVLepfXV3BYNPJ5XnK0axhFLRIZ7iK3jQq+4ybVkJaSUKHZfuouxT/ADvmtKlmGCxeXVJ1oUcXQqYatOhUlSq+zqx5Zezqx96MuVvXVPZqUW0/2nATnhsThsXFQlUw9elXpwqwVSnKVKcZx54O3NHmSuk/mnqe3f8ABY746eC/jR8Wf2nPHHw/8ZWHjLwp421/4A3ek6tpgngFxYW2t/FS/ezntNRhtdT02W0k0HSxc6bf2dldW0ljFFPbeXHG5/AGy0ZTZWviaYqPt3iiWw3+QJng07R7fQbyd5HLASB5dVEGxz9yFlA2ls/avxntm1e6+z3Ucckt42hJ5bQlEuZJb7WLW22KrDDL9tfdOpUgC48sIhBb9NP2F/hf/wAEz/Ddx4J0H9uz4FfGbxhpGnN/a8Xif4SeOreCyuLi5kt7m7tPiN8PryGw1PxDYtbQ6cks3g3xZp2pSWumzW8ek3IEUEOPDWW0skwMcvpTq4iEJ80atVwjPlWHw+HXtZXUXKXslzOKjdy92CcbH1nGPEU+J6+U43Ewo5csvyTBZPGlRjUrKpDDYnGYlzoxVNOlB/XLKE5tU+RR9py6x/OH4Ex64/xM+LfiCDTtbj0h7u5Qa01ndx6TFF/wmdppkUlxqiwrapLpmj395r0EazMJItEu40UhGx/pIeIPiRF+19+yL8PNY0mGSfUPHuh/A/WfFGg741vfD2rW+v8Aw88ReONOvVcoBc6RbrqN/byx5TUtMNlqWnNNa31tK/zv+zNoH7Ev7X/7I/7Qf7EfwO1b4RziXS9S1TwMnhzTbXwv428QaXdST33gLVfE2g63aaZ401PxN4Nn09fBPii5vrW+u5dFtNF1V7lm8QNOfnb/AIJIfFG61T4aeNvhF4jS8m+I/wCzba3Pw88UeHY1Ztf8R6Jo/i3xZF4E1Sxt7kQpcahpF5ZeOPA1xLdXEDfYIfBEUxjtjbRW35d4w4fHYfDYXNKDV6OMwuJ9yT9nGVJU6UPaO8HKMpex5ZWh+8kla0by/RPD15VnmS0MGlXksiljsDXjUdP2tbCZ7KFSlilCClGk4YnDYii6Malb2UKtNupN17n60fFXwx4H+Ifh7xb4D+IWkeH/ABJ4H8f2OqeFdf8ACviJLeXSvE+j67C0N/o09rNJG05mhlAie1ZLu2uFgu7GSG8ht5U/jj+O/wDwRX/a7/Yg+J2t/tFfsZftNeGPBng3SvEEy/D3V7r4g+Jvh18X/D2g6pefbI/DGuyW+gX+g+NoNHjHkam4v5tO8RafapqGr+Ho5pri1X9w/jr+1VqX7Nvi25+J3x58YfDfWvEdrBq1h4B/Z70nWNQ8U+OfDXiDXlthomnXmleD9HudL0zX4tNtXtJrPV/EK6/dSXd9f6Wl6qbYPzG/bO8O/wDBR/4+fADVv2rvihYadpngPSrCPWPBn7OGheKv+ENuYvCWoXirpfijVV0221i/8hjdWEd3d2+p6V4tm0/UF1Cz8WyaLbNq0XwHh7k/FeX42q8sxFDEZPjKUa2bUKlCOLwddRk24U6dZRpqUIzdOvi706Ki3FyqRVNv67iPA5FnmW4TEZvbJp0MQsHlGZ4mpLD4mvKUVGMcJSwyqYjMJTlH2lPC0oycW21OlUdSMfmP9tv/AIKUftS+Kv2bovgZ+0J8ePDXxBs7AeELr4zL8KPh9pHw88NeMLOwMup6b4D8Ra5Z3k2r+OfE3xFvLS1gvNEsrbwR4VTRIdZ8can4Uk07w9G8n84dzaav8T7xPFPiOZ11T4heNdS+wafBlLWHRbO5k1/4g+LLhj5SfY7VpRpNiwkFst/qOsEcWduAeKvGnif4ueJJ7/x5dr4Z8I+E5bgvo3h7TprDRvDiaheJbyaJ4X0Nprq+1bxz4tuYksRe6re6x4q124hbUfEWsXtppc0tvwuoSeM/ih4uj0fw5oWpxG5sh4V0LwbocmVsvDWjSG7Nle3eYbWCwtWtn1PxPqN5cWukL5Mt5qk9vYW/mx/0XkWS4fJcLVqOjhMLOpJ1alPDRo0MLh4ayaSpwp0oyfLzVaijCL5IK1qSnL8M4izWnm1XBZBkP17E4XCVUvrGJpyqZjm2ZVn7P2s6EJ1qkrJqhgcM5VqlKi5ybjUxdShD1f4v+OvDHjPVdH8OeG3kn8L+E0udT1bxBndArrYpb6raaNhhbnTLW3gtdNW9kQLfasdNigkMEavP+2//AASq/wCCkX7Tv/BPu8svh9feFPD2v/Ajxppya940+A3iWbWbn4s6rqGrzLrl146+H2g/D/QPFnjX4eakUQW2jXvxD0ix8C61p0MN5qtnJ5qXdj4//wAEv/8Agkj8fP2vvGtsvw40eCOxsLrSr/xL8a9Ytg/ww+HWmxSPJa6j4Lg1HTLu38Z+KFIkfw54u1bS7rQILuM6p8N/B/jSe2j8Z6P/AE4XX/BFj4YeDvhT+1f+z9o9zBD4O8S/DD4Q+FtU+MXiC1F/4it/iR4u+Kfg7xb8RPiLCsyaj4k1LxanhbQNSube/wBU1jXdb1FXj0nUNdXTtTuLG34c0zqnmGIpZJClCthMxp4ihXr16Ua1CpSgoQxKjGqnTnGnGaUlVhJzlzxfsFGFWp7eX8J5Rwtgo5pxJWxNXOcPLCYnA8P5fipYerh41ZKpRxObYyhKNXDrERbq0o4WvTq0qUsLXpQzCniK8MF8lf8ABXrx9+0n8ef2UPDP7RPwq8OeOPDX7MOi+O/2Zvi38PoJ1e01f4reEPid4J1DVp5/iLpFojzN4y+Ffxctx8OLjwjpl5qeiQa3/ZfiHT11m+1jSJdP/S342+AvEOtf8E29P+F37VtpY+Lv2rPjlofwzWL4bIdd13wj8EPHHirxz4K0vw1cw6Nea3ql0ur/AA4N/Zz/ABE8WXeppbal4quvFPhbQItJ0HW59Jl/P743f8Fd/Cv/AAjHw4+E37Mf7Oug+E/gf8FbTwFY/CWP43pD4m1eRfhRp1jafCvxBceANC1K08MaSvhX7FB4pt7HxF4h8UST+NF03XNR023udLisJfy9+KX7Zf7QHxY17WfEfj/4seK9Vv8AXIZtPv47e+Xw/p1xZny5jpSaZ4Zh0vThpLtaws9nLZvDNLb20s8M9x5bj4rGZfk2WVcrwOQYPCxweX4meLrYijz1cTCXNRqfU8LWqTndYidJyxGNVetVhBunRb5/c+kwmX8SZ1SrY3OK9fBSqWjhqeKnGhWrSTssbiKWHoqrTq0aLUY4WSw9GpVhRqujCNFOf6X/ALcXjj/gp18I/wBpn4w+Gv2ftd1zwR8AvDln8LvhzZ+F7Lxt8Gbf4cx6fofw406wim0zwT8StZuf7a0fxE+m6lP4o1TV9I/tTxTp0+keEvFN1d6lHFYW/wCe9j+2x/wU6+HfhMaRZ/tIePfCVlZatoOr2vh/wEn7PraRZwyXdvfavEvhLwNpdzpVhaR2V5Zpf2FlZ3ceowafrNv4gsBqNha283yC3jaeS5lu0uIJb+fc811PFFLK0j+W7reXTANvDOZWllkkbfLlj5islV013VrmQ3IuDFI0oZAk/llTlWAibBJjWNl/elwMyMWyQyj2Kue42VSdSFF4dbx5sZUn3vGMfYLlgnZx5Z2iox0009HA8M4GhhKODrPLMZ7OlCjKcMloUqlRRUIurWrfXr1qkoqXNWlD2kp1ZNycXOnU+5fj3+zx47/aZ/4J8/F/9sD47+OP7Y/ax+CfxE0DVfDWp6j/AMKvtf8AhbnwZ1rwr4Ct9fuYdJ8JxReI9RtvD3iCW68R3Wq63EbVYLnxHpk8jXGtzJp34Z/sj+P7n4J/tS/BH4m+Dr6fRLBvFWka94cvhM3m2Xm3f2caNPKvzNceHPFUNnbXBVzK8Nppt4sgS8iz+gtt42mube50/U7WzmS5tmt5Ybq1s3iure4QG4srlZIJRPDOQonhfMc/lqfL548+n/Z0+FPiayhntrO78B6pa6vDrej33hFILa107XI5I3+3Pod5v014bz7Nbre2tjLobTm3tnNyksEMo9PDcWUqeFq4TMsFWw8akJU6WIoVFi+d1KfI604Rp0JqSko1b06cnGTva8rnkVOAMUs9wud5JjsHiqeHxmGxcsrqUKmWwp0aGIjVngMPKpiMZGdNwbowjia8P3cpxlUas3/o6+IAPC/i3w38dPCdo76PrGjWHxfsra2BD33hzV9GjvPHvh9I1XDyXHhXVL/VtOtxEzTazaaFtVTApX139ov42eFf2ZvgH8avj/e3th/wj3hL4e6t460i5klh/s/VtVu7EW/hi2ieSVIJk1rXr7RYo/3qmW3uSw3AHH5ff8E2f+ChnwX+JnwU+DX7OfxZ1q38F/GX4caBoPgfw14g8UG3g8D/ABFbRo30fw9Fo3iC8lU6Vr+p6NbWGmzeG/FcWmS6pqEW3w/qHiEyKq/N/wDwcEz+KvDv/BLf4n/DiLVNU03T/h38T/CEEaRO/leJvhb4g0nxu/gTT9SmdHldvBniOwPg+4i+Qm48OaJqjssmoWMkf0NHM8LmWGjXwlelWikqcpUpxnyTcoKKqxT5oyp80XKFRRkkpLRNX/Nq3DmLyjPaeVZnhsRh4SxF17enKisVhqUm3VoTceWUMVSpyhSqU3OEak1Gbi42X+eL8UfH2tfEj4keO/iPq73moXPi3xZq/iLVtQlaadri58R31/qCNdzuXMVzeQQ3ExEzF5jBclQUhl2f2q/8E5f+Csnwu8Af8E0vgZ8MvifD4g1b4mRa1efBnwLKYrGw8NT6N4h8Xafo89zeeINQmEOraz4f1bWvFKDwd4f0zX/FuqWzaPJNp2naRe/27D/DVLrmoLo+oeHUeEaNLrdrr+o7LOJrp9Xs9P1HR9NSTUY1N5DaRWmqaolvphlhguLq7ubpoJ5IYvI/Qn/gm/8AsD/tS/tyfHPw54X/AGdvDgutV8F2q/EW48T+ItYXw34V8M6V4e13SVnvP7V1BmNnPe63dWlkkek2V5dXVy00htL9rC4gX2MTQqtUpU6tHDrDSlSj7SEq7rYV0I81GEfaUOSvOUIShNOolFa0qjlKNOsuxWXT+vUsywWPzKlmlOjjKroYmnllHB5tTxlWFPG1qzwuMjXyujQx2Kp1acVgZzniYxhi8PGEZS/1QP2u7mPRvg5JoNsiq+veIbKxRB/FDFNNqM7HbzgJbRqf7xKggE1+B3j39iT4A/EfxfrfjbxD4N1J9c8QXEN3qs+l+JNT0i0u76K0t7S4vzY2rCBLvUHtze6jOo33uo3F1ezEzXEhP7SftXXuq3Ufw78O6rLDPqmm6Kuo619ly8Euu3UFvbXMsAYRjyWe0vGhLqjNFcrhE3EH+b79oH/gp34J+Dfxk8e/C+00+x1RPBOrxaJcX0wTdNqUOn2UmrBCUy1vDqkt5Bav/HbRQv8AxUqlXL8PgaTzGFGtCrXlKEKtD6wnU961SMOST0glHn5Va6je01fl4Wy/ivMM2xK4Sr43CY2jgP8AaMRg8y/smSwsq1C9GeKeJwqaqVlSmsPKq5VPYurGElQc4fzkzSyTNLNJLJPPdzNc3FzKzSXF1Oy7pJ55S7me5nY7nmlaSSQnLsTtNZjnkc7sIqlm3gFg2M+XlsksSFbIJPzHbjiwEJjDAExIVQsoJ6IWHOdzZzjcACTg54Iqs7RllCocEZcg7mTK/Ng84Hy56ZB6Zxiulq6t/W/9WPlk7badNEv+GGiX5jlG2jg4UcbDknfw3yk45OCNwA6tTcOWGN4UozqCuAMMSATj5cNhRggsCMHJOFIyOASckktkZHOHHzLyBkgnPPsTUhUkjGzBKsp+ZF3Ajso5C9SBzno2RisDTnXZ/wBf0/62eckEycKCAvCgM5AyrKzA4X5snnB4ONxr7E+Ffm23gXw5cbsRTRaqqeXIHRSviHV42DfOVSRHiD/eJjIKxxRsCK+MzJtDKwAywG5hnaWLAdeAQTzzghs8EZP2d8JEe/8Ahp4beQEiy1DxJaRxqI5HIi1++vIHJOGBBuH+VyCkTKMHFfq/hKv+F3MoXtL+x6k4+6nZwx2B1u12lL8j4LxFSeUYRtXX9pUot9+bD4rTz1ivv+/U8K3UlzpMSlzuj1PxBBIqzPhzH4h1RXwhmAjhuJznfIULSxvjCyLv+SPihJLd/ELxYH80Wltq8gt7Z+GnlhgtgJJF3HNpYzK0dpGciW4X7WxIt7dq+p/C9lJHpUiuoKNr+vSgbwVjeTXb7DQwfMrGUyPPGY/4myCFUrXyZ8Urn7F478XG5cwl9bl8hnGS6yWVo8ckcQZ3QzFpNu8h1OS5Xdke74re0jwxlrb+LMcNFu7TaWBxLVl35fT0TvfwfDmKln+O0u1ga7V9E/8AbMJrJ2W6tuzjlURF3bzJJT+8Z5Wy5Rl3LET90IOSEVUBADY3l5Hx9SmkdUgit/PmuJEitkOPMmm+ZgIYsAqkQVpnnLeVDGvmyKVTdWPqGqXFwUS1SdmllEYwod5pWyqRqhRRI0jKpjReCnJfCb27bQ9Ne1U3eozLLqUiNkmRfLtIWwWs7VgRgyMqvdXCbXuZgqqyxRRpX8806cqsvJNcz8tPxfT5n7XKoqUbt+87Kzsr7a9emuiR8pfFfTRpfjnwlDI24yf2TPKFVvsETTwa7az7VXLTmPzY3tmcRzvJHPIWO5BD7b4g+KPhXQvGY8LXsN4siSwRSXy27PaWLTpMbJZCImSHzWiltbRjNHJPKtwkULIhL5/xh8CS+JIdA1/S4jJqWhXltBcQFmMdzodzPJHM5AcYbTJbqa4mkGSljLfluIwT5D4yi0/Uvi3rWnTtdw2F/wCJdH0u6BklL2+uaNps2u6TcvAFjhuNE1SGS9MMcc7NazRkyoDhG6GnQu4W1krXvqn0+9Wvfqr9zan7PFqkqkm+SjWUuV6xkpw5Wm018LbSad+ux9GaL8QPDmpTabr3hXxZaw6zo92l1o99Zas+j6zY3wYKsdpdRy219p93IFKmW1mjmR/s8yspSFq7Twh8dv2nPh18VvE3jb4b/E7xto2p+MdG1fTNe8Tr4p1q3udd0DxbLo17rel+JL6xurPWNdgfUvDmgatBdTeI4p4dUtNTWaLUo9SvrS8/Pe002C6+HHiq+vPDIs5dITT49J8Tx3bRfb3/ALbmtwrRW0ZSW7s0MocSv5uJCZJnQoyd/wCK77U/h7D4J0XRvGt1oS3mlahrF1dXLTzWypdrFcWcdxCz3V1NczSLJbLIAshQrGYUggZ05cVRw+OoqjjaEK1J68srST548j+JXi3F2k1a6vq0zvy/EYzKMRKpluMqUKtRwjOLtKjVeFqUcZS9vSjz0cTGlWp06kaVenUgqii+TmSP6Yv+CdXjv/gm/YeJtK8TftSa34y0b45LJcrB42+MOlP46+CdhHcXCMx0k+FbF5tF85khnuodc8IeGPCc92BNqNjf3EKai/8AUF4j1n9lDxD4B1ddD8V6D+1GnjHwle6fcWngfxZpV54C0zQPFmnX2ky6h4n8Y6L/AGtpnhwXdpLeDSNJmXUfFup3Nuf7J8LXUdpeXVj/AJlmm/Fv4tSR+GNObS9LbUfE9leTaddTW7Q3dxaae+LzUWtVR0Mhi2PDNGYYvtBMeN0LyH2f4S/tW/EX4d2+neNPhnrPiPwJrk/jJNAln8K61qWiXs8kxjijv76ziupYdXklQS3F2niCDUIpLaPZcQTOshO+Cp4LBU/q2Ho/VaD/AIkacVzVVorVJyTqT5YOyi6jUIe7FKKUR55m/EfEGKjj85zKpmWJguWhOpOKhh4uSly4ajRjTw+FjKpDnl7KhFyqxdSfNUvN85/wUe+C1r+zR+1b8XNAsLeCDR/Ct1PdeBYCFh0+HxP46fUZLfxZbWUjtc3F3a6DDc+JbrUbsXN1a6uLKET2tgbGyg+u/wDgkn+wn4b+LfxC8P2vxZtL238G3V3Yat460+Sz2R+IxYpHqvgv4V6jK80btpOoanbwX3iKKQeTqHitbfTtQtbhvB1lBqXz3+138Stc/aT+N3w18W/GGbTL7W7fVtGt/FHijT9OOnw+IdL0Hw1axmG98O2FudCbXNQHh3QLLULjT7TT4NUkvLo3GnRNcyzn+iD9i3RdXvv2Qfgpr8+gv4W8T+M9NvPiDElla/ZdVnuPEGvanrfw/nuUhQXc2pad4UbQtXlu4/Nlkvj5j2w88iP818Sc3rZfkay7CVZ4T29SWEjief8AeUabWIeCqRcuaUnTo4dTm5PnhNUHLlk0fr3hvhqFbN8TxY4UcdmeI9jOlhlh4Rp08TLDYKfEVedGNKNOlPEYzHPD4WMUsPKlisVyqapzpr+qP9kR/BHgzwzp/wAOPA3hXRfBHh/TFMUOh6FaC0sri6KL5uq3bOz3WoazcqirqGqahcXWoXxRTNcOkUarwH/BSz4t6D8Ev2Wfirqkk0MGqSeB/HOuW6xSQwzSX8+lp4C8KpllMhku/H/xC8G2lk6/N+7vJIjstZAPHP2X/FnjXW9Qsr3WvDer+HdegXT4NT+0Wn2ewu9SECY1HSyMBUv7lZi2nuu+3jkCB5rZ4J5vxr/4L5/tQQat4o0P9n/Q9cs9Wvr6Hwd438bvp13HdWtn4f0+DW4PhN4YQwv5Eqahq2sePPi3rUBlkDRXvw4juF36NF5XxHhZnuJxWR4zCZjGdXGZNXnTpY28K0HTxlNKMYVFJ+9KcHKXK0vZc0+a8bHZ4g8P4R8YYWpgpt4XOFTzLE4ecp+25qE41sUsQqidTnc5cjc7ylWnFXtOMj+b7XtcXzY41uIyIXEMcfC4jKhI4p8HOSsIjyV8lIdxA644668Q7Ua0hjgnJt5WmMZCRxFXeNmDOwO/Ym1AixoNj4RSqmqE8UT3gtftDm2gMjPJAVKmMsoCtKCZEYQxSSPHGjyT5VkAxhsO3sZLiG91Rbi6mljjaWCHbGqG1jcwwIQg4uJyh3OUdmyhYFpGz95So0o22sknGXLpzN+4pNWUdbt7932NatfE1nfWMrtTipJy9nThFycU21J2cUnpfprdlqLUp/NfZHHa+VCVJvHj8owsyxzSSpF5kZxH5ZVgwZ1xw3zK2naarfXMcSC5d/OZfsqW8eIvLcny9qOjO5kjUyxwh2DFg7ExhtmVcL9osowHVrsyRxPsVA5MaICIBFtKNHcFEl2kFxI6yRCVAK5y28RHw1eWUd7CsEd3ceX9oZtlpDfFWP2aO7H7q2t9Rt8XGnttjT5ShKDz3rsVF1oy5IJ1oXSp21fKk5NX3va7S+67Z5k8S8LUi6uIqQw8nBTqtuXLKbXLGajaySte6fKtbtRuvf8Aw1EZ5f8ASJthVS0jSPDcWvkh1kZ4ZIyUCJkOWKuyvktGVL49SnuIrTabdooWVEaRHiSUrCzpi5EB2Q3UW9pIplGx2jC+TMk7RLJ4vol3bvBHq2kyQ29wkiJMrKAkk7HcLae3kdA0r58pJyYXYDy2ZiStdRF4k0mbUv7AS4li1O3tRqVxo8sUp1DQ4xc/Y/t1nNJCLeXTLuaV4hp0refc2yTy21u8EFzDH81i6E6lVyjGXLC3PT5UuVLlUnOKV0mmnGVry+HdpP7rA4qlh6FNOUL1pRVOpKo/3nNzShyXcZSlaMuaKSnZOTjyxk4+zeGvGt1pc091GZLnQ7fzNL8QaM226uNKguWYJOkVwJf7U0AjbcLaSRTYs9wCrcWsiJ+13we/aa8A/tf/AAz0H9h79ubXvEfiL4J+I9Z8I6b4a+LOkXuiN478FjRtc0u60Twz401XxRpfiLTvHXwo1WeHT7G41TW7HUfE3ghRYXtzqes6Ekeo6B/P9FJfWj3lxY4/tO2t2It1Yn+1bI/v5rSGSRZwxkjjN/oV/KJZbe6X7POZZIYGuPYvht4kWa1KaTdrcRBPMtYShgUXckc0sMUlo8bvFYTxreFrJg6WjW+u6GqvDa6Y03nSq4rKqzx+An7PWEcTTt+4xVGLTcMSuWUZSXNL2VZNTteUZSlTm6nZWwmD4gpU8szNT9pRnKvluLi2sZleMg4eyxGBrKUJKMZqlOrhlJUZJUpOMITpwpft/wD8FYv+CM/wE8KeA/2bv2ev2UPA3iTR9f8AiB408W6pr9wNUvfEWreJJvAGm6PdaHZpZiC38G+FjaN4i1Im90fw5otj9lvr1b1L2SaGNv2R/wCCIn7DV7+xZ+yvcaRruqWGsan408X69rOgSaYkEtppPglpbaCxhg1KIy/2sNe1KxutcbU4bm8sb7T/AOxJrCea2C3E/wAsf8Eu/wBr20/av+HVh+yr8U2j1P4reBLLf8NPFeo3O/X4vhl5K+HfiHpVzezSPc6hq3gfQJDpWnvI80fibw/q+hafq0V7/wAIrq95d/0VtBa6JoS2WkWkVja6fpkGm6PY2sXlwWsMECWGn2ltEmAkVrEsMMUa4IjiAXABr9dy3E4fE4BVsJZU8XiJYj2ahGm6VT2VOhVhUULRVSEqcoVNGm7yg3Bwb/mjiuWdUc2jgM6xGIxGLyzLv7MqV8RXqYp42hLNMbm+GxNOtXUqvsXDG0o0YuSnThB05qPNKjD478S+HLj4ofGDVJ7hWXw74faO3vLl2IiFtaJG0j7hhUZIYWZCG27pkJwzZr+Vb9tb/gm94m+LP7VHxr+Jnw/nj0rwn478Xt4o0zTYRbeTYy6xpmnXmq2sIknV1hh1iTUEiTaFjjCogCKor+xPxXpcHw/+G/iQ2e06xr7yWzXCjdJNfavIYXA5Bf7PZGZUAG4KgA6DH8+XxO/ZI/aB+OPxA8WfEvwL4vbSfCetaxcaXo1nFZGWLyfB4TwXPeRyBCHTUrzw9cakjA8rdg17GIp0cXh4c0JulRqQpUXTlGM9Kf7yTlLSzfLortuC2seZkOeZjkGOrVsvxtLB1MRhpwrSr0/b0qi9tRlGPstnUha8Kn2IyqQX8Q/jv88EJ842bcJvIG8xseuzDqCRlBtJHKFV5Jb5sZcBeNvDfKNquOoG4MOzYb14AOSQSNvfDqcENuCBRypGdrgDKoWYLuJz1HzEsYYjjap3OBkZUKAVwVIJfmPhuV6Akhe1d584WFLAcKHzkFFRSM5LA5bjaoyFwSFYhiAQc2iNy9ABhW3E9MrnbgZPYg8cHpwRVNFZSAVC53YBMnL4GzknJ4G4rnDNlWBBzVtGDKxISQYPy4Py5UAOpBUrJEyjYWDIGxuV92KzcXey0W7/AK/QCDCfMAoYZZRvJ6FPvEEH5jtYZYnkcEECvuH4FWKP8J7SUrFvfxN4okjk3hiWt7u0i+duXVxnJTAwu2Tc25wPiBlAZvmKhjuAbYFywIIGehGCGIHTKqATivu/9n9Gf4R6YHAMQ8X+LoUTgs8az2EhKbwR96Rz2jQpkhdxJ/XfBul7birFU9Xz5Li9F/dxeXv5679l01R+f+JE/Z5BRndq2aYVXvay9jin5rZPoa+ivBPpsVxDCsbDUNbthHEgOJLbW9Ug3dQWlDRu5yQHdmOCcsfzz+ME8t78VvG8WnRy3E762ttAjOgjgS007T7Wc7SpS3VbkSSTzuqGSMpI0ksixxn9HfDFk6adqMDRMrDxT4wiMbLGfL3+KNXlHyjC/dfO1CoO7LFdzZ+BviBphg+KXxNvWjKifxVdWtso8vizt4rQSyHylwEuLwMVR8yCK3gz82BX0vjJhWshyVaKM8wpVJtR91v6jXfy+La6uldbK3heGmIX9s5m9G4YCcVdtN3xeG1a6x91ap6X6XOD0rREsH8+eRbm+eLY0rBjBbk8yRWMZ2mONl2xzyv++nVQG8qMCFeiTaGHy5bbhSyAjcMg4+YgAfMoIHHyjOSBVWTlkC/fLYVSoIVuSAdv95m4LKWyPvHqfFNQ+JmreKfEc3g34aC1We1leHWPGOoAT2WnFfN8xNH0+TbHdXKvbzhbq8drP9zLMtvNGkbS/wA7pRgkkuySS1k9tlu/+H0P2VQqV5Npp2XNJtpRiktW30XSy1eiSZu/EmXVdY1fw54JtZ7iy0rxBBeza3NZeYt3NBbXVhawWMs0Sg2enypdX15dESRm/wD7ONtJKLUXKvSsfA3hjxHqlh4g1C2uR4m8P+TEl39oEJ1K2MLf2Ve6lGsbCW5+yyGxuZRsl3wT7mHm7j3Wi6Inh6zKC5vNSv7wLLqus6lJ9p1TVLtQVE1zM3KQQBmS0tIlhtLSElIY1Z5DJUnhmtr8zwTraTK7pG8qM1vLZX07S2n2qOPmay+3Sz6be+WVktG+xXiMrRRK5a++uqduitb9V8766GkasoKKpylHkUo80bpzcrKTfWzSS9Ir1PF774IeKxoetaJonjEXFnqjE22j6gdRGn2UTtNcTxwJADB9ommkTyLiW3dLVIsIcySEcl4t+HXxD1NtDttbsn1DUNN8MapbT3lrFGdMtJLVo5NGjtLm3idZrmG3sIZWVzGxkHkSSBrmQyx/Hfxb43XWraysYL/SdP0yLz2uLYsk4eQRQB5J42Kx28s8siW97bx4ukFvGzQJE8MlOD4reM9B+Fej3Md0ZtT1nXtT06HWLueSXUIZEeARQxJIhxEoLE3AMancmzZhzLxy9nzTjaceW13e6ai03o9V5NP03PTprFclGpzUajm01HktZyjq3OLs9IpvR3sr7WJNU+IN3beKPh9reu6NrNjeeFdCudN1xFheRb6W4tvLZI3SCWBrWUnYXieXDxPNKEDDbyXhJJbXxN4cja3trbTL/wAZ3Mc6TT4Lalp9zqRgiWLcsgaS2vLWExHd5/2e02EtNtf1rwT8QPHLeNrfwP4/stP1Q6hFBd2818bWf7JA1rDeQ3EE0wmkeTyJBdRq7mKaFpDGIXEZb2+bQfCUu5V0PTXLTvO0kNoIV8533SSeejRq8rbFJEbSOMJtCJxTVJ1Epc+qeqkuV81oqzSv0tbbba+opYhYe0JUrOdPSVOanFwbck4tqNneUt776aHnvxKs9Q1jxZ4f06zi2k61dxXMwaMeUmo6RLFLcuY1MxltoTbXXOA0camIHyZNn90P7FlzYfE/4KfCX4kaTpVnpVr4u8CeHItK0myht0g0HSdC02Dw9d6bF9mijW0tzq+k6mY4InkA0i00S1maSW2lB/iK1uT7HqGnmKJZprexvpIrmaQedZx3EiWtvDuzi7UtJcfY/OVprYvcL5kqFw/9df8AwRH+IX/CR/sveIfALyeZqnwv+JWt6HboQD9m8M+L7Ox8a6V5Tg5AGq33ia2RyqLi2kUbtpY/iHjrls8VkOExlLm/2HMaVOu02m8Liocso6NL3sTDCwV0241KkbpTlf8AYvBDO5YDOsVg5Nf7ZldeWFhK3Ksbhppwq2abvHCzxVT3Wrypw+0oyj+6WgS/2LZXN9Zqm7S9M1K8ttibQ17aafcT2oURqx3yXsUEY2qx3uigE5NfwQft5+P7fx/+2H+0f4ltr0vpmgfEXxN4M09o9pFtofwvtNP+Gfh+2spQSrKdK8JW9wnlqoRr6VgSpbH9y/xh8d6X8GPgx4w+I+uv9m0PwVoGoeLdZlZtjR6b4PsZfF91bxhypmu9VuNHs/DFpDuHn6j4j0+FtonUN/nB6xrV9r8utanqjyz6j4o8SXl/qM/3mnlvtTtNU1ed3BMrSG6uLoufmWSJWDbVzXD4XYKVDhSpUnH2csdmcqi0jadHD0MPRjJXScoqcsSrr7UJWeuvocQ42NXiqvXi/arCYCnQUr25sRXxFTESje/xvkwTla65KkdkSRpdIY4f3v2ya0tFDqShH21pJ4wQGdHVEgiMfyyEmQjyxG2a7i1+yafpI+VIGkmkumjcIFZrO4TTtGAkzykt4ySSIq4LQu/zBTjzbTtQe7u59SWa3hmJu7tI8ny1VRZadbIpVRgxsZNqlFU7JGRVwcdPcXPnGK1Dq8FoLFGkjCYSLTLWa+dW35Y7by9meZFXa0sEAK5Wvvq0JzlTg20k05/JLmjF7NqUlyW6ptdxYXEU6fPO7d4VFScneVpSTpTbTv8ABCSm/NJXvEtapaxSXU8WnwojW+VsdzkojpHMsk6yIybiW+1TkFwzv9nIRyFQ8XqEz2VxK2rWcV3ZXVu0N3pt2qOY9OtpFhltrsrtjvtLJRZIb23VLzTJ2S5ZbVykr9HqV4NIu7GW7jecCCa88uNdrLuhQxFkZWjDRpHZBUQBt0krB1RHQf0BfGf/AIIhXuq/sv8Awk+IfwO1fV7b41T/AAs8G+J/iL4C8U6pLqXhXx54y1TwxZazq6+G7i/aWTwL4hurm9m0y00qC4TwVrJjhtPsfhnVJpdZvfMx2f5dkMsB/a1d0KGY1PYUsVJScKbpx5pTq1INzo0ub2cXWcXGM6kPaThTTnHV5fXzP61HAU1UxWFbrSw0Z0+acOWLXLRnaFao4+0UaSblJQvTUqsacX/PzYXsfhWMaholy+peHZIZP9DumSTWfDrqjTJpOoWwRZNZ07YBHYzwL5s0exbZeZLSLptT0TNpB4n0TVIH1y6aCTUEgnF3DqkcgK2tv4buIAHeOxjmdF0yeOS0vH+0yXNvaalPHeWfHad4b+IGn6z4luNP8NeJbXU/hzDfR/EHRU0aS68Q+BZdDkOn6vJ4v8MXMLalJ4dtUmVdRvnsf7OsIrq8Gq3WjT2Ed7dbuna7p41+G8szpukXVlDbXc+m2F4s/hWfVtSiikYf2j9rubfSNRW3a0kcTTy2T6q82jR6xe33h+5hk9epHmj7WjNVIU4c2Irc0ZOq+Xmp4WtFLWM4tN1oJxqRcsS1+7pVanj4avCVZUKsownVm6WCw7koUsGpKEa+Y4dy1jOLUoww9RqUX7PBqpH22Jw9Hu/hb4kvfEOnrY+IZkHiS11DVW8hbdLCSwia9uZodDMC/MX021MUMouHe5bUIWuleSJxdT6d7qeseAtfsvEmlwySadJd+Rremx7oZJVuJY0laMSqxjuBKsTwSAMtnqn2N5SbR2CRal4eXWp7bWdDhXRvGdoYQy3En2Sz8RwqGkj0zU5EDmDUrd0DaJroD3Fs4SOeG601pkSS8e68Q2d20sFzHrFoJjrWmSpLHLMYYvsl7PdW5UC0u5beWK11SOImC3nOna3YyS6bcRzHwU6NSvUnywjh8RFwxGGk1y03O2kWv+Xcm70akU3B25k5NuP30qeJoYSlRdSpUxWE5JYTMIXU8QqfK4zmpK7rQty16NRpTjOTi3Gyl9j/AAv+Mfiv4P8AxL+Fvxs+EWsR2XjDTdXsfGXg/ULUSw6bNr+jwwzX2l3O3ywuh+PPDUtzo2vaPMsoms7rWbaQJdQlF/0Of2cPjp4O/ab+CXwy+OfgdseHPiB4cs9cSwlfzLrQdcjaSx8QeGtSYbVXU/C+v2up6HfKVAa5sTNFmJ4nb/La8P69r2janfeCZ7lZNP1KO38feDHkaWEQaxBqly2o6Vaj5gBqHiC21bTTGUa2hb4keH7QhFUk/wBcn/BAn9s6xtPF/iX9kzX75E8PfE+PWPin8IzI6Rx6P8QNIs7GL4reBowQgRPEenR6X8RdAsgxdBdanJGrrfKI/R4dxDyrFRy2tO+Hxjf1WotbVotexjOySjKrR5sPJLmSq4W0pe8pP4zxCwEOIMsee4WiqeOylRhjqSsnUwrT+sSgre9To13HE0W3zewxrjFScZKH9JnxeivNTt7fT7FoxcWNpd39qJlbyjrM8b2ujGcrlhDFIZZJQqs3lk7VJrwrwymk/Dbw5oHgW2uJFTwzo2madI0CyeXPdLZwzXt2MhmLXl5LPdyM7GRpJmaQly1fUniKykmujIsbHZ/pMij5meTaYbaFSAWDIqythR/EuQc18h+M/HHgbQvFGsaVqypc6laXKi9kWcALPLBFO0AAGP8ARfNFt7mHJ5r9Uw1pUYQinKy5n6trVpX1vLTytY/ApxSam5JNqyvtbTbrq/Psf5r25sYPBBbeQQdp6swbG3AZiVKnAwwx0NMBGdyq2dhWRjuxjBXdwehG7PYDBweczSoGbazZUPtAQPkELllxkADoDu4ON33hkQAuMgFV27ghCjJXnYMHccOcjf0B4IzgnpOUcznAGS4DFj13HO3p3OSAM4xxnp1sg/OflJVm4ydoOEAOMFeQc4B+VsjqeRCqfdjKpt2jlmO7G372cAEADbjO7kHHGTaUjGDgjcCpchd3XPzHDBiPu4OORg5IoAp3FwbeB5xH5rApFChOw3E8hEcEOc5LvIRGTwQrtIcYbH6Ofs86ZC/wS8Lxs8b3Q8Q+L2a4Vgv2id9evBcTTI6PFucoWSMq3lQGNdzBQq/m1LJ598AxH2fTgj7ziZGvriNjGONxBtbJ2JPBD6hFkF48j9Ofg0Y9N+CXgEMuz7Tba9qwjXcqTeZ4g1u5R5CpO1pIRHIJFXzMIGXAYZ/Y/BG3+tOYVXtSyPENtdObG4Dr5xUrK+v5fnPihdcP4WC3nmmHdtNo4XFt6at8vMnt08zU8IRRtpNldbiZLy/12dBIn+sS61/VpFYh3ZS+xhhlyo4XaUO2vgf4sAL8TvH4G3fD4q1JVIIxu2Wwk6jcVG0bQAYwwPlseDX3z4blhh8P+G47gL9rl0yCdo7ZBiM3clzflo0DMdoe62xvl5WjUM7eZvB/Pb4gTwX/AI68a6hbuzRX3ijXrlWQFgVOq3SBgWUgptjQseFHUBhgD6nxlr0/9XMkoJ3qvG0W1pe1HLqsJbdpVYWeujPm/DOnJ5zm1X7EcFOK7J1MbTlFLRL4acrW876nCTebsneMxNIsUzxgvGkZZImb55SQqR7wBJM+Io49zswAJr5E/ZvgA1TxFNeri4X7RCvltC42hLFJYo3jDxNGkkkgDxyESRyZXg5rtf2i/Fkul6RpnhLTJpf7R8QvJc38doJWuZtKtz5Vvp6CFfMZtU1AMPJRSJ4rGWORDG7AyfBvwprfhrRIbtZ4WvNXiW61HT7hFlsLXzFV47eG9tWaa3uwEhS6ms/tFpI0SxzWkqxwzx/zO7yqRilrBtvytbt6r5n71Ri6eEqzlZKtaEE9G7NNu+9rKXls7ptX+iLiJmRZVCjypOoIBORnLAkblAwcLx0JTJIHIeM9WstE8O3Ot3j/APIMRpFVSCtwkxWC8sXRhma1ngO6dE2XKyQxPbFbhYAdmLWbYfutTik0qYNj/SpFk0+XcQqtb6rCTaPksNqXBsrvLBTa8Vn+JvCGm+LbWGz1UySWSSG6hhhlQ2tz/qZFM6+WzXDI0EYg+YIhkZsE7WW3e3u79LnPT5eaHtXaPMnJr+XsrW3/AOCntb4h8feM3+JWv6HpelzSJYK9vp1kb9St3FdXr+V++ulWBr+KKWRmgl8m3mu2MIuoo7lfMq38RP8AhFvC/h6z8A6Te3msa7pmtHUH1ATMlnpeqjyo7sSYQC4id4C0iKMSSJiFY7WNJpfoyD4C+B7fUYdRjGpbreaGaKx3gRgq6spiKuBGocbiGR8sFA2Y4k1T4JeDNU1fUdYvLS+ln1C8e7khe4QIJmAOxBHHgW5K5MUrOzAt5srHBPI6VVuTajzSsm+ltG+vSy6a/NnqxxeGi6cYOp7Omm1HlSblsubuldyf8zknLseCeFltPHvxR0Arey6tFo2jafbX+pSQ+R9vvbaCO3Aht18pV0yFVeO1WJNkiWyyXPmMXd/tKYxRb4oES4ukx5kcbgRQ4OF864UPHbDB2iMCWbZ8kcBAzXH+E/hp4c8JRXMekQzw/aZWnnaa5JLBgq+SZY0ikMCqgjChgCmUm3hnDdrJFb29q2944Y12qrfJb20YZsqpJAjTLEgAlMsSFGDg70oOEWpWbbu7ei3873OLE1Y1Zx9mmoQjyxT3ezbt07JdvNnneqLONYkeeUTTQ2dqmUCqLaR7m5nRbaNlYhWLQFml86dwu9hmSNR/Rd/wQF8Wu37RnxS+Eck8jWnjz4bQeLLa2LBFfUvh3r8Edy6LwZbm40Txhd8IcpDaysc7Sy/zsR2bazfXN/AFNpNdW6xXRaREkhs4oo4jHklX3iOSQPGOY7gSkZCV+l//AATL+Otv+z1+3b+zh42n2SWOq+M774f6naytKq3GnfEfw/q/g9FZ0DCIHXdW0Fklk3xRyojMCgJX5XibKKGfZTmeAxKk6NWl7SXs05Tc8NOliqUYRs+aUqlCC5VbmvZNNo9vJMzr5Lj8BjcNJxr0p21bVoV6c8PVcrONkqVWd9UuktLn7rf8HB/7RFr8NfgboH7Pvh/VAniD4l6uv9v2dvNECnhDwDdaH4m8VSS7C0nkax441X4XeHdrbQzeBvE9qPu3Kt/GfKTBFC1wY2EGl6jcbZHaJWnuIr6G3RZsOVbzZoCHQhRsjAU819uf8FS/2nbz9p39t/4xatb6y194N8AeIvFP7O3gyN5ZIZ7qf4Y6l4gvfHOv39pNHCtrd+PPipb/ABH8XxQKVng0HWfDlkW3WqCP4y1iVdX0yyl0+38pdQt9KsIDOBMtqJXtpbloZjgvHA9sSy7SPLmWVidqheGWHoZdDB5dh4KlQwlCjhoxul7NQpRTUpJLmk5yrynK3vS56l7yd/ssodXFYavjqz58TXnPFtp3dSdapKrCWuyjSp4WlFLVR9nBLR8tPSoJbeyLSSZmmhit1WQFvMhR7q53lseXGA11G7sDkhCAATtG9p1yso0y1LytJq01vLeFdhaGzvbiHVroqzbTEsunWtmC8jZW2M7Lkt82fqNhLp9vdxqFe/XS7yLeNz+W48s/uY5Pl/exwu5Z1KsseN/yshsx6fqdxZanGkbJqM9prelQXFpuEVvHcR2mlz3xHzJFHp2mHVLpnkQJBHZOzsCKyqONSDnzRXNJyT6bfF5xjq762ce1z2FGeGlCE1K1JQjNatcq5eeDu9KkrJO6911JNNtK/Yf8I/rPiTxx4JupdOjGheOvH3hDwto4kaTZcXs3iLw+mq20YI8uNLTS9f8ABSeZHgre310jceYr/wCmbdaRZxWsmjyWqfY7aFtP8gxgxfZbceRHbgADYI40RUIGQApG0gV/CT8a/hDc/B39nX/glz8Qf7MaDUfFHinUvilfyXAEkZuvFXxs+GHjjw9ZTxuwDtB4Hu/C9mcum+ysfIY+UAF/vt1S1W5u7mUrgSTSmQEEAFpCwbhudrHDAgjgHtivxrjuvHNsvyarQ5XCjis/wHI9VUWAx1LATn/2+sMp2vqp66to9vL6lbA5piXWup4nDZdj1UhJxcJYujHF04xS1XIsQ/eWjkk42smv5q/+Con7CXjPwt400b/goD+ybaXFj8e/g3nxN4/8P6Jav9o+Lvw80e3kOq6mNPsyg1bxl4b0VbiLX9IcS/8ACb+D1uoWR9TsxBq3zzrX/BMj9mn/AIKGfs7+Ef2t/wBjP+wP2f8Axf4p0ee38TeAfDdpGPhXp3j/AE5IE8S+F9S0HSoZz4EMjXKXuma14W06fw7q/h/VtC1HW/B140887/1c3Hh9dSgeJci5glW4s51AVre6iO5JAQMYdhhxgh13KynJB/EX4b+Cm/4Jpf8ABQHSfD+hwPpX7GX/AAUP8VT6BpmgwQj+w/gh+1hai71CDwvaKD5Ol+GfGjXt7N4SiVADpmu6joCp9g+H2k7fGyDHZpUwkcDhsXiMJm2WUnWyXFp+1hjMuoy58TkuNpz/AHeKp4KMpYnCxqr2lOlKpToyhKnGR35lisIq6xk8PRxOExclTzLDTtTdHFzguTH4WpBOWGnjVDkqyp2pPEQSnTlDEWX8pfxI/Z9/az/ZK8Rt4S+Jfwr8QWGm2nny2v8Aa2iap4k8B6zpls0Stq3hLxP4XGpW6WDbl8yTw++sW1oZP+JpoHhkE29W31q1n0KDxxrOkX/gdQ1tZWPxIt0t/HvwtGqukhtND1zxf4UfULPRbm7hjvNP/wCEf8dWnhPX5bSa+trayuopJTX9+X7XPxL+D/7MfwF+IPxm+Ktu83hTw5b2lsngi20u11y++I3jDXLtNL8IfD7wr4du1aC/8YeMdcnt9I0ZIFBtnkuNUuXhsdPu54vyB8P/ALFv7MngW1uf2vP21ZdO+B/7SniabT/HFnYfBnxpffCqx/Zx0WeCf/hGPhP4Tm8OXtn/AMJj4jt7HVRZfE34g/E2LWP+E78U3F/akWPhW0sdOH1kM9qYmjTq5tlLo42tNYbD1colUqPNcSuV1FRwsoz5YUnOLxjxFPEezjOEKanOcGYUM+xWCnPDZdjYYnBUqft8RRzVLkwFHRQcq6qUZ06kk/8AZPqeKp89SM6lWFNWcf5Pfjdo4juvCb6NeW3/ACG5NM0TUreeG8hso/iFpUGliNZUMDvDo3jv/hXOsQxXRjkK2sU80cE8rhfvn/gjzr3jLxV+0B8Mv+EUsGtNZ1S1vNf+HVy7lY9I/aJ+Evh++8feCfCNwsvlx2lt8W/BGgXHwpufNZra5sdH1PdI08StXRf8FUPBfwT8TwfDX46/s6ava+LfB/ir4kSfB7xr410zw34b8IWd38RLKxuPEHg651G28C2WneFr/wAX/YLiKLxBqWmaRoeqX1pB4Z1DWNDt7iC2v9a53/gic3jf/hcvxJ1Lwx4K8QeKbr4eXVr8dNFsNHW0l1OytPhV8WbbxTbaxYWFxNBLqdndeHNYbwld2llKdXn0bxJc3WnWmovB9gn+8yCmsxy3CvEUKtKtTxUKdWnXiqOKpVY1anOmr3hWVZfWI80U9qsoQjKy8DiTOY0p4zF4CdJ0sRgJ1V7FzrYWoo06EGoOcV7SCpxqUFzQtzSVODnJc6/0CPFP7QXgrSfg34a+Ltu9w9r8QPD+j6z4K0uWEx6ncXWv6TBqMFtcwSbDayaRbzn+1/PMRs5IJYHH2hkQ/jRqmoajrWpahq+ozG4vtTvbq+uZ5VMzyS3M7yljL5ThxhgEwxUIFVflAr9Yfhn4j/Z8+PXgeT4cWsOlyQWl3qd//wAIlPcT6frWl3uoahfarf3GmWt29trOmTLeaheTtYNb2hs7eY2v9nxWMSwJ2Gi/sx/DHw/psGkWh8STW9q900T3esLLPtubue7MbOllGpSJpzFCAg2QpGnJXJ/V8JXp4KLp14z9u3Fym4LlnH3VzRSk0k9Xo36ux+E4im8TPmp8saWrhFSb5U2rR5nyylyp2vJKWmqTlY/y/WjVt7IwChw+0Z2jnapdgxwCmQTlhtPBwTmIqVL/ACqQ3zLg/e3KGxx8wUAjIGQSQSy1I5diZBwjq2cAnA4GSoJDbDuCjeAg/hPWmMR5TAuCA4x5ibSgBKg4Yg78EjGWyNoI5xXSQSIWcK33hgKvzkZDKoOUwT8oDlSTkc8ZwajurmOC1knMXmMu1IYo1LGeWRlhht0VccyylI0K4Zd+4gqGxMNhEYYlDlyqkgfJzjJ4xuIwBxgbScA80bkl51fzFFta+aqkNkm/LSRTNgg7FsoBLGoIB8+5kIb9yDSlJRTk9EtWVFOUkkuq/wCG+ZUdxY22yYu8sCzXFzKvAnmkLSXUgQ/MTJMWWNTkbBDEAQQB+gHw81tI/gp8PBHatJFH4FWaVGmkCm+vBqNzdW6OwKgNMWiiYfu2mPmxoykEfngJor3Ul0kyR7BbjVLpVY7pbOO5W3itvvlit3cttk+UIbaCaNcGVSP0U+FjJc/C/wAHJGP3S6ZLp7gKNpNprWoWMyDAVRl4mCiNCyklTnKmv1TwbqVP7UzyVOThOtlHLBcqfuxxVBzTTi924J29Otj4DxOhH+zcrThzKGZRcrtpRlLDVkrWabdlK3S19FuSeGtegi0vwx5EFwx/srR2AJUyJGbS3/dPIA4YuWOFXhQoGI2Zinw1qF8GkvdRuJ0ELT317c3UmIkhiMs11dzzfMyxogMrMUIWNV+8cg19z/Dywjm8OeFGEI8yCOGwkM3zeXJp1xJpuAxV2CJJY5dNrMGVmDBggr8K/jf8RfEF74t8Q+DdI1W/h0DRtS1Hw/Laaf8AuF1e8tb+a2vXuTbgXE8ct2stpb2nmG3CwonkmRyT6XixUxEsu4fq1bcsp4lrlXV0MJp5pcrSvro13ODwzoKrjs5oQ+KMMNJyb2gq2Ji3azV25Qk7d/Ioz/218X/iRf6rpdhJDYSTwRW5mnaLUV0Gyj/0WC1iUkWEF9DE9zfvcizaU3TRfaFiZLa4+4LS0kit4LKEW1jBBbw2tvAu26eKKCMQxcII7eNiiJhAbhcHO45YHzH4P+Dk8LeFYhJFGmoXwMt5LEDskl34mIZsMQ9yHjjOF/0S0snGflr15eSFH7v5QTwMYG4FgVOQ5OeTlgQCARX4hT5knJ3UpO72+Wvmtz9ZxNROSpQjenR9xO2raSTu7dGrLTu1uUV06FfNJluJCIzl7iZnjAwwZWgVY7Yrjf8AKYDgjJ5JziXdlYWgaVJGsZWUuk2nzy6e4XCoSYIWWGVmKjG+2m+XKDG41vPbKBPPc3kkcCYJkLx20aqxJAedsyAgkIr748llYKW6147mxGf7OsZbsgArcwQtJFGcqZC+oXskcPzAZfy7iTLR/d3JtN3b3/r5mKvHW7bf/A6Xtpocs58SG6Q6bNqE8CrEijWH02ztc+Yu+RbiPSn1B1Cb8KtjdK3PmSxYBG6l5f28hjn0/UXdSuJIr7S5bWToMs2LO6Vi6qQhsiRlm+fjC/abm5Rj9r0XT1HBJu01C4Xa4fLKJrO2jYhmxukuANy5EiNzaSwsXGLnVW1IPlX3Xscdosm4MYxb2Jt43YfKnlT+aTyGyM5Q+23ok79N31V/16GfNqN3LPJai+htXbmW0sIW1PUSpBHz7o/sdoGGDvlspgQQBNwc5V0ltIFitklu72e6WzF/fTfa3tJJlkM8kEkhmiFzaWyzSCLTkjjt3jU3EkJOxt0SWDxtFBc29rYgHzbWFDZyzOoRWN0Ntu4CkbTDGqtJwZZJFLx1BAiXOqCEKq2+l2UbRLH5ZRLnUXmU7UQ7QsdlZhlBAX/SCEA2knOrJxhJrfZesnZfmVT1avt8TXp9zv0X+VzVgt4rSFQmEhijMUQ3ZUbF+TnaWUgcuW3Z/ixnFYHh3xh4k8HfEzwJ498IXtrYeI/BXi/w/wCOPC19e2Nrqdlb3/w+1i28W2F7c6behbK9sTqml2om069MdrqCkWdzJHbytKnRzEeV5KsMbsEgnaVBU4C4O35Scrx1xwRmuasRZPqs4ZoVt4LNrNmkEa4l1KVmljQMdqNFbWis0fIKXKvjJYVwKLlUjSV7Jq7Vt7JybumtNlo1dWemh2RkoRlVklNr7Er8rjzL3XZppSbtdNNLZ3R9HeOfg98DP2iviz4r8B6JY6H+xZ+3DefEaz8ban8I/iF4v8QWn7Mf7SniCXUdblvNV+FfxB+Jeqan4i+APxW8Wx69qiyeAfiZ4l1v4ZeIdeSPSNP8XeAtRgitNQ+T/EXhHxt8NvFdn8L/AIleDvEHgrxp8PfFPjPwh4l8M+J9OvtG8R6Dr9rew3ljaa3p94q3Mcj6WbO4t5gXstQtr1b2ymubC8tbqT98/wBqP9hO1/4KU/safs1/G/wPpDwfHvTPhV4S8J+KLjTbaynu/F134EsB8Ok8RxW13dafHreqND4StNF8UaaNQttT1WystB1nQ1vvEXhyfTPEf5QfDr4yS65468E/sD/8FDdVurrWfBviPwx8MPgB+1nJa3i/F/8AZy1XVdWsNH8K+C/i0uvpZXXxr/ZZXUby107WdB1y/l+JHwVtBe3/AIC1ezttJ1LwLLx4vL54ubozjKOYUoupFuLjTx1P2UaSxGHrWVP2qjKKrYV8rpzaStCVB1vtMHjqeXYajmeCqQrcP42dOjWw0K0amO4excqrxNXLsbh51JYqeDk6MquX4+cJrF4Ncsq0sdQx+FwXy5q15/aOjTazb+VKLnwVa3W/eYmS81JJbeCMthkJTznZUjPmSSKyZEcikfZX7Lfw+i8ceCv2yNVkiPm+B/glBoPhmaaRY7G28TfG/wDaC0b4SWWtXl1Ntitray0HUtZjWa4khtoIpzPcTMkTMPjfxl4O174WeLvHnwc8Z2E+jeJvhv8AEHx78LfFGnXClxp+pfDrxLrVrqUEjyiKR4LddCiktZ5IwHtru3uQAkyZ/cL/AIJWfCTS3m/aP0T4q6Xp91Noc/7JniF7jWkEOjafZaX+1RrGs6tLcWl3M0GoLLpej3TyT3VjegwQ6hIVt7eaSvgeIcQ8uy2rOLfNDFZeoxUbznTqZhhacox1inz0pVKTu0+Wb0ldn2WFnHF1ou9O0sLiqk1zuMXKnh6lTncrSd1U9jKKSlztbPU/QD/gsH4f+FPjn9i7wzpPwaj8RePk/Zx8afD2zsPEXwx8DeJte8CaF4Ni8JxfDC6u3+ItjpMPgGCG216HwZNYxWPiO5S4urRYwYk/fw/p38Ov+Cnfw3Pw4+HWrfET4I/tn6JqGoeBvCtx4g8Qw/sq/ETxD4VutfTRLKLxLcadrPhRNd+1acutRaiYbx7WAXMSmSGM52VQ+P37WH7C3inwH8S/gv8AGD48fCTw/wCDviV4I1vwD4iufEfxD8FeELW00/VrW606G90keJ/EGjXuonTHMOp6JeeG7DVrA3OnWxtbnKqteDfs4f8ABRj9jLXfhp8Lvh34k/aF+B8vxF8K+G7DwDrkulfEfwVZWniDXPB5bwnP4p0y4vtV0C2+x+N59NXxXoUaSyXupWWsxTxW0kvmrH+SQeaVeHsPRp8LZli3gsyx2IvV+txqfV8wn9YlUjWo4aEX+9g3Vj7KSgpQk3ZtnfKOWSzaX13iTC4OFXCYKhz4WOEnyzwmGp4aNF069eppJU+ZTdaEua8dXJRj9w/Dr/gp7+wT8QvGGh+BtI/aK8NaB4+17UdP0XS/AvxI8PeOfhX4ov8AVtVuIrPTdJg034heGfDivqV5ezw2VvbRTyNcXbrBbmSQjPvn7Wv7Mmj/ALTvwd8W/C691I+FtY8QHSta8CeOIoBJffDH41+CtQh8Q/Cj4mWHy+ZFN4f8U2FmmqxR7JNR0SfVNJZvL1KQHiLn4PeH/E7+HvFU3hjw/wCJ20+40vxJ4X1TXNA0nXLmwu7NkvdN1fRdU1Cyu5rO8gkMVxY31lNFNC4WWGUMA9fcPhNpNZ0WIaihF00MRuMjBO/lbgZAw6SKGJwGDAEjni+GcRQzbGxwdDLsZlePw3LjsP8AWcTDEU3icP8AEqVaGEwsoc9ONSjUhOMm6NSb5pNXMOIsBHK6CxNPNsPmmExCnh6rpUfYVqcJqDh7Wl7WtCThUSqQnGo4+1pxdlHQ/nX+M3xi8WfFTwj4b/bJ/aZ8MzeFPCH/AATi8B65c/ED4Vkwyxav/wAFELa8l8DeO9Vh0C9YLrGifC7SZvD+rfBe4ulu7Hxdqvxb0a402P7Euo3MfxJ/wTw+CvxK/wCCrn7SOnfGn9snwdY/Fv4F+HfC3xC1k/ByfxHp1/8ABj4J+IdU+xf8Kkh1XRdM1221vxd8V9bvtE8Q3njXWPF0F94h1m1torrVNK0fwXN4b08/s5/wUl/YY8ffHv4TfHTSPgza6vrmr/FnxP8ADD4geL/h/a69pGlv4y8cfDrVbDQJbyx1LxPqOl6Fo8eqfDRLWynt7m+s7O6v/hz4Mgd0nnN0nmn/AASe/wCCevx8/ZR8H/FzxD451a8+FHjH4j+DrL4feBvCNh4h0/xrqvg7SzqN1r2v/FLxlYaJqd14Ak+JGp6ldWVj4U0y21LxAnhPSND3alqV1/wkGo6JD+r5I8JhsZ/aUoxpyjiKkKNV0rrB4CnhpU54KlTk6leVfEZjWniKnsIxnODptzVOlUpP4PER9tleMoYidOVX2VKnQwbm3LEYueLo1pY+coxp0Y06OXwnRpzxE5QjODpRpqpWpyh+Uf7V/wCyh4F8Bf8ABO39uvxP4I8L+HdC8G2H/BRnUPiT+z/o/hTRzZW2g+HvBPx48DfCe/0zwqltcvpth4T1DVtP8dWWnaTo2nWcc7xyXt9NfFbCOz/aH/gjx/wTsi/Z18D+H/iZ4wsjpPjqLwP44+EWt6HJpsUf9s6Rr1l8Fp9Q1C+vCVuDeaR4s8A+MdMKlZBPFqrQpObfT4DN9FfG79kDRL79nDwV8CNAmuR4M8MfEX9npJrPXHbWr+98PeG/i/4N1C+0uG6ZATqmuagqanfarfC4xfT6rqFw081xhv1fEa8lcd+AMDJO727nOfXnua9rhRYnFLPsbiqMqf1ziLFYvCqd4VIUPY4SNG6UrpqNJe0UuaEpTqPlve3j5xiVhcPleCw9ZueHy76viEuWdG1SMubkbVnzOrVSaipQVOnJSbakee3/AML/AADfT6Rf3PhfSv7W8PxWsWi6/BaRQeIdLWzhjtrc2eswouoRssEaRP8AvmWaMFJUdCVPX+UF+VpDKwzmRwAzehYRqqbsYyVUAnnAJrUZcAex6+uf84//AF1SZgCQSox6sAfyxxX2PNJNKUm4pO17tJtrRdtummzZ81B6/wBdWj/JvKtCAGikUZJAOQFKr8u4SHOQ3ynB9fmY5FQtt2N0YllOGByFwThWAYMSWyw5CAcgjgv8x2CeZyECgDBOxhgMh3DsMBcjHJC8bQYGxg7V/dsCuW+VlOSN2V6gNgJjOD8vXK17ZypX8l3e3/DjL6aWC282LieSSO3tlbDK9zcS+VAXPdImImlGN3kRTH5QCaxzf6fDNFoYlUzw6eboRE/v3hjm8meYIGd3nM0iyzgozAT5T5i5FDxDrH2BlMZEk0I2xpJlom1C7idEef7jNHaWDTXMyKyuq3KqCkzxked6DcXC+NrTUIGub221SwvLe/lB3zPf6fbXc9teqrGJYYLyGW4tBFEyQCS3sgqRht54K9Vu9O+i+Jpat/yrbbrtrdO1jvw+HfJKrLRJPl9U0k/T7k72Zq3kl9beO59VsV82HTdL0lLx5pTaxXFldwX4vdOiV4ZJ47uNVTUlkeJIYpBbwkqZ5HP6ofs23w8VfBjwdq4s5oLa9GpyQ2srI88dvLr16yI8iCMTSESKZXiL7PMzvdlJP5J+JtZnmtfFV9GZYWc6nDDkGORFiD6XbDZvLI4EMLEnI3j93ncwP7G/syWVnp3wE+GsIliaM2GrASbg52weJdVtyuyRQPM224RyoJt5I5BuZFjcftPgVSjW4nzOlJ/u45JWcV05vruXRevXS7s+2vVn5v4sNUuHcvqtJVHm2Hi29rSwmMltbR6JX+V9dbHw+s2TwpbS7UCrqV3JGoRnMCHWLuUAHGSC7sMMo2kAYBBQfiBrPgr+1/2k/ixNHCIbbRPib41S0kkAdoNRn8T6t9nlHJVU0m3+1a1KWyvnwaYDt+2RB/6A/hnZxx+FtOtmxNE1xePmTyxIyPqd26NJIwAVA0hBZsIcv8pUqzflf4q0CytfHnxCvreW2Mmr+PfGuoyy2UIS3f7X4k1GY7GZiZPMdVkurgEG4n2EJHbW9pFD9d41YanDh7hZKPI3iJOTSS0WCpOSWqbvLR32Sex854WYqcM44h95yvQpqF/eSbxMkm9l7qV13uulzEhhtrWKGCNm8q3jjt4IVdSEihVI4U+UfMFRApIxggFzyTUim/uZI/sghso0x+8ciefrklYgVgVs9C73IwB+6JqeKK3jKFfn2rj5vnJwPYAduh7EnHGKsMXZUEahCo+RueoGMYIJJJ4IHzBcBSNxJ/nF26Xe2r9NrH7Cpbuzve7XXpqVWsraJvtNyrXEyNjz75hcEnB/1cTIIYMMG/494osAFuoGJWuRIxcI3Qr8x52hAvXAGSpOOg645JxDdyxwLG95LlSSse0mRp2BJCwwxl5JWA3Eoisy8llC5qg4uJgx+eytePlQjz2ByqmaZfltcDBC27Sy7iALiNgVqQSa317+Wnb/AIF9QuJ4YBsZhLKyqUs7ZEluXGdrs0QASBNpJMs8kcfUNJ0xCf3p8uS2t0Crl7doY7llLEbPtEwQReb5ZVxFEJmCHc0uAheKCJ3c2loFilJDXE+wOIFYnZLtAZZbudQTEszuQR9pnDxKFk1v7A08o6Wxu9OnkaR2vLa+u4pDIw+a4eOd5LWaZ5AHk863lR9xDJhtpb0dv08kUZy2No7BvssLs+AuQqO3+z8gR8sBhfTAQr90Bmi20cTavKitDHPq4gjRXkl3JZWNna5yzsVAuGvCqghBu2qiknK+RqME/wBnb7Pd5wVWX/R7iS3JASaCZE+yzryPMjlgtXhkZY5JGBSSS1pCs+lwzYMc11Ld3LxA4YCe+uZgQwZ43zE0Y/dSPucHazKFI58RLlhF95W+5X/X8DWjG8pNvS23a9tl3fK9S26CNXl5k4lmypHAjy5DZCg5wCGODncc+uZ4bs7ldIF4pXOpNNetbzKJIvLYLHaqQq28y7bSOB2I3je5HkOMZdrSyXFrDp1uH+0arNFp+9UyIoJiJb2WQkjIjtIJgThjkgBGVs10sUSRRxrCSEgjWKMOSVVYVRFjGWGNqx+WegyfmO75RhhY3lKd3pp835731NK0vdjFaXu2utlayt63+4/pU/4I4+KvBnxI+BV78Lby1trXx98LPG2rRWtvF4o1Hwnrmq+H/Hk9x4l0H/hGdUd18Laix1W08S6d/wAIvqdjc6hd3Oni4ttJu0uN8X5G/wDBwV+yQngT4t6H8f7VPFC+GvGcTaD4l1HUdG0y18U6T4v3Fr+38U29vHpFpeE38kd7p2o6amjSSP4jll+zG9iu9l3/AIJ5ftH6N+zH+0/4J8YeOIkn+Efi3d8OvjZpNxALyzm+Hnim6gWfxFJpzK8N7d/D7W4dL8bWMU8U4MGlarZRxyDVZFb+2z4//sL/AA/+Pvwpb4W+LNJsfiN8OJPs2q+HdJu9XtYNd0V2t7gR3Pw2+I2pad4ktobG/sdQul/4Q7x9o/i3wFrFnftZqvhy0aK6h7MS7xpVaaisRRqKrScpOnBzguScJStKPv0pyip8rcHPns+Vp7ZRiKeHrYmjipVo4DH0Xg8fLDUo18TSw8q1CvRxNHDyqYZYieFxmHoYj2H1mn9Yp0p4aVWlDESqQ/z8/FWh6J/wUpuvBfxY+Dvxf+HF1+2Frvwx8C+Gf2iP2aPHuoTfCz4gfGb4vfD7wofhvqvxk+A3ivxeun/DT4k6v8XfBXhr4feJ/GPw7uvF3hz4gr8Q4fFK6PpPiRNZtZm/fv4m/sIeOfHOm+I9N+H+t+Mvgf8AGj4xfCy0srGfVLTTbODwt438O2vhr4taHpHibTfEOki70Z7fUvHPxb8La7Lp9/Za7oC6S11awvNZrZN+dX/BUr/gh6n7N3h65+Nv7Lbanf6b4W1Lz/FngTVNDPhfx/4SE92sejjxD4Rj1DU/D1/ZanO6ab4d8f8Aw6mh+HfibWNnhSfSNL1fV9Dur/65/wCCIP8AwUv+JP7UXjZP2R/2gdU0/wAba74e+F3iDxf8D/GPiCOW4+IsN78PUsG174e3PiW4drnxbpI+Hd14nvtFg8Qx3fiTSNP0WWzstYm0w3Gl2v5px1l2Z4nA/wBt5DOnhcx4fp4nHYnLMTGNSOKpKnDExnT9i6sKjg8JKth4yg6WISqUqs6FWjKMfv8Ah95fgMRQyvN6qzXIuIXSwWXZ9gfa0vqteM4UsRh8TSxcMPVo1KUcRRhjoVLV8OpYfF0FisDisNXxP4ka7+zN4b8E+M9S0rxdpWi/Cv4n+G5JNO+Jug/EvXdPvdZOsw/JN4p8P+Ndev7zTfGnh7WRu1LSfEuharfabc6c1tHdf2ZqlldwH+zb/gkV+zv+y74w+CGt/EHx58CvCWheNfivp118P7vQvF8mk6t4T+KXws8P6nJrmh+IPBHwO8THVpfCXgYz311pNld+ItJfVvFn9jXPimO8uvDWsaBPL+glx8Ffhj8QNMtYPGHgHwF4r0+ze3+x2PifwT4c8RQWv2QhrVrSLV9Ouo7ZLVmza+SqLESxj27jn2Pw54P8P+Hd6aFp1hpIldGnOl6fp+lCZ1ACmVbC3gEmxVRQHVtqqFHA5/Ocp8QsVN0cTistxGMnGElh/a5jSjTozqzi6lVVZYapi69o89OlCtOLjSk41aladqq+gz7JsNLDyy7C1MJg0q1OWMqYXC1qc8XHDQ5adN4aNSGCw/NLlrV3RpzhOvCFShSw8F7Fx/Bn9lX4X/s+/wBvaF8F/N8KfDHV/sd7pHwqEt1e+GfAmsW7zLdr8P1u7u4l8L+FdXt52e58FW4bQdK1G3iufDMGi2M91pkn0HpmipY3XmpjyZImjdRgKjkggYwOjDdxjaD6Vy2nSSeWmbmTjGGZ9xxnqd3UfoOmBXRLdXLoymUpB/GzHLSKMAyFV5C5BGDgnjoMNX3OFx+X4+usynl6pYtyp1OalKLcppJOVSSnGykm41aklaaa5uaR8LUw2JwtJ4OninOhrBRnF6J8rtBNdPijFbSbSSWoyGzhl1C5CyArDMrMflIYnkIeoHBBI64ZW6GumtfKZHO1ctLt9B8oG0Yx0B6HIOOfXHzjrvjSTwV8ZfCejvHNceHPjPpOt6Jp0iMZRo/xJ+H+hX3iiMyW6xgQ2Hi/4fWev+de+Z5dtq3gXSrSSPzNejkHtVnqJiiBcfO5LBGJyFOMFum3jr+XpjbDY3B4WsoKVP8AfKvXnUp3cVFztGN1dc0Zc6tpLRzSSlpz1aeIxMJO04uk4UeR2UuaMYSctOkk1K+iV7b7838T7qxs1+GuiMivd+Lfi34H0zT4AvmNdT6DcXvxCvWwAxH2TSPBWo6g0mAI0s+So5HuCggV8fWF5c/E39rG2so1Fx4W/Zo8AT32q3aPMsLfGn42W0MWk6SAF+zvfeCfg5p1/qN9DvaSKz+MmiyvjzEx9h199hoRjhsO4R5eemqriklZVFFxTilZPkUHbz2TbR8vWlKVWpzPm5ZOHNuny6Oz6rmvZ6X7WEbofoaosI9x3Zz35H+NXMth8gADhTnO4EdSMDbzxjJ45z2FJlBY/X0HbjuO1aSvdd/Necf+H/q5Md97bfmu5/k1PIrDJydoAJIADgqCdrEruy3UBAQQVxk7Vr7v3iySIyoSm47vl2E72GFy/wAgIO445J+YBcVYdnfBVHcOCgJ2kuMgBv4du7K4YDoMg81Fg5EbIVjDJuAOWIBAIcjA68YDZH3OpGfaMYa3i15/kfPPjKbUrmW31q1S6MVmhe+0tDul1C11y3jv74ranKHUtPjj0qbT445ITLHb3GnoyG7hxDo2pmSO31bSZ7G7NvMstoJ/OFlKcPbzWN2luFuIf3U88M0aqt1btgPD5kbRG9fCSKF9OlaN76wljtL8ofkD2Ea6ZDK/I2ma20yOdY5RvEcwbAO1TzFzo2l3JeWayKzNMTJc21xdWE8x2ooM01jPbNM2BsBnkkKDEYB3EV5LUviej53373T/AD3vrbY92FnShG3uKKs9GmtV15U+11K/3FGHUW1+aw0PyPKurLUVvvFNuAskWmyadePcw6azHh11m/8AIudPUSmSbRI5L11VHjDfu5+zjLCnwE+GEE5IuF0PUZxvCh/KuvEeuSRKclQq+SFliUbvlMedxBJ/BTUrrTPBlza3+n2qRQzRSx6n4f0sGTUNStbZZZotbtrXcHku9JfzU1K/uGSGTTZnFzc+ZZ2yn9rPhrZXnh/4R+BbW/G2bTvAejXMsaymdop7rSW1qaLz9yxXMRa8dYJVBDruMTRxqob9p8F5SoZvnGKSbUMshSvF7yr4mnNf+Bewla3ZaWPy7xZ5XlWVYfb2mPdRape7Sw04S82l7eOuuj0tqz3T4ZXMM3hTwh5kqSfbrS1upDEqqZ5L6ZrpnJAEfzNLkKI0QuxwF4r8jIdbub3WfF0SW5kS28WeI7lZ7qVFMEWp6xf3kdqyQiaeX7NK90uQsUCqsSrPsTav6ceAop7bQ/BdiyrG1vpOgwq3mbwhWws1LO5x8/nGRBMFG8K2zn5m/MPQYkXUvFtwnmIj+Iry3iWUqSotLm5nMbsV3SMi36CQtlmkQljlSK+g8YMZUrZbwxSnF/u5Y6L1bu4UMBC7ur3Wv3nznhnh4wxfEU97rBtb/DKvi2lotG43aS0ly31sjZjkIDyNHtRBIxkZ9nyL8xwCdqoq/eaRlCjP3QpJhE8ly6/YUMcJH/H5cIyh1wzH7JAdrSABsrdXQSEAkpFcrtarEyQvKJZ3kKou6O22r5YlRj++mBP+kEMA0fmkxw4EscZlPmU6V1GZHd2BYMYlBYysAR93aZXd8jO04TO99qDNfgr32t5H619rZ7b629CutqIVMwJeZgVkmmxJIyEBiof5RsXG3ZGFgBwRGMk1XdrqeU2dqw88/vJpH+eCzU5RJpVbh5ZMyfZbdjmc5diIFdqkv7uYmNLcLLOzeVDCxDK0roWMbFWz5cMaPNcMGA8mNgNzBQ2jaW6WcMcCATSYd552+V7i5kXEksx6q8jbUVAdsCCGCJViiSjptr38vT9RhbwxWkLRQqUBO6RyC8kpIXzJJXIB8yXAbcRyv7sJGiIqyqVdSxbhQuxDnDn5SNpDAhlYjsxAGMYJpyhSwbBRiuXUsQFHIP3SNoGMg4LFyCvApUJQ/wCrDYILYUE7cDO1iR93qc9DuBxzSAz9TjV7K4uHPlPaWtzdQS8CZJobdtjKSCHWUDyZFIKyqxVgGwwhijFra21sG5tYoo1IDqwW2hRGaRdxPzvljuOGBOMhc1Y1KQ/Zxa5EIu7m2twrqHEscbG+uYiwJYNJbWk6bwDt+UnjANO8uILaGa5uXKRQo9zcSspO2P78hIJ25Kj5V6nA+X5io4sU7yhFdE3a3Vuy/Lb0OrDwvzSv1tttovx1f5EEMF1d6mbqC6iRNLh8pYZ4vNhuLu7Cy3UpeGeGS3e2t/s0CsBPj7RONpDCt9LyVGxfWpjEasrXUZe7tN20HIkjAlhV5ApAureJQRkyEYrm9IvIp4WW0uLWW5M959pPnrJEbmG4P2+GOW28zdLaSgW9xAyrdWexEuYIAYy2/wDa7tA5jgVivAEVzHG5zhTgzwxIOGJyZBwFAGTuHRQio0oJdUm3vdvqYVZOU5NbbR6af1re2prwSqyBj5cgIZnVsSRSK54XGGVkKnBPzAjIPIK1/dJ/wRY/bUPxT/Yf8P8Ahjx+mp3/AIt/Z812X4MS6o8kRbxF4V0nRNJ1zwDfC61G5gW8vNM8J6vZeGNV8uSSSKTw9DdTgf2hEW/hFiv442KzWN/bkDc7mxkuIzknLLLp/wBqiYMGDNuwzMMkYLY/ry/4N/8A4yfAV/2UvjF8MPHr2cPiTw58cLnxRIlp4c8R6pq2paB408E+FrTSrto9E0rUdQkhttR8J69pUBmhjWNLMwqHKM76OMZRlGcZzi3F8tP4r3irr0V2/LTsQvdnFtqOtm2tLNbN9E2l+a11P1g/a1+KXhX4h+F9G8MQ+EnlkXUr3zr7Wo9HvrK78PanpF7o/iPwxJBDNdzXOmeKNM1GW01TT1aIMkFvfWxj1TT9OurX+KX9q79l7xT+wp+1x8Mv2oPgHPqGg31h4t1Hxr4T1WMK1kniDTtC1a70LVtUFoIIzqK+LDpvhH4maQ1vHp/i3SvEdlrBgjHi7W7K2/sy8fat8Lb3xDbWfw58CeJL4wuDcar4z0668N2kguFkikXwv4ev7Ox8SajfeWxSTWNZt9H0XTI2RrWPxDqObK1/n7/a68UaD+03+138JP2UND1e0tPA3wxu7/4nfF7xmJVk0XwzoujyXMut6lqF2n7uPTNMtPCWs61NcKdl1onw18ZzxObS/wBPuG8jP3SwmAhXw/taOOc/q2Eje1Wq8TKMKuHmuZpw5bVYRnJcmJhRcbSajL9I8NcNLNM6xGXZhRpYrhr6vPNc8+sQlLD5fHKac8VQzSLlblrU5RqYXEuCk6uU4jMaVWP1f2lfD/1C/CbxY3jfwB4F8X3GiDwxfeOfAfgbx7eeGPMaZfD174x8K6R4jv8AQ7eaVUlmtdKutRktNOeZI55NPitpZUWRiK9OiYRsD8xTP447fU4yQODjoK/Ij9hf/gqB+yz+22kz/AzxUNG8R2MRWT4I+MXttF+JXhrw3pUUWnaJc6fpP2iaDxV4ZGh2lkbfXfC1xqVpYxBYNZj0q9jktV/VZ9Uup9Cv9Q0Oxj1vWbbTbyfT9Ee/h0wapqUNtJJZaa+pXCS22mG/uFS1N/cRyWtqJvtEivEjg/yljJTw+cZlgKmBq5bXw+YYt0cHWpug4YZ4icqHs4SfK6aptezcJSpuNuWUkk39vUw9OWBwOPoYmGNwuJwmGc8TTqqvy4j2FJVadafxxqRndS9rCM225NJSR6HZXUe5MEnaBhR/f56j6HPr3wK1bu9VIkXzB5kgw0YYnn+EMBwDxgnqMZPJNfMXh/4n+Pmt4JfEXwC+JHh7UnRTdafZaz8NvE9vb3AQGSOHVdF8bNa3MCvlY7opbeYMb7eIkovWTeNPFU9xCsHw01i2t2mtvtGp+IvEvhDRLO1t5ljae4MVtrWr6pcPaI7K9vFpymW5haGKURMt0fboZ1WoYadJxSk9JOUZQjGPu3lzP92+sbqbhK902jxKuWxnVjPmjJe64+zqUqknKaVlywm5LvKy5k1bR3tn+Mz4c8H6wnxv+JXjCLTdB+GekeJHsWvoDFo+gjxQum6Pc6hHb2sd1f6hrk1ojeH9LtLKCe91CTXbixtba6vbu1tx2XxI+J1n8NvB994nutOuNd1ZrvS/D/hTwfZzLb6x478e+JL6PR/BvgTSPNx5eoeJNcngt57lkMei6TDqviDUBFpejahPDxL+ENI8XeKbHxT4o1xvGUfhO/8A7Y8JaI1oum+BvBmr2sb+T4ka2neRfEfjOwiM89p4m1m4lsPCsbvc+H7PSdRWbUpK/wADPCsnxy+JejftLasXl+FXgfTtX0z9mHTGZlt/FN34ls30rxn+0feWjBTs8S6I0/gX4M+evm23w2u/FPjGP938VobbS/b4KwFXOcdThCdapl+HnLE4/Euq6sLTcZ08PCq5zUsRXqOcHyzl7KnzuKXspRPI4kxf1ClU9pCNLGVYQoYalGjGhKEacVCVaVJQpONOELcspwUqtRqTU03Ul9LfAn4Y3Xws8Bw6VrupW2vePPEmr6t47+KHii0haG38T/Ejxbcf2h4m1KzSSOOeLQ7GT7N4c8I2M6+bpHg3QvDui5KaclezU0AADHTjt756D/I/OnZr+gYuz2SvZWWiSVkkl0jFJKK2SVlsfmW3/B3fm+7fViN0P0qsSuecZ+n/ANarLHA7enP+fz9qqFQTkllJ6qSuRx0PB5/Gpl8d/Lb/AMB8ugavZH+TKHZZDjLfNjHYDHB4yQzDaMdchhuGABGWdTnf0KMWZcSrnaRHggknjAQAFc8E5Aqd2LMX27RIzDPA27myCPl+XO3G7cMDt2EHlsWY7S+FycuCGZSCAshPB7Ec5GBnJ59e67ozgmtX6Wt6anGeO9MuLvR5L/T7GXV77Tbeby7CGeGKW9gZkcwwSXLC3W4gmjWeJZ2XzITcxJIJJIwfn9LbxXewh5/sXhyArG7C0kGt6uYyzBUiuWii0OzlbHyOltqhVikkXOSfrt+VXbiN4z9wKUI2DGCwwCuePmI6lgRwK4LW/DVtfTyHSpBbX5dZbuItKmmqkh83zrhQS9pLN8zRpbLJJcSkTvaeUXuK4qtNy96O/VbX22/H1PQwuJVJezkrwunGW/Ldq6ave3XRN9NjwwW+neHNL1rUoLVkSOyu5729ZpLzU9QaKGTaLi/ujJc3TyNtjijkkWBXk2JFHFkD955dGWw+Hb2sNui3OlfDuOyW3mKYWSx8HG3WOV3JSRVe3Rd6yKOCyOrHcfw98b+GdYt/DurRHTJb1pId8CadMl6ryWdzbXsKSxhrW4i84QiOCLyCZCfLWNnkjjf98/h3NafEj4f+E9YsDHLbeLPA3hy6tSCUaaLWdBgimiMjFpXlHnTofMy6yrIkp3gAfuHgoqUp8SUpSSrvDYGVO+3LFY2Lut7Kc4u/n3St+XeLTm6eQ1ovmoxr45TabspSjhJRTdtHy06mmjauuunH6TYzxW+kXUO1Y/sum3FvLjC72tIJIQGKvFMgyHCBY0zgDKuS35T6dPp1tBLbtrVi08c13cX73M6Wt7Pdy3U815cTw3bRzRNLcNIXymxV2or7Auf2a8NRyHwp4cubopM9tZ6Ut2yxDypJrEraSsI0XCs09vKHjQAIQAy8ZH5D+I4Tp3iDXdOOni5/s3xBrlrE0k9qxtmtdWu4Eija7DP5kccW3fGpdfLcAksue7xcg55fw3iYx5YyljLuz5VKvRwdRK17K7hO22iW54/hnUaxWeUHdSSwkl5qlUxNNtXjd29pG7to3ra5jxN54ie0BRNw/wBNu4pRHIrZIks7WQLJcrjkT3AhgUjMQu1zmW6uraxid3nVQVLyT3ciGWQbSm4hgMqGGFjhiESrtIVRkHKuNRmYy/6RtS0E0l+bUKlrZiKMyyLfajKr3E06IPMa2sYYZ1IBcW6kSNp6fZW5t4Lye1BvDsuFhYmY2ofDRiV5GkaW9CEeZPLJKYJvNW18pQGf8Jdru/vee3Y/XSLSkknnkvphcRwtGllYxTRGBniYLPdXxilVZYzczeTDCzhHENluGY5QTvkkBQdo2FSd6AtyMlsnhAoHGAvyZ5BIBXd99dmS4ZiztkZ5OCR/EM425ALDdjg1K4PBJ+XhRuQM0ndzz1CgYKrhQc5yvFS92+7uBBkgEgZ27dx2oBINp28EjaokJ2kKcYwCelOWVhsXMaAkYywBPzHO3qc8sMHCbgccAGlCFmI+WTKgIXXAJZvlK5I2ncDkADf93OOtR4/LyGKhYSzuzdFCjcznPyqgQEkkr8gJKjBoApXxWa9sE4dIIrq5LZKsHfy7SMfLxsEU12Tw53FQrAA7pXtoZomV0Lxy74niLkiSGVAhXcVBVCHI5Hyq33s8Vy2h+IINdi/tAoIYnaeawVkEbf2P9vu7a0kuGZgBJObKW9kGdkQu4oVClCzdU8zRRzgMCUiaRVVgBu2sscYKgkKzIV5PTk5ODXmV5Xqv5JeXu3t99/60O6jFwgt1be/e60v+P/APlTxvq2s/DD4ipq9gJJtF8RwQ3ms2CllivrqxP2LU57cBittrKokOqWt3EFdn1B4rhbizuJraT6b0/UY762huredJY7iGNjJCFMdzFLClxb3MQ+6FvLWW3u4l+6qTeWMFGx5N8efD41DwomrRITNpFxa6mD8uBbuYtL1AjBICGC60qfIK/wDIPJbcPlTi/gl45jfS7jw9qlwAdDjM9s7AySHw9uO5iUWR2/sO9mJcRrKV0nU94TytLYnppz5ZKEnpKKafS9knvtt001QqkPa0Y1Ipc1N8k0uuyi7d1onpa2p9ORXBy6BV5EahvuqAc7TvwMYBwV4yBkH5ga/Uz/gk18ctT+FX7S2p+FLbUWt7X4y/D7WPCKI8rR28niLwrPH428NbovOjMkz2+neKNOtFJJMmpsSRFJJu/JC617SrWIvNeARbC/mm0vdkYj2k+bN9nKQkhuGmeMdQBjdjN8EftJ3Hw38d+FfG3wuWfXfGngbxBp/iPRZLG3j1KwgvNKuBII9Vunc6NZ2N1EtxZ3Y1C8kzY3E4n0+VWNu3QsRTpNTcrpbqDTk1bVJXS185RXmjGnhK9eShCLg+aPv1FKMIe8vem0nK0d2oxlK17RZ/Vx+3J+31dfs3+CZPCnh28v8AxB8WfGWs2Nh4W8MeHAj+JbvxT4js1i0Tw/o01urSReJNatW+1vf3Aa38FeGJpvE2xdR1LQEu/QP+COn7M+mfD/wN8RvjT8TbvT/F37RnxYWS48SRXFrL9h0T4cavptnol3rXg+DU4ceI/h3Dp3kfCjQdU0xbzStO0iDxJdas1t/wsHTln+EP2J/2StQ+M/je1/a6/aW13TfGPiHxPp91P4I0bS9WuNX0PS9B14x3usDSb+SOzuruTxGH/wCKv8X6jZ6Vrvi+2kOk6HoXhHwPFpiar/QX4X0DS5ZdBaJbjRx4emt5vC+p6H5Glah4Wu4rYafay+Hp4YxBaQvp2NNvdLe3m0TUtJ8zRda06/0eaSxk/lXjjxVwuYZ1icopvEww06dfA4jGYZx9plnPpFYWnJ04YqVN+/jlKVJ16jUaOIozwWX4mn/cGW+Gb4S4DoYXLquFr4+v7DMMdUqQapZ3KMV7enVxVNTq04VU54TLOSVWjgcrjUo18POvxFxRg6v8j/8AwWr/AOCZd5+xX8QNJ/bU/ZUtdX8EfBrxN43todcsfBF3faJc/s9fFu9LXWiXnhTUtKuLa/8ADngLx7Mt23ho2NxbR+EfFMF14XtpodN1bwxZRb37D3/By1+0D8FYtI8F/tb+EW/aR8E2SRW6fEfQrzTPCPxw0uzUrGH1e5lhTwb8So4I1ZjJrMHhnxBcAbrvxRezSFq/s51r4b/D39pH4Y/FT4E/G/wjpmu+GvF+iXHgz4oeEYA0Gm674a8R/aZvC3jzwqzbptGi1GTTjqGmPbyNceBfiR4Z1LT7W4kt9N0W9vf80v8A4KH/ALAfxW/4J6ftK+Kfgd8QYLvUNDaS58R/Cn4iLZSRaN8Ufhle3ckWgeLdNk2mBdVtkCaN400WF5JfDvim1vbFlFlLpV3e/pXBcMFxZk6yTiqjQzPM8phGeCzFyn7fG5bWtLCYzC4yDo4lTjBxjVvKFWWixMPrEcRGH8s8SSnkua1cwySeIy/B46clUwdlGOFxlO0cThMTRvOk0qilOknz03CT9jJwlGT/ANDP9mb/AIKtfsCftm6fYWfww/aF8Iad4rvI0kl+G/xK1BfhT8RrSRwyNbx6J4ovLG31qVDlVl8J6x4ks5MhorpuMffUngjQZpIGlXUJ1cxyQh726njn80BoigZ286GQEFApdXVtylgQR/JR/wAG43/BKH4TeMPAc37dn7S3gTSfiD/aHibUtA/Z08AeMdKttU8H20Xhe4bTvFHxd1zw7qME2neIr8+I4rzwz4Eh1KK60zSn0LXPEH2O51C60e507+orxB+xd+z1rLSxaGvxb+E2lXs00ureGPgb8ffjJ8GvBmsLcSB7q3u/CHgTxnpPhvT4LvBjnbw3puhXLwPJGtyivx81xB4f5BTx1WhhsyqTlTnGFdYzC08SqbS1pwr0p4eU/Z35Ze0pX5tOd6M9XJ+J+IYYWFWOHap1ItwlhMRPCSqcyS9pKDVSCTto6bhdJ8sUuVKmthp/7T/ivXPgl4WacfALwHqZ0P8AaI8a6bNJbab4613TpYZLz9mbwjq0Jj/tK3mAVf2hdb0maS20bQpj8H4rpvEniXxivgz9JbVbSytoLS0jtrW1tYYre2treKOC3t7a3jEUNvBBGqRQwQxoscUUSqkaKqIAoArwfwXpPhH4c+FPD3gXwF4e0bwf4M8J6Xa6J4Z8L+H7ODT9H0bSbIFbeysbSHaqR5LTTTMZLi6uZJru7luLueaeTqjr/P38gem3IBB9f9rjjt1wTmvuMmxuVZDgKOXYCCjRp+9Objy1K9dxhGpXmorlV+VRhBe7TpKNNSlaUpfMY/LcyzLEzxeLnKVao721cYJ6qEXK7fLfWT1nLmm9W7esCdMclfYDj/P4D19KUTxnncOQO4/x/oK8o/4SA8Zl9uo68jPXBBz+nT0ePEGD8zD0UD6dfQ5Poc84Ir1VxPh1/L6/d1uu5w/6vYnu36L0/wA/x7nqTTxkcOvQ5yw6Y64z6c8j3qqbiDJyyf8AfeP0rzVvEQ/vEHkjoe3U9sDpjPt0IFUP+ElHPzE8nn1GTg/iOcdulH+stBu+j89X/Ltr12/yKjw/iUua0t0tu/mlb9fyf+WVKV4yGA8wKQuWjUYBwWYBcDHDAKwwDgbyDCXyylfkj3up2KQGBypIVeR83G5uFUA7iuKtTIDu3tsVHOxFdxuG4qMhRxhX5UYyqlhziqp3KzAjeqhlwQoH3xtI9VySM9/vMFwDX3bbe584R6hdvaWpMMatc3DxWVmsgJV7u5YxxFzj5obdQ91cKcbra3mycEMM15bTS7eC182V2mlBD7TcXup3dxt824mhjUyM8xYtI5Vbe2jAjV4oIYljrx6Z4x8a+MtP8KeANMn1rVLYSs6Wdl9t8i6mVEuZW8ySO3ht7W1PkTXl7NBaW891dRPcQiKV1+jvgz8GPC3/AAmPxX0L4xX01vrXwv1jwdYXVjpeui4bxNaeK/CFv4ut7671K3s4Ly2023lubnRYtL0g2dm1zp13KNRlQxBvluIOK8oyCjXeKxDqYilRjiHgsKlXx1SjOvQwsakKEZJ8ksRiKVP2k5U6d5fxPdlb9Y8NfBvjrxOx+Bw3DmV+zweOx9XLVn2aSqYDh6hjKGX4vNauGr5pKjVpyxMMuy/F4qWEw0MRi/ZUly0JOcU/na6vltQsbwz3c8jP5en2cMl3d3rZA2Q2kSSyyqCMSOY3jiByTny1b9OP2f8Ax7p2j/Cn4Z201nqdpq2jaAtne6Wnh/xTNdWMlrrWpP8AZZ4bXRpigMPlyxNMwkmidJizpIpqnD43+G3gZZbfwjo+kaDbRMyZsFtdPcqwD7Z7sA31y8hSFnkvLq6kmlSMyF2UEc3rf7S/hjwppOp+Jtclf+xPD2n6hrWrTJIphhsrK3kurpkcxnEkwUW8QbKm4ljVVfeBXzPDPjxxXw1jsTjeGuC6WL+t4X6nBZxiq3v89WlVjUlhsI6HLNOCiofWZL337+qb/qbMPoGeHePyujS8RfHClgKuDqfXcTT4XynDvD4dU6E4V4rNMyrYiVWnCNSbnV/sujb2ak6avJLrfDHxW8K6Rbj4fazq9xpnjCK217XpfCV94f8AE/8Ablp4U1DxxrsWheIbi0i0RjbaTqKvaR213OIY5WeRFO6OYp+Znxt8W22lfFbxyJ7bXr3R9T8SXetaLPZWWswabfWGqQw37NZzQaLCL0QXk9xZ3Mf9oTLFcRyxSLHs8pvqX9mz4l2+l6T4l+KHj62K/FT446lB438UTSq3/Eh8PeT9m+HXw4sXaRjDpXgvwo1tD9njSMvrF3qlzKpmkYr9Tn4g/D3xnCLHVrbS9ZtpCEex1rTrHVbb/ZRYr6KdVO9VONpbKjvgD1uMPpGcV5nh8Nk2a8F4OWHyuth5SzHLMTi6TqYinhXQxfsoYiONhLDe2lJUZSlGVWFKFS9ONRQh5/Af7Pvw+xuCnn/D/jFjMDmGdU8TVwOR59lWXYqdDLsRjZV8pWYzweNymtSzSeXxw9TH0qdCdLBYmvXwsI11h1Vq/j1pPihdau9L8O22ganpeny3ERuJr20NjDDp9uzalNapCxWZWuvsghIa2ZJElfzDE0oNewHG4sN5OznJBVzwFYgKDuPzZXjOFByBX3XrXwB+FHigSz+Ebg+CNUl/1KaQwu9BeTbl1u9AuplNojuoD/2Zdadtc7lgkcFT8l+PPhz4u+HF8tp4lslSzuJPs2na3ZM15omptkYSK82RvbXjgeYNM1CK11HYCYormJTMY4Y8QuHuJpRw1HEVMFmb/wCZdmMIYfET0Taw8lOdDFNe8+WjUdVRi5TpQR+O+Lv0YvFLwjpVM0zPKKGdcK03rxPw3Wq5ll1FSaUZ5nTnRo47K+ZOMXWxeGhgnUapUcZWlvwW3OMqxDcn5WQMuQMdAUIIJJyeP7wOTOBtY7Q2NwV95+VsAfd3A9Ojk4YryeTUDyRHCIyyBGKyjzA7JISrhJUU/uWZGVhG+GwVKZXFSnd8pPzbj0LbOQw+ftuA2n5RgjgMwyTX3f8Aw/36r70fzn/wxIDEzOwLKMiLK5bBGTtBZFIU9sZPHB5wPJviv4hm0nQjpmkoDrPiGX+zLBMM3kxtHLNPdzZ2n7PZ20F1fXG7arQ2M0ZK+cBXq7NHGGzsSOMO7M/3QFUlyDneQApbPzEqNuO4+fL5n8W634p1Qqwg02C80DSI2ZJFjks0iu/Ed2mUKNLvgsdBVnRtk9nqg+bzWUzJvRLeTSXzf9L5mlO3MnJe7HV+ulk9HddX5J9tLnhe7NmsWjv5kaSeEZb2KZpGdES31LVvJUqqAo5tgZJWR2c4VNoKZb0+OZHuobiPa8d5bKDPGq+WVjb7XbDeoy6TpcztHtO0Mg4BlJPlulxvB4i0q9+y3Fxa2Phxftc0KSvFaxXlsbiG5MSsUkkmmvniityoaaCO4lSIvaSO3dWSy28x0QK7gXEk2l3kzeW1rACLqys/K8tw72g3xWjPIoa3trq3mZzZOJfPrL95JpaXuvTa6/rrppqehBqUUna9tV2bs/1VvU19RutP1G2udG1SO2uYL2NrZrVpFw1lcv8AYJW1OOYQtHYz+e1s0tqZgkktukEq37WayfDHjPw7rfwn8TwahpMtwbdbmefw/qdxDHdBzCpivtI1aAH7NczQW9w1tewkC31bT7oXMSrDcssP0r8TrfV5vDkXiPQvtkHiPwdJLfRXktrGZLiAJFb+JNNu43hFrqFhPYRC6ubZoDZTf2OwVfmj2/JHjr4o6p42sbHTLjSLHTks703s0tje395DeXK2xsxsF4ZxY2kNvJK62sTuFaRFEzpFFlTmnGO90vd0b1Vrq+qtfX3mrX+/TC0pqdklKDbjVV1r1Ttu9LO6TvrHRq5tn4k+DbgyXM3w5e+1BnM8v9reJf7RsIJpCrNBZx6tp+qSJZwtj7Cko863hVYvOcx+a3oPgH4oTeJfEUfhzVNG8O2el3lrKNItbWGdQmq26q8NvNc3c7/utQtzc6efJgtUt55orxFDw7q+Ud5DPhipAw28MoO0qpCEL8wlTJ5jLEYJ2n5joWl7NZSw39sxS4tZre6tZAjI0cqNlN4wT5LpmK4AJ3I21ODurJTe8+Xl6q1r7XT6626NeXS3oSoJwcVKV+W0bznZPppzNeW2x/YF+wr8W/H/AIY+EHgrx5dRX3i/4apeal8O/E15p6yT6pot74WNn/Y8viTTYrdX0vWV8PX+kvpWtr5tlriJJo2pyWOslDff0KfBDxvpHjbw/p97YX0OpWd7axXtjfWXCXlvO7osigtmGaAq0N5ayjzIZ42hnCSxsE/m8/4IufG3wVq/w2+K/g7U/EcCa/JqFt8RNY8GX9sVkuPA8HhvTtG8S/EvQbplZdatPCWp2Qt/jJ4fiWTUPC3hy80z4pmKXwpp3j650T9vfh9oN18PPFl3eeD7CXSdOvNRe68S+ElniXTdSt7shY/FPhJ4pDY2k95CwvZ7e2aOw1gJcaffxWWpLZ3sP8W+K2S18p4txk8Tl/1L6zVli8tzClHlweaZdXlGaVVvSni8NUm8POrCVm1BYmNFSpVH/bXhVmOE4g8O6WEwearH1sBSVDHZViHbMMlzTC8ylPCvlTr4DMKKWJdBpz9pOpUw9atVhWox/UTw1rumoI/FKMs134NTUNL8TJaYe6uPBd21s3iJTGN0ksujNaad4utbRh5i6poVtFF+71RjPzP7dv7DX7OX7e3wBufhx+0JpNw9p4QXU/F/gb4meEZrS38cfDLWYdJeSfxL4M1a5t7q0vNN1XTIIv7a8OarBeeGvFunRWQ1GzNzbaXf2HjWqeNbP4Y6zo3xHkv4LDw9rd3pei+I7qd0XS7HV5itt4W1jVDIcQ6XqSbvCeuXZCwQi78O3N/5Vnp13cwfU/hX4xfDPRtNtfBHjTxVpfhW11TxJH8OfCsfiO+Gk2utaZ4n0G413wb4fttYvRHpY1pNMj8SeDtGs7i+hudcfwXJBpKX97mBvsvDbOK0sPToU5144zA03VwlSn7tWeCnUj9YhSaivewGJnTrToqyjQxmJxEo+znyx/BPEXIFhMZVxLpxeBx9SdPFRn8OFzGnD9xKs7rkhjKMZxpVXy89XDwoKXNTu/z2/wCCUX7Q3gC6/Zr+Gv7MK+Gr/wCFHxQ/Zu+HHgLwj4h+HPiQJa6hqnh/VtNXUPCHxN0aRm+z6zoXxVt7qTxRYavpct3pV9qmoalZWF7LdWd1aWv6sf20uTud16cFuMdSO5UnoAcZ5zzX8/37Rf7Dmt/seeHPBH7W/wCzZf67pHif9kzTb+x8V/s5+OtRn1z4P+Jfgnrl9pnh74wWulalDpmrfEDwB4Ri0qwt/js3gjQL7XPAOm694fvPEHhXwF4d1q9v/t/3RYfH/wCO/hLw1F4q8Y/sc/HbVPh7fWUN9pni34VeOPgv8c9D0SU3TWN5pV/4ln+IPw88V33hqxmaOfSPFPi3wN4c1e10svb+KVuPsX/CQXf6Bi8JPOsFiM94eqSxSpY2vh80y+b9nisHi6b9pWnTVWpapQqQkqsYqrVdJc8Y1q0abkfL5TmNDLq2HyfPorC8+GoVsvx8I82HxGHqQi6dOp7GPuVYvmhGfs6aqPk5qdOUtf0cGtRno5HPILZ6EYXPsfw9eOKb/bcak/vTjBOM9+uMnkknIOBgY9Dg/mN4v/af/aSk0zU9T8Efsop8P/DWk2gvdZ+Kn7Xnx0+GHwg+HnhywEal9V1LSvhvq/xh8XXVlBvD4uP+EZgnQCMajD5iuvxZ/wAJ5+3f+1DdCz+Cn7QmpT+Hrn93e/GL4b/Cyy/Z0/ZQ8PAO6XA8C+MPiLafE39qD9p2/h+b7JefDhvhd8O72SONpfiRZI7xV87hoYutCVWtjcDhKMGva1quKjVp09LuM54V16VOraMnCjVq0qtV+7ShJtH02Jng6M40MPgswxuInf2dClhZ0ZztazjHFexrTpvS9anSnSgvelNcrS/ezxj8TPB/w68L6n43+IHizw94G8GaLbi51rxX4x1vTfDfhvSYP4XvtZ1a6tdPtzIfkhie4E08uIoEeVljPxnN+3bJ8RWaD9nLwboOv6NJIUh+NP7Qvj6x/Z6+DcoIG2/8LaLr1nqPxw+JtkM5ju9B+GmheFtQI2WnjlUdZ18M+EH/AAT++Efha0tNW/aH8XePf23/AInCX7ZdePf2qNbu/iRoGjagzb2b4dfCXXr3V/h38PoIyRHb3trpeq+LRAqx3fiq5jLLX1ivwi+BiQS2g+CnwZFrcIwmt1+FHw+8qYMuGWWI+HfLmUgbWSVH3jG4HpWaz3J8LOcVWxGZTUrRrOm8PhLbc1OjKpHEVNWnCVeVC6aU8PuVPhzPsbCEowwuWQlG7oe1lXxWvI1GdaNGVKm/syjSjOS3jV0s+dv/AAd+3LrVoPEWkftj/BfRNfuLeG/0XwfpH7KVrq/wau1miE1raarr+sfF7UvivqmiXpaNJPEeheKtGvfskn2zT9IMwjt5Pdv2evi9cfGD4ReFvHXimwsvBHjC4uPFHhnxv4T0+8uPEOk6D47+H3i/X/h944sNB15rezl1jw4nizwvrLeHNSurS0vbzQ30+e+tbe8eeFPzV8DfFXw5+yzP/wAFCIvDGiNbfAr9nTVvhz4t+G/w90gtHoWkfEzx/wDCHTPGPi/4OfDqwQyRaFpHijx5rPgC80fwVpUcGk+HvFfxSvrfQ9OsLXUI7KH7N/Zr0/Xvgx8Cvhp8OfEE9ve+LdF8PLf+Pb2CMG3vPiR4pvLvxd8SLu2PzbrW68d674hntmLEtBJGxJJrXMM19nh5Or7Np18G8HOjQoYSpOjXwMcZVjOOH5YN0YYnAqtGTqKnNxVKdpVL8eCyKVWtGOFlXjNUsT9dhXxM8RSjVoYx4OnOE8RGT/fVMPjXTtCk3Tg3OGiP8/XSNC1rxJrNloPh/RtX17XdZvo9N0XQdD0u81fWtVv7nPkWOlaVp8c97qF5LsYra20csxRZZmVI0eRf15+Iv/BKC1+C/wCyBp/xE+OvxMu/h9+1Z8T/ABf4Wb4Y/CqyuNPudB8I/Cezv7VPiNq/jexeye/1PxSmg6hLe6dJBqWl2mieIofDXhqAahd6trQg/ff9mf8AY6/Zh/4JUfCbXPi94luLf4gfHTRfBzzePvi9dWoi1KOS98q1l8E/Bbw/dyXB8DaP4k1W4tfD9iWuLrxd4ne4tR4j1trFzY2X86v7V37Tnjz47fEjxP8AEjxlqLPq+sz+XYaTZs9zpnhfw1p/njRfC2jqW2JpmjxzS7GTEt/fTahrd+JL7Vrot9xnXifRr1qmX8LSWIrR5qUsxnTvh41ml/ChNXnGin7STnG1So6VPkcHVZ9L4EeAFbj/ADWeb8WrEZfwbkrw+Jzb2MnTxOYSqy58Nk+DrLSOIxypyVavTcngsIpVb/WK2Fi/nqXVfBHwf0P/AIQb4XWI0KyEAg1rxJdzLeeKfFOoQgiS91jUFy093cM4cW0TRaZpgbyLGMFGlHw3r/ji68PfHdtSuJ5YNF+Mfgy28PyuszkXXjn4bXWo6hpGn3DsSPP1jwfreoQ2EZJaaTQ3iw5CCvTvEkt1dj+0pgZAwNyZ2ZliLXEgcIpYqJEaTLM4MjSH5twjWvF/GfgzS/iBoF1ot/dz21wlxa6poWtaazLq/hvxFYyC60nW9NmOxbe8026AKpKzR3Mf2m0mJtLmRm8TJMrw1OpXxWNq1MXicdGUMfi6t61WrUnKM/aTnNylJ0qsadWML2UaajTUY6P+uuOOIMwjhMtyLhjAYXJMr4enSxHDeS4OFPBYHC0MPGth54elFRcY1MwweJxuExGMqudSpVxlTE15zad+sM15em4kklJV3Zt0j4RVZnILcGUbNxVVUBdgPGQceG/GNp/GfiP4a/BSKZItP8W6kfGPjwGYsD8O/A00d1Pph3MGki17W1trTbKoDtZ4LujSZmg+KPiXwHZGx+M/hrVbaa2Y2qfEnwZo194g8Da+ix74dQ1Ky0aK513wbqM4UNqVhf6bJYxyCRrC8+zFUj8H8EfGz4UXvxR+KfxF17xpZwPdnRfAvgax/s7W72/k8KaFBHeX+rwafaaZdSLba3rMzTW0cqRzlYpWmiQkuPr8NhK8J1q8KDnHDUm8PLDxdWnOvPlp0JU5U+ZN02/btSjzR9lyzit1+KZ5nuV4ynl+W4rNIYKrm+Po4fN6WaYiGAxeEyzDxnjcfTxdHGTpyhRxUMMssjKFSWHrvGRnha1ZNTP0MjvEAR1+xwhWKpEsUTpt2hQsRIEaqUSSPzELLtG0MAqu11LqKOXkMkwUPBJFc7o90YaRnMbsFCSBWVIziMPHtA28n5Tt/jnouqXBj8CfDP4t+O5HVfs7Wfg2fwzoyuQRGbvXfF0+l28cDvuZJ/LLdV2NnB05JPj/AOLUCpD4P+D+izKiCa0k/wCFk+OWhUDAtkdLLwpp0kfmsFuH/teWBkbMe1EB8WeWVL/vZxw0Wlf6xWjGortb0Iudd31btSs7621t95huNMtf/ItoYrOpRaVN5Xl86uGTVk7ZpVjhMroJtO3NmFLayTvG/wBWap8UIvh5osniLxL4x0nwxptoDjVNf1AW0ZeWMbY7WO4kFxcyqjbI7K0S5kMp3xwMdgZmjftQ/FP4vaNL4T+GXgfSLbwzrULabqfxO+Nmj3MPhlrGddpvfBnw6YQeJ/GcyR4uNOutaXQdFgnWO4mkkRFNfNfh/wCFXhHRNbg8X+ILTU/iD4wt/LeHxX8Q74+Ib2yO3k6PYzxxeHvD7rgFG0rR7aRH5WcbVz7aNaubyQXCh/tMG0vdPIYmkMYKQEuCZTLbp5aRTfI7L8vlNGuE8fFZHljkqkMJDF4inP2tPF1oKFGhWjKLpzhQhJSrezqWlGWIqqnKSSlhGj9Dyrjfi+phJYLG5zPJckx1J4XE5Fl9aWPxuY4Ooo069DFZri6dShl6rYec6VWllOCqYuMJc9HO6VS8j9kv2afgH+zf+0F8Kfhh+yr8UotP8MfFLRbO88KfCP8AbE8MaDo/h7xHr/irU9T1HX9N8E/tC+D7OePTPFsevatql/ZeCfFMeqxXtzENP8JzX1nq8OmS6p8sfte/8E2/2mP2NHm17x54cj8afCj7XbWll8avh/Fd6h4IWa7m8qzs/FVjcbtc+HWr3UpigitPE8TaPdXbpa6P4l1qR13eV/DbxpqukCC01AagIJ2YEyedCi27SKoczwsrtEr+XI7wss0VysNzbNBdxI6f1o/sC/tZaT+0z8I/EPwm+M0emeL/ABDo2hv4P8fab4lt7fULD4l/DvX7ebSLLW9csnX7Lq0OsWYuPD3i91G1/EFq2pOLQ67pyp5WX8e59wrmPLnGKlmuUVsS5YiVRQdSnGtNXxOHnFQVLlqyarUF+4tNShCD9pUX8/8Ajv4BcN/2fQ408OMseTZa6dHCZpkKrYqv/ZOY8qVCd8VUrVp4HMoWhSqTqyq4fFUvZz5niKdKP8KXxC1+60PRLlLaJJNSuDDDYW5QN9o1K8vItO0W0ccc3es3UH2jkbtPstTLnZGxHNeEtEtdL04xrKXhsojpa3kqhft6RSSPqepTSEpuOsalNc30sx+Z5J3RTyAf2/8A+CmH/BFX4y/s6axq/wAff2eIdd+On7NOnX19rFp4V8O2F/r/AMYfhDPcWo03w9Z+KNFtoJD4y8B+FbfUtca0+IelytqFp59rd+PNO0vyZ/Edz8h/sufsO2H7SV7/AMIvpn7Vv7KHgbx5oEVmYfhw/wAU5viN40tZ7i8XT7WfWv8AhVq3vgfR7+41NhY6dZ2vjnxDqM2qTG0tYYtQKxn+icsxmFzWjQx2Dqxr4OrGnOFWnKL0qctk05LlqJyS5JuF58sVJ3jzfwxi6VXBznhK8HRxEHLnp1LwkpJK3rG2qklK6ldI+E/C37LPx21680zxjBr1l4P0SOFLO28OeLb3XDe3cUBkgivrXQrGy1CPSPt8CW8tpJqAtby4jDNcWX2O9Yy9B4x+H/jnwlFPbeJdKiax8u2is9f0r7Rd6MssW1oZtMu1FvJZTz3PlNLo/iGDTbwShxpg12F47e39S/be/Zk/bH/YG8TRx+KvFGq2Gl+IHv8AXfAHjTwj4w1bxX8P/GFpoQtJPFeixWniCKOfTdYsRcDWL7wr4l8P2WpRWV9bXVt9vsGmvBv/ALJf7SVj8f7LU/h949sNIt/H1pp1zdzW0FpH/wAI/wCPPDXyRanLZ6LdC5t4NR07zIxr2jsJrG5sLiLVLJBaxX1rY/qGT5PwdxLKlktB5jlWd1oc2ExOLrUq9HF14xfNFKLjSUpOLaopUbpKMJ1Z3jL4zNMx4sySE83qrLsxymjNRxNDDUZ0K+EotxSlJtTlLkur1ZSra3lONOD5ofIvijXLLw5p+o+INfEMVpDp0VrNawQ3DE6g8kdpYwaSqzmxul1i2mmt78faVFtb2kz3ccsen/P+dL7yOCIwcBipLZVVwCM5faCAy8Y+TLgttav0S/bi/Z+t/hb4t0rVfDdtfQ+EPGCXFx4dtZppZdNsta08t/bfg2MysY4NZsoZoNS8OzSESaxolz/YzTSXmkRz3P58hY3QEJhCCCQp3RlsK3mR43Ao4aM7trqysGALEL+d59k+LyHMsTleMpqGIwtRwm1rCaajKFSm7L93UhKE4aJ2kua0rxj97kGYYbNMBh8yws3OljKalG65ZQ5bRnTnFOVqlOopQnq1zJ8rcbN46kuAC5ZhA0pVVJMmCpaEOI85cHcnQbm2vswwDyZJI22lypRVA2vHgMpI4Q4Az86CQH5ccDAIuw2lxeahp2i6XYz6trWpzQWWlaRpdrPe6zqlxcyrb2drpel2sct/qFzdS7Y7W0traeaWZjGkUjFcdlefCr4x2jrYxfBr4vPrMkLXEWnn4ZeNUuktUIie5ng/sLzvLhkmgjd2QRGSSKMbd4D+QqNWo+WNOclK3K1GVuZuy1tpe6s++mtz2p16VJN1KlOCWr5pxTSVuj1vrsk/PRs9z/Zj8aeOfDz6prXwx8Xax4L+MHwr1nw/8Q/h54r8P3rWeteHNYsv7U+z31lcgNH/AMfLvYa1p9zDc6dqegeINV0rVbO90zU7uzuP6t/+Cc37fmmftz+CbrwHomm6P8N/2q/h3oE+uXHw20rR0m0bWbLTby3XxL4t+BXh1Jxf33gK5lhhX4rfs5WEk/iD4Y+bF4p+DI8ReA7O38GeBv40/gdqet/CL4y6fZeL7DV/DcmsRNo2t6f4psrjQdQtV1zy2sbi90zVYra8t7VtTitHjnmhETWxMoZ0Hyfa+j+C/wBp/wDZ0/aB8B/tF/BD4U/FvU49N8QWfj7w5reg/Djx1qmiTXsDSWGu6FqGq6Jok0L6b4i0976wujDcKtxb6hfzwO9zAjx93FfCOWcVcIUaONwcMTiMvlOjTlJRhWo1/iw1ehOUKii5ynPC1Yzp1qNSnJ069CrBzpvxsn4uzvhLiPE4/JMXLD1MXRjXhD2tSnh8XTjZV8FiZU5QtGbpwqU6kZRqYapavRkmot/6BPwN8faJ8ZfC+p+FvFmn2Gi60IbnTPEPhi/eDxBozpPLcWDNa30kUdtrfh/UmgmjSSRPMhmWfTNQhW5hJm9e8L/B3T/C/n+F9Qsk8a+GG0G+8My/Drxpbad4k8LeNvAF3cWd8fh5qEGu291aa5a2MlrcS+B73XIrufQtVGk213czaZbXAm/O74K/GDR/jPZeAv2ifDmjaz4J8cfFDw/pY1bQ/GumXfg62+Mc00sGkan4J8af25Z2cHg/9oLwtrFtFZ+F/iOPsPhT4mzWsWj/ABBlFxqWj+ObP9H/AAb8UItftovDuqEW+vWn23UfBbzRTrqGs6ZpZjt9a06awniS/sdd8PXTS6V4p0C4gF/omqWUy3KrGySD+KcwyvHcF5xQxuWe3+pRxUqlD3JxdLE0E4Y3KcbQk6lSlWp0alSnpUqe2wtRpV60eerT/pTh3jLK/FjhzGq/LmEYvL8+y7EU6UMbl+Im4uhmFJwhTjOPt6dGpXXLGl7WP1ijGKkoS+dvidofhL4c3N74T+FHxy+OHwd8Hapo8dnd+CPiP8ML/wDaL/ZlvPBXiDTJ7S5h/sLxvft8SfAXg+80+bUdG1vSfA/xT8LaZ4WvotT02fw9pgsLiNJ/2DrT9u2D4deNv2cND+PP7LGh6J8Eb9/BekfEhvgr8SPiT4z8SeDoPCvh/UPAfjzw9pN38aNF8AX2l+MPhrrPhHW9Ou7i912ymvLjVLTUY9UurW+uLj6c8a6A/wAR4IbHTdOtU8UPNFcaDHrV02gwx+JLy5hjuraTWJbS7Nloni/ajSTR2kjaV45tLC/WIr4w1q5t/J/2V/DOvfAn9qrxF4V1Xwz4k8LL448PQpqfhy5sZ7vRLLU/DdzqN3p2uaVqFmJdG/sLxBpeqeJIrbUNKmOl6ld6OqTJp2upf2Mv9M8BU8txmX/21k2PqVaeYUpPMcBjqeGq4qjj8O4SjGVeFCjialSgqlSk/rSrOrSnSq80eS8/wXijD5hl2ZLKM2wqw9bDVFDDVaEq1KjVwtZScXShKrOh7GtJRqRWH9moyVSk462h538Y/wBjzwL+zprnwG8ffEnxJ8SP2w9Q+IHxAbwTaN8WG8Oz+Gfhn4y12z1TxBoevfB74GeGNP8ADfwd8L2VxeQ3OjLokPhLU/E+k24sJvDHiiOawOi6t7v4d8feHvGeg6N4r8KeINK8TeGde0611Hw/4i0PUIdU0nVtLnTNvdabf2byW89vsXyysbKYGje2lSKaJ4k9b/bl069l+EPwy1qzjuYrj4a/tafBHXbGUQSNH9iufFi6V5wLRsJIIxr20PExUMgQyLyo/mt/Yf8A2tNJ/Z/8R+Bv2UPijBp/g7QNV0fVvDvhrV7y3fQ5vC/xX8JfGT4w/DHXfDfjO2uhBHbW/ix/Adg9jqkyQ3Gk64ILXWJri01lbzTfjvEHgvG5rDNc4yWlXnicnoUMVWyzDwvSrZbKnWnicVhMPG0adXDulKvXp0IWr01Vag6icp/Y+FnHdLL8/nwxn88NHL8bLC/UMzr8ka1HF4mPs6GFxOKScq9GtVpTp0q2JlzYerOEPa+wtTp/0LHWUAxvwemAQVLAZz82SD9COeueh8p+NHxy0z4K/D3U/G+pafeeI9Ua80jwz4J8EaXKkWv/ABH+I/iu+j0TwH8O/DoPXVvFWvzQWRuQjw6NpSar4i1Dy9L0W/nhmXVJDKII2c3EjxwiNyQfMZ9oDKSChEpCEYJUjDDJr8rr39ovwv4w8Wax+1Ve31l8SV+HXxB8U/s3fsOfs7aDrWny6140+Nuo6lrPgHxF8TvENnDNNc6T4r+Id/pHiTQPDOsapaw2Pwt/Z20Hxf49bdP4v1RovwfJYTzCtKpKM6uFw/svaxjde3r121hcH7VNRpfWJQnKrWnOMMNhKWJxLcnSjCf9LZ/Tp5bh404ShRxWMjWVKU1zLD4ehGMsVjXS1lWeHjKEaNCEZzxOMrYbDpJVZSj7n4R8Haje/En4bfs9a5qVr4o1P4e+I1/bb/bS8W6WrnRvGH7QvjjVr3UPgv8AD6Df97QbDxZYXnjzRNKuE83Tvh38DvhLDeQpHrMXm/o4uvYGHMrtlsvy247j824MAc9cgCvk74FeAdR+FHgu5t/FGu23i/4qeOtf1H4hfGjx9bW7W0PjL4l+IIbWLVLnSrd8zWPhDwrpdlpXgb4d6M+V0XwF4Z0Gydftn2yWf2SLW2CAFiMFhyRn7x6/vB+gA9BilmWexxWLcIV1UpYeLgqsU4QxFec1UxWJpwSjyUataTjhY8sZQwdPDUpx5qSSjKeFpYPL41KuHdGtialOc6MpKU8NShD2eFwlSd53q0aKTxLUpQnjamJrQbVROXR/Hb9nGT4xfDLVdS+OGtXMJ8J6T4p8f6B8KPA2tXtvp994307wbq0Xhr/hOPFtyuk654zk0G5vLtrTRtJtPBWjy6zNDcTS6kbO0lT5/wDij+z5/wAE1PgxF4D8beLfgh8MdB8FT+FPEMeuXPi6XX9Y1FfEVzN4W1fw1fauusa/qOqXMdzp9v4nt4Ypp5bGBpoGeESTW5j/ABc/4KLf8FgNf+C/irUf2cfhP8ULj4Q+HvhjDH8PvEnizxVb3J+NfivxZ4XH9kapaaA+tNqni2z8P2NvBY2ieJh4f03xr4q12LVdSttTttJNjNffz+eIP2idc8aXtxreifDj4zfEDVNRu5b+88T674ek8Px6hdTddQl8R/EDVbTUbuSZ5DJNeSxyzytKZGDEuw/T+EMk4gjl1OSo4XKMDiYt0msOo4yOGqc1Re0xlZwjRrtv2ibqYqpCc5Qq2leJ8pg8hniMLGGZ8c46OHnVp42GS4HGY7HxxFaUKNGWNXD2X1IJU8TQpUaMKkqFGVfDQhJRVJUeb9TP+CjHxH/Z9+JXxW/t39n7w/oPh7wmkWvjUF0HRY/Duj6pNJqGmyeHzBpEdvYWYmtY4fEt2slhZNaWmka94d0OXU7640WWDSfzdS6gEgdblmVhFE0TMByqMPNCRqGVkd9jvIQi7027FANeY6lrfx9150Fp8NvA3huPAjNx4x+I93rF6iyMC8ktp4U0eRcurI7xrqJbGVVyrVhvoX7RokjB8UfBaxbCBPI8NeOL5IdgWUOskurwK/l7eEZArHLGPLYT9GwuBhhcPChUxdGco3k51K6qzfvXvKVGNS8tm21dK1lZH32GxiwVLC4TA5ZxJjMNhKEaFOdbLq2FqT5pSqN+yzCWXKFPmlJ0qcIShCCSjKNnKXr/AIx8XweCPBXjDxhM+JPDvh/WNYTdPszcQWc5sbZELA5nvzawP98HzNnI3Ecv8EPCK+Dfhd4H0GWELrR0W11/XLwWyxX0ut+Jc69q3myBWlcJd30ltw/3LRU8tdoiX5l+NWk/H6fw9o3hHWvFPwu1/TfiR4z8LeFHttL0DxHpF+bi7vX1RftJluru1TR4n0djqxhL3z2AdYY1adgPb4Lj9pywcj/hE/gj4hi4Mi6d4m8XaBmMscwwrqlldLABEHEbMx2jD7m2kHerhOXCRhDF4TmxNaU2/bOkpRoRjTpxXtY0laMquIvGdlflejvbnp8QOtxBUrYjIuIIUsnyihgqUFlv1udKtmeI+t46U4YKpir8+GwGVezlTU24KrCUYqyPoGffg+dPI8iBfIZy4lCKylNjAblRNmFLAKAdhz92mvHPwj7402xsZEVmkZWw5CytsEW1pMDy42YYCgsenz/L8Tvixo8sv/CQfs5eMbyJY4wt74B1/QPGcCIp3yBbRfsWoNswZEjcK0mQABk4lg/ab+F4vIYPEuoeJvh7qEvmqtr8Q/Ces+GQZdpwYr25tbjTJPnwJd12oUfPG/lkEcMcBjIyTp0o1kr3dCpTxCV1e/Lhp1eROztolfXorfQLirh+S5MRmEcsnKzVPN8HjMmqSlouSE83w2FhUknZJUuZaq0rXZ7xDpbmUST42sitJumeVgAI9rM+5gpAVDCp3bGO8nG5T2GkQ6e4JhtLhLqK1vDboHis5bvUVtJXtVmeQhVzceQFeXzYT1ki2+YrcZofiDRfENh/afhnXNN1+2DRSfbND1GDV7OYEFt7zWFxNGmFAPlPh2RjhQeGtzX1zESVkMcjLIy5OVjkjOXkVizYwWzhV2nkcKWK8tWhXqKcJP2bikkrODg2tVKmop7PeSa067n1GDzDA0qFKvQUcRFqMo1OaNWM4qSnz063NKHxJS5YuaaUVZx+L+lj4FfBn/gmN4k8NfBu40G38G+KvFEvijw1bfFW98Z/FCUabqem3cM0evR6vo/iXx1DHoN9PDLbyvpUdjoOr2+pQXEVha+ftt5/1a+A/wCxp+yh4Kn1bxR4Q8HaZ4TnfxH4p0jwB44+H3xF8f2kz/DjXbfRprfSL7UdN8cSWGuLBei4jke4N08i6To10873tjb3Q/hPh1e5maJrqcXIt3HlrPGkixxkM8kflTIdwkTIWP5wrDjhFevqb9mz9oP4ufAPxQdd+EHi298IzebE13oQRp/AviuGO4gkm0nxf4INxFoF/bXaeZb/ANsWttp3inT3mN1o/iHTZ4mkPxGdZFnDwuJjhs29rBwmlQx1L21OSnUfNSeIhyVaUHGXs1KnQqSjTfJGFknH8uxHAeOx1Su8JxLmeJdZTq1MHXrYjCfWI06brtK2MxeGxFRTpqVNYilRoVK/s51atBXnD+6b4IT69P4O+H/iZfFGuaHctaX82veGr+/Gvfbd11cWdtb3GreIrabxXZBIbSLUbELqhuI7fUJLLUjqBWOaPzHxr8APgp8Kh411Twt8LPh5oPwt+PmuJB8bPDeg+D9D0XTbvxz4j8vSbHxPrUOj2Fr9r0HxndzQ6Nq4uD5PhvxrfaT4o0k6cdf8S3UXr/wo0C61qwsdW1aO3ninhtrlzbzTvZPM0Mck/wBnuJZHM1gZSwtj50zvEFPmt99vRfHM+n2mj3WlxCMw3CAXEefNVoEIeVAsnycBcxqV+8FZeQtfnOEzHGUchzOeIpLB5XjJ3o4NVq1KSxdKftsLisFKSTcqFaMWq051LqNpyalaX5JiMqwtPPcBQwuIlj8ZQlTjUxNTD0pRnh6sIU8TQrQU5JqrRlOFWnCMY+9ZS548y/Iz9oz9m/QP2of2XPiX+zp8QLkXOt+GLu80jwR411Rhfanp/izwxpNtrfwj+IOoXLl5/t2t+GNe0zRfHkkpM2s2994wil8xL0bf8+jwnc69+zf+0ZoE/iCyudL1f4XfEuLT/FGkl2gu4LSw1iXQ/E2kSKxUyJ/Zs2q2M+5njuFQg5RwD/oi/GfxPfeGPGtpp9rCFh8Z+G7XVmu4p/KkluPAusahpqadc/Iqb5LDxzYmO5cs7RWD25VUiiI/hL/4Kw6bbWv7aP7QuraZHbwfbPFj3moC2iEMS3viDwpofieCf5UZfOnurzWRM8eEN5bzhQG5P9j+HfEeLzjhLg/iuVVvMIxoTr1rtzljMvxLoVasnfVyrYV1ZJ6XfRWPw7izJsPlfEvEnDKhfCXr0oQa914XGUFUowS5bWVHExpXStoraJI/SP8AbM8P+H/EnwE8aWupQ2d+nhO50vxcJtjvJFp2kXj6dq7RBP3scttoWq3l+00K77dIEKj9xX8/3ijwtc6dcpcQNJetcp5lne2wDp4htSnmvcoY90f/AAkFnaLuvoI8DXLRDqFkGvEuYn/ezxjrEvjf4VarYySLCdX+FF7Be3CoVkaa/wDA7Kxbh44VZpmciRt0kgaRjI2VH8+Ol/EA6Dpklj4hhOp+F7gJLJbRyFL/AE+7DefFd6FKrGaO9jnC3Rt4BmORGurcwSowf958ZlhcVnWV47Dxa+u5fGjOe7nVoVFyyekXpCvGmm1ooJ7bfknhRUr0crzLCVHzfUsaqqpydlyVqajKMX8LtOjOfK3aTn3V3/ZZ/wAG8fiPwdF+xL8SLjR7DTbL4jeAv2sp7ufxP/wrjwZ4j8RQweM/hR4Pv/BQ8OeLNchfXNMfTLrwZ4lu1g0q4tH0281K2ubUeddzMn7tx/FH4pWugXIPxK8bx2+qy3SiNta1O6uZptHubDMH9pXN4+oabLLLeFmgs5I4Jo7ZlufNX5Y/wQ/4IK+E5NG/Y++NniuDUdP1Tw78T/2qPCp8JeJbSWS30vxBZeCvhDBBr19PpojW60W90u88b6fpviiGHdjUIpLuBLSWaS0i/bKJo/sSK9/bSwW0urXMelRTX243EIhktppguIhbX33LK7SeO7dIZUlZWKtX+TP0hc3znA+KWd5ZQzfMcNTweWZdRp0cNnOY0cJh8Rj8qypYxqhDHxoKMsNVbrUsLTSr+09rOjiknKX+lPgVlOVYzw5yfMauUYDEVMZm+PqVKmIyXAVcTicPg8yzBUHUr1MFKtOdLFUlGlUxcpSw6pqjCeHk0o/RXwsg8F+L7nxn47+LOm+BPiDe/DvwGJYNV+Ifw08IeLtbtr17qOPw1cW3jTU9K1TxlLa6JrFw8EcU1yhtPtrzWqxJ08zu/iz8RvsNhoUnxJ1ia1GpS6qL2w8T+IYPs891bxWQ09rhTZXEemwQweZFZW8LwRFjPCiyySg8Pq/x08L/ALOfw/8AFvxj8WxeKZfh/car4P8Ahp4vn8BaWfGOpfCfS/iD4i0jSr746/EPQ9WZ4bP4O/D27VLrxt4mltdbv7KO5t7HTbeC6uYL9OnTQrnSfE+uaGL2G81rR7q6jutXtvEuiaBpV/CzRMZ9Om8S2MXnJcmZJolZ47l4j5hs4Qjovz+d4njXFcC+H2IeOzilleOq59lsMwpZlmWOWY16ePpzVGnGWZYjGVI/UMHhI4XCVMNhoUI4atVpVeavKnR9zJcDwfh+NeOsMsBlFTM8HQyLMZ5dUwGX4D6lSngJwdapJZbRwkKn17HV54rGU8TXnXlisPRnRlHDxq1Onn8aeKfi5F458IeK/EukNp3xV8KeJfANro/iu58Qan4e0LW/E/hi78PeFdV03SYk1PyodO12fSHln3XF3Fbx3dwsc12RM3X6tq3izTvGHj7TtJg+FWia34FXXZLnxFLo+iaF4muLy30VPB+tah4a1+eJNVu/FWqaZFNZrPbvFq9/bSq9xI829j594ItPE0OraxrnhCXSNc+LWkpd6l8OfhzrOs6bpNr8UvEq2d9Lo/hifx3JYa1oHhq1vtYt7G31jVbzTLq4t9Gmu9T0W0uNRtrOF+z8d6/8P9Wl8V+J/wDhXNzqWsaj4qv9G1PxMfGWrQ+G/wDhIruzury81bw5pg0+G9iS3vbae8tLDVnvEGkvZC8VbudkXuwOb8Svw9o4jH8UvBTqcW5xilKtmuOo5tjqNHJ39ap16mVUc7xmAjhsbi6Ff6tj8Fl9KlDETcK0qWMpVKXl4zIeGoeIdaOA4VpYuX+qOTYKrUw+U4GrluFnUzZSwChLNKuS4TMFWwlHFYf2+DxuPqVZUVGpRhXwlSE8e3+I3xItPAket3mueE/FGmx63faZbWvjJ7DxX4xtbi5tIXuJY7DVpJtQh0OWKzgVblWFslwn7rEzsx63xr8XPj41x4g8L+MPEen6fr2ufGF9e+F154RntdH1XSfgfe+BvAVr4J0nxReaSU36nrXxAuPiL4ski1OWW7j8PzeG31JI/wBxDF5bLF4I0rwJfWmo2Gi6748Gvs9pqOleJdZkiuvDA8+C6YxaZC+kQSR3MH2i3S7ngvZdJvVv5IQ9qLWXsfGWn+JdT8X+B9X8WaVoksniPxlc2Pg/TLqSexeb4V2n/CFy+BvDXj+2ltEvNM8UaH/bWueE/ENxLBM2o6Rp+k67bB7a/t0rXJs64pocEcVYGjxG60quC4Dp4vDPNczxmYYChjM5q5dmLw1WWCoxwWYSxH9m4etQo1MbOjgaqdGtXU6UzbN8l4aq8acLY2vw4qUKWN44qYbErKcsweAzGvg8mo5jgViqf1ypUxuXRprMq9DEVaeDjUx0H7WlRUa6MPU/ix8WLy98SeKJfEWrqixWXhO+uLDV9Vk0uxu5bI2VvLYGK9lsrjVLi20e9uPtz/anklmutSgUytbzw/g9/wAFzvgs3ifwf+y18a/BdrD44/aA8YfF+1/Zs1a+8N67okdl4yFzp/iXxV8NfD/ifSNUubDxH4n8byXMXiRP+E18MaVqelP4H1W8bx3qg1HS9HuZP2R16Uafrd05i0OxV1nNjpWjSW+uaNYv9okgi055bme9W5aJFd3vZpb+9ffDcMd0xWD4b/bf8LaxefHH/gmH8Qdfh+Hi/CP4d/FP4s6fc+Mbr4m+HdCmuPj98cPBEmg/Db4ZeHfg1b3lpq/i7x/4c0zwvJr+reOpNCu5NG0fxFbaLp9yNPsr+6l+0+jPneeV/FKtRxOdZniEsuzmrjqeYY+vOGIqzrOr7SjhauJw0vrNeq6UpRr4HE1qNGjiJyp0YVU8HweMfCGQY7hThnA/2dl+X4fN+KOFcqo43AZfQp1cDhsVOlgaiq4mnhcXT+r4elUxC5qeOw2Hq4ivQi54idFLGdP8IvhF48s/hh4W8E/HH41fED4i+JNL8L2+gagfDHivXfAGh28C2slu2nDU/Bl3ofijxhf6dbXA0k+MvFOv6jqOtJpsV9Hp+kSSSwtzXw0/Zy8H/CC48H/FnwJ4K0rxD8PPgvrv7R+labPpmhXGu/FHwFo/xD8XxR69rGh6q0c+r+LPAnh6/wBP8Yxal4a06KbxL4c0zWr+88JprOhx6hodfRepax/YOj6lrkcZu3020uruCECRzd6nGjW+mWaRhGd21LVJLTTo0gjaWSS7QJHtKrX1T8FPA7fD/wADeFPCaTzS32l6fp9te3EkrST3GsOwudRvXmwHluL7VZry/llCx5nuWZVG5cf27j+EcjxOUZnktDB0Mqwmd0q9PG/2RRoYCo1V526t8PSUZTU6kpQVWElaU425J1L/AHHFHD2R5XQyvDZfhKVPE5ThsO6OMxkZ4zGuWHrYGphFisTip1MTi6LqYCVWsq1Vtzo0pKpGp7Oo/GbbxDaX9ja6jp2oW+p6ZqFtbX2n6hY3MV9ZX9ndRJcW11Z3lu7W9xaXNvIk8FzC8kM0cqyozIwNRpraqMB8DLcEjIyxOOnbP+PNeYW2qaL9o8W3XhqG00/wxe/EH4j3/hay0+OC3sYPD154111rE2tnbqLe1ttRAk1uKG3VYUi1PEaqMYcNchjGx0lZh1K4ZSTzwTk98EE5U8cYxX+cuaYdZbnWbZXRxEcbTy7MMbgo4pLljiI4TFzw8a6il7vtow9oo3klzWTlu/pcFh54/KMtzCrhnh5Y7CYPFyovejLE4anXVPWN/c57Ju0rJOSTufKfx8/4Iqab8dPiz8Xv2gP2dviB4STxH40+J3jeHx3Z/HTQJbTxbqPj3wzqK+Hde1Pw98UPBuk6/Ld+G9Tv9MuJNOtNb8JaXcaWxkgDy2yxRwfKMP8AwRV/at1l/GI0rxB+z/qx8Ea1P4f8ULF8U/E+nR6drUPhzTvEl3by6jr/AMNtKsp/smla3pct1d28slrbPOYbi6jlt71YPqnxT/wVO8R/s+/F741/CK4+EGmeKT4S+J+pTX3iHR/HGo+Dhrut+INA8O+I9c1c6TceH/FrWDajqWo3F1Lbtqt+RdzXU5uXSdIIPbvDP/BQiWbwH8Umb4YakLb4l33iHX5Yf+FjWzT6RN4u8E6Lo95ElzJ8Pn+3/Z59PkvoXlht4yLkWjQbYPOl/csHm3FGGhTp47Jqdeg6GEjgMR9eo+1jRawqhJqni4W9nRqL3PZQva7U5Kx/PmXZ1xhkOV4PB5RneBnhIQqXwtbJsv5ZRlCr7Fe3eEhiantakPeniK86sLe9Nx+L8I/jf/wTn/at+B/hfxL458X/AAwnuPAXhDTpdT8ReMfDupf2xoGlaSs0MZ1FJbuy0O7ubSIzI0k1hY3gW1c3aGaAKx+BdV07UNORg6ROgIf5SMFOVDxv/CJI96/Nt3kBkymC373/ALSn/BZrxX8YvhR4t+Atn8BfDvhif4z+DfEfw41Hxde+O9T8T22haX4i0eTStZvrDwq3hvRIby/Om3N2ulrfazJZ2N61rd3VtqUVs9pcfzB+HvHHxA/aE8Q+L9P0rxU3wn8J+D9VuPDosPDGk2Gr+KtVTTTLZfaLjxbrSyQWYnjgU+VY+HIZYx8v2tyWdv0DJY5tiqVWeYYbD5fHDuMp/v5Yi9Cdo0Zv2TrP2lSca0eWKaXInU9neDl9bkvFeYTw/LnmG+u47H4mOFyWlluHweElia2FoyrZpGoqmMWEo4fCU6mDcatarSrVXiaio0MQ6b5N7xRFHqnxe+AGiSM8UVvJ8RviDMpJlAn8OeFxpNgskwD+U0d1rUzgqxiDsp3A9Pe4vsjSBYpH2RsjtKAV34jYBgfujaSQ+VYAgAszMmfiW5+EGpz/ALRfhXw7pXxe+Kmm37fCzxDq9p4lutcsdY1SxnPiCDTrixt4brTIrFdEv45PM1DSxbqtzKiN50e0Yp3Hx9+I/wAIvi5pfwf8ZX2m/FGw1C+isLbxIdLh8F6/aLPMwRpl019V0u9Cb03g6fbyyLEFE0e4kfR18uqYpYdYTEwrVIYB11SaqUZunPEV6kqkOeHsr2ajyzqxlaF0m3YwwHGWDyivnOI4hyvFZfhcfxRSy+OPjPDZjhqOJjlGTYShhK8KFZ49fwvaKrQwFSgpVbSmvekvvOQ7Iwn2lwI9qm3SLeqD94GXKqsuVfBDkqrblO7AIORrMlvc272N7b2d9ZSLGslhqVnFqdnjyzkG1uY5YiAoMrbrfJCjAC4K9OLQOLfLABA5KqgAcjJVj8xbcOMndtLDcEXgDFutJjbNw0mdkUjbShJJRoxku0jcneeQvtjk58WlVp865tJ3UXHluua60vtq/ee+6u3Y/R8dhcRyzlCMJ0pw525S3pckb3g91ay5X0+zueA6t8CvhLq9/JqVl4Xn8F69cAsuv/DrVdZ8FX0ORhp0j0a7i00tCwJaN9KaJt2NhJDJ6n8IP2Z/2tvif4x0fwH8A/FWn/GzUr6XEHg74tQabo95a6WLyzsLnUJviRpUmmNbWlrLqNms1zqtjPKfOHlW8oin8q3BZeSzyJK6l5tpC7l/1kgH/PTgDgkDAOAvChQPqz9mf4w/ET4F/FLRPiH8Ltbh0DxTplnrWhxS3mm2usaTfaRr1qbfV9O1fR7xfIvrW5ksbHUIvKktLmy1Swsb20uomimS43zDMMfh8HVdCVLEVqdGo6MMYvaUFUVNuEJSaqVqVPmcYylQako8zjq9Pl6XCGHx9PERyPDQyzN6nslhquX4mtlsa2IlVh7R4iGElh8Li5uk60qKzClWw/1iUPbxdN1GfYXhH/gkB+1RbWHiK8+MOs/BP4VL4J8DN8QfEtpoPifxF8XtUuvDtsNXab/hHrPSNC8IabeapBPoN8gtdV8U6aiYhk82eB81+ynwt/4JW/s3fsreFNX+MXiBrj9qPxx4attE1/StE+I2kWmjfDAeRrOkSajeWPw70aXUDresJpU2oHw3J4y1TxPpdheNatLpDnzpq/LjxB/wUG/at13S/FWm65r3wu1K/wDFvhC78E6pq5+G19aP/wAIzJHqpk02CysfG1vbxiV9av5JLjJuWkkULMsMUMMfPa5/wUa/be8bTeH7DR/i34S8BWMet+HLTWbHw98I/CGp2ur6Bcavp9rf6NBJ4r/t/VNHaazaWGz1Ky1M3VhI6XCCaSGMD8seL4vzGrhYrEZPhoTxVP20aVTG0qThy0b041PqtfFpVK3tIQfMnCLi3y25jizzg3xHjl2af2jPFQwsMrr1akMFWyGlWrUaarOrz+wxmGjUl9WpxnVpe0p0qyc6fvOTg/66PGHxq8C+CrmHwwfEOhReIri2gOj+EotS02DXb+2muX07To9C8MR3MWqaobm7gawsLTS7WYSXMZgjEaRSNHwlz/bWk6ZrHjf4n6tZ6ZqM2mXFy+gR6pGPC/gXQLSKS/mS91SZra01XWkih+2+KPFd2sOm2ccH9n6Klto1lLf6r6BoXwP8E/DDXtTvdMn8WeJdeG6J/EPj3xr4r8b6gjQGZY59MtvEer6ho/h2dkkkiuJfDemaRJcQSSW0rG2YQr/NH/wcCftjfEv4P/s13nh7w3aaXfab8cvjvr3wE8Q6drNzrP8AZUHw6+Gvg6PxL4g0xrfRNR0TULuT4l65qyxeKHi1awjfwvZReFZor+yuLuef4pZJjM/zvCcNxxTljcdiaeDrVq6j7HDwp2qYt0YptvlpU6tVOdWc6sqSpqdNVJe0/EaWa4HLMLPN1h5fV8HRni4U6cpKvipNJUI1ptKEIyqShT5YU4xpxqSqSjUlFNT+MP8Agp5+zB8VNd+MPxc0/wAZW+j/AAB/Z5kT4XR/FrxL/o+ifFvx74km/wCEl1zT/hNoCBtf8S2+j2Oj6DaWb2tk+p+IZNet7+PTLDQRa6jd/wAwv7Z3jiL9pD4mav8AG3QNH1fTdG+Mms6bZ6RourCEa9aaVcwadongiXULeylubW31OXT7LTbqW0tp50tlvr2zWSd497fl/wCJPGXir4o+IdGsPEWp21rptpcWuj6HoegaVY+HfDHhix1O/CT2/hvwzoiWGj6RG7u011LbWw1DVJdk2rX99cqZ2/XLwPc2yjUZ00uwm/4Vp4ai8SeHbK/We60qTV9FtbmLw82o2sU9pdT2Wky6ct4La21CzmublbXzLtIIJ4L3+2uGcmyrh3Jcn4bwkp4fLcspTlKtWdWtU9lGU8VjMRUdODlOpJyr1nCnTtd8lGEI8kF/OPEmfYzHZlm3FGYyhPG4ySnKlRpqnShJQpUMNQpLWyio0aSlL4YxUpzlLnnL6D/aD+IOg/Bn4D+K77Ur61024XwvJ4L8N2txLGtxrOrT6fDotlaWECv9ovpLG1kmv7qWDeLGKDfcyxwcN/ORf65calcpIzKIId5t7MA/6NHtYIA5YK05iIEsrcuw2FFjAUdH8TPiH43+LniN/F/xB8RX3iDWLnzFtknYxaXpFq0jSrp2i6VEy2mm6fGzEpb2yL5kgWe7e5uN8r+bzAq8qfLwdrPht5AQqQCXIUHk4wcE/LjHP33FWe08+x1GrSoulhsJSdDDKdnKSlJznUlFXjGU1ypLXljFK93Jv5nhjJ55Hg6tCrW9tiMXWjicRKnpCLUIclODkouUIc0nzSs5Tm5OMUkl+pv7F3/Baj9s39gzwtp3gD4Q+LPBXi/4WaHqHiDWtK+Dnxa8A6H438AaT4l8R3El5qfiTSJYINF8Z6HrtzqrLqN5c6R4vtLPUJYIrfVdP1CzUWyfaEP/AAcy/wDBQW1hvrewsP2WvEfhTXYNPcfD7Uv2dNK0nTPDGoaWJZ/7RtpdD8W2XirVppLia8K32reNda0qaGURrpWlTn7M/wCBfgPQNL1p9Ysr+xtbqHSbUamTcLdJPJFKqP5Fvd6dd6de286AlVnuLm/tiMZ08j5a9T1D4CaNc/DqL4h+Hte1PR7edLktoOpW9rrbxtaXDR/u9XtRoTMjfwi50+4kRfleWXhh8XV4RyjNp18bi8iyLMMRXw86Vati8swOIxVXDyhClVp1K+Jw85VKVSnCnSqUpzkqkKcISj7OnC319HifHZYsPhcPm+cYGhSr0q1GjhMfjaGGhiIzdalUpUqFaCpVoTqVKtOrCMJU51KklLnnJv8ART4y/wDBbv8Aa/8A2wvDHhr4M/tM+MvDWl/By78R6lqvja1+DvgvT/hJN8QFlniPgjw/8T5fBptJPEnw2+FgWVPDXhWEWqSpJb6v4puvFes6Jpt5b/pz4U/4LJ/t66RpGg+GH1P9nf4jf2Po+j6PpPjv4g/AaDxV4s8U6TpGn29jYDX/ABH4c8c+DLHV/E/9i2kATXLvSXPiaSBLi71X7ZPKV/kctVJIhB2q8oCnHMbFkyynI6sc4OTtyoOCTX3f+yD8RNZvNUm+HOo5vtO0zSL/AFXRr6SZlu7CKzuEWXS5Pkb7Vp0ktx59rFvgawkDxxvLbyLDH6WW8O8KZlRw+RZvw3kePy+OKnisLhcTlOCrYWhiqvN7SccPOhKlGpU9pUbrRgpKdWo237SbOPMc74ky6pWzzKc+zjBY54ZYbE4jD5pjKOIrYaEaXIpYhVVVlTpqNKPsZSceWlSUYfuaaP6CPhl/wUH/AOCrv/BQXxP8VP2dPhf4i/Z7/Z18D6NCPDvxa/aK+HPwd8SeCvFPhjwl4t1FfDOl6F4Z17Ttf+IPj9PiB8ULqS58N+DvAvwh0I/FXxfN/bVloOoaTpOmeIdd039Wf2gv2h/2gv2Yf2fbbxdZ/tlX3xD8Q/Cu3+GX7LsPwU+Mvwu8A/Fyb4o/HLSba78VfFn4z/F3xDY3pPgP4xeGfAzaTHr3w70r4k/FPxj4A0bUfBXg34oeJ9L8W+L7fwvon4lfsM+FPi38Qf2iNL+C/wAJf2ifiR+zTZftBS2fhX4zeKvhVDpC+JfFngPw1o/iXUJtM0291KB5vCfjSPQ9S8U+HfCXxL0Ce28ReEoPFer74te0m5u9BvPjT4/ftMeIfj1qGg/DDQfDul/B/wCCXw2nfT/hP8KfBl3eXGm+APh9YzfYtG8JW2tXflaprOuajqepeJfHXxO+IuqF/FnxU+JPi3xB4u1+e1Mmm6bpnl5rwdkWUqpk+DyLIqeUVqvtp5bhsrwWFwU6eKuq1bEUI0PZVKk6VD2LhGk5VOSCrVJwty92U8X5hmTebY7Oc3WbYPDTVLM8VjcXmGM9rho0vquHoSqVeanB4is8RUr1K8lSg28LSoYiPNU/Tfxv/wAFWv8AgpPqEUPhrwv8TvhJ8HtU1+01O1g8c/BH9nHwro3imXTBbaBDd/2V488R6/48tvBMeqya3qXh+1v4rHRfEg8Q2Fqmk3Zt5lu5cL4Kf8FMP2tv2O/hd4M+G3w40f4PeLmh8dfEj4nTeL/jx4N+I3xR+K3iD4neKPEumXfiLXdU8Yz/ABT8JXHiTULqew8OLHfalo9wLq6RI45FiX7On586pr/idLdZ9L8UazplzbaRof8Aad0g0qa41nUrzRoNavdVmkOlRtaTySXttaW62mz7PbaZavJJc3j3N1N5j4Q1zU9Q+NvgGTXb/UNcGleOPA9n/p97LPJNY3OuaZJeWUb3IuUs7a9u9R+1XMVtEscktvE+wTkzj4/B8N0MLl1SnXynh15LBVcxnk2GyzCU8HicXh6cq+FrywawdLBqpCtDD16dSqqlWlOlGpGdOd4w/Us04nyHMszo5XlOJ4oo8TYrHZbki4jxuMqSr4HCYjE4XC4+ksV/aGLxlXmpTx2GqrDww1CrRxNSk6damlUrf0z+C/28P2n/AI3eDvjb8Vr/APaO+G/w38VfA/xhpPhnxh8JPgJ+zf4F0DSfFfj/AMU+EPFGt2afFHxX8Z2+Lmt+I/BOo+IPB3jVJPD/AIMs/DPh3VJdKtTBeQ3L28Vv8n/tIax8Vv2w9N+K3xO+JN94R1XxH+y0dW+Ev7OXhP4UaNr/AIDtNG8T6f8AtH3mjfEL4jLpEPivXbSH4s/FjRP+EK0g694bfTI9CttB0bRtBs9Ojjd6+KP2QfEusX7/ALbekSXCsutfs13fxbuprhDdKfGPwF/aX+D3inw7fvA7qJZb/SfF3i/wjcStJvt9J8RXjD7SM28n3l8F9Q1uz+IHgKCyvrOz0rxl8Uf2rvHU1pHpNvNdw6x8M/jZ4pvtHjvb68kuotWs5dTvtN1fyprCCWLUtA02SWa6tA1mO3DZDQyqvklbK8FlGExkcXldGONo5bgsJWcKuNlmGZ4dPB4Sj7Oji3Rj7WEOSGJ9nH6zzybk/wAzznHZ7xdxhQyTB5pmGXZJm/EeTYOWDqZlj8fTwmFwuNnhZYiMcdjK9SvjKGWqSoTqVm4ylUw9GVDDzVOP6/x/C/xj8QPhr4b+BGvfEbxDpfjmH4V2S+OPivoiWF14j0vxZaeGpPDmk+LLDzreHR73WZPH4vvFdhFKkKTv4SeZjAsyEfJelfH/APb8/YR8A/FfwV+1DpHhb4ufDDwl8Pr21+D37TXhPVzpGreL9d1uRPCfgjw3/wAI7c20j6N8RNNv9RstY1fQtektdGksrS51Hw5qlxa2d7cXH23+y/441bxFfa7b69Ha32rakYtWfXIYY7GcWFreXXhzTtIltLZFs2SxTT5btLm1jslllv7syWpnllupfxk/4ONv2pPFnwhuf2Zvg1pmmRan4Z8QaP45+K+qRzajPZRX3iPS7638G+HFvLa3tme4ttA07UPE09qn2tBJdeIGmKxyWELy/f0VGpjfY4icqVByj7ScLuSppOcpw5VdVGlNRvGST5W4uyZ/ZXi3mFChwq+MMsxeaUcxwmDhl2VU1iJ+zxdKdSODoYXNaFadXD14UnJYuvXlL27qOqqVeftOU+xvh3+3b+yrrOhaVpth8UbDwemlaXp2k2+leP7DUfC99BBp9rDawLcX1xBcaBcsY4oxLd2utzxTy75A/wA9fUOkeKdI8Q6ZZa34d17Std0TUoFutO1bR7y21bTb63kz++s9R06a4s7qLeHTfDM4VlaNyJEdR/nneI/2nfitqs1tHp+pad4ZtLpnPkaFpkIuFHmIvz6jqbajevKDuYSxSwMN2MYAr7c8A/EbxPZ+DtBgn1XVL+cWZklvJdRlhluJJ55rh5ZY7ZIofNZpT5jpGplfdK+ZHYn8Bx30WeGsyxuIqcN8XZxhE5upVhneX4bM04yleXs62Fq5XV51Nqzq05c0XLnbkk3+ZYD6W/EOU4KhT4n4LyXHrlhSoVMhx+JyqadKMVH21HGYfNqDjyKWlB0lFuKiuVWX/9k=;" vertex="1" parent="SDU-umlRtd4r8Wcu-aAS-1">
          <mxGeometry x="75" y="215.90999999999997" width="100" height="158.17" as="geometry" />
        </mxCell>
      </root>
    </mxGraphModel>
  </diagram>
</mxfile>
